<svg width="14" height="8" viewBox="0 0 14 8" fill="none" xmlns="http://www.w3.org/2000/svg">
<path d="M12.3697 4.63825H0.727632C0.325979 4.63825 0 4.31227 0 3.91062C0 3.50896 0.325979 3.18298 0.727632 3.18298H12.3697C12.7714 3.18298 13.0974 3.50896 13.0974 3.91062C13.0974 4.31227 12.7714 4.63825 12.3697 4.63825Z" fill="#5816E0"/>
<path d="M12.757 4.32832L9.67035 1.2417C9.38658 0.957927 9.38658 0.496609 9.67035 0.212832C9.95413 -0.0709441 10.4154 -0.0709441 10.6992 0.212832L13.7873 3.29945C14.0711 3.58322 14.0711 4.04454 13.7873 4.32832C13.5021 4.61355 13.0422 4.61355 12.757 4.32832Z" fill="#5816E0"/>
<path d="M9.67035 6.5796L12.757 3.49298C13.0407 3.20921 13.5021 3.20921 13.7858 3.49298C14.0696 3.77676 14.0696 4.23808 13.7858 4.52186L10.6992 7.60847C10.4154 7.89225 9.95413 7.89225 9.67035 7.60847C9.38658 7.32469 9.38658 6.86337 9.67035 6.5796Z" fill="#5816E0"/>
</svg>
