<?xml version="1.0" encoding="UTF-8"?>
<svg width="14px" height="20px" viewBox="0 0 14 20" version="1.1" xmlns="http://www.w3.org/2000/svg" xmlns:xlink="http://www.w3.org/1999/xlink">
    <!-- Generator: Sketch 53.1 (72631) - https://sketchapp.com -->
    <title>Change_n</title>
    <desc>Created with Sketch.</desc>
    <defs>
        <linearGradient x1="50.0000023%" y1="100%" x2="50%" y2="0%" id="linearGradient-1">
            <stop stop-color="#DEDEDE" offset="0%"></stop>
            <stop stop-color="#DEDEDE" offset="49.8536085%"></stop>
            <stop stop-color="#FF8E18" offset="50.6688404%"></stop>
            <stop stop-color="#FF8E18" offset="100%"></stop>
        </linearGradient>
    </defs>
    <g id="Page-1" stroke="none" stroke-width="1" fill="none" fill-rule="evenodd">
        <g id="Artboard" transform="translate(-155.000000, -1634.000000)" fill="url(#linearGradient-1)" fill-rule="nonzero">
            <g id="图标" transform="translate(0.000000, 1464.000000)">
                <g id="Change_n" transform="translate(162.000000, 180.000000) rotate(-180.000000) translate(-162.000000, -180.000000) translate(155.000000, 170.000000)">
                    <path d="M13.6687243,13.0533981 L7.69423868,19.6621359 C7.51563786,19.868932 7.25925926,19.9854369 6.98847737,19.9854369 C6.71769547,19.9854369 6.46131687,19.868932 6.28271605,19.6621359 L0.305349794,13.0533981 C0.0144032922,12.7417476 -0.0777777778,12.2873786 0.0748971193,11.8854369 C0.224691358,11.4834951 0.590534979,11.2038835 1.01111111,11.1660194 L12.9572016,11.1660194 C13.3806584,11.2038835 13.7465021,11.4805825 13.899177,11.8825243 C14.0518519,12.2902913 13.9625514,12.7417476 13.6687243,13.0533981 Z M0.305349794,6.94951456 L6.27983539,0.34368932 C6.45843621,0.136893204 6.71481481,0.0203883495 6.98559671,0.0203883495 C7.2563786,0.0203883495 7.5127572,0.136893204 7.69135802,0.34368932 L13.6658436,6.94951456 C13.9567901,7.26116505 14.0489712,7.71553398 13.8962963,8.11747573 C13.7465021,8.51941748 13.3806584,8.79902913 12.9600823,8.8368932 L1.01687243,8.8368932 C0.593415638,8.79902913 0.227572016,8.5223301 0.0748971193,8.12038835 C-0.0777777778,7.71553398 0.0144032922,7.26407767 0.305349794,6.94951456 Z" id="Shape"></path>
                </g>
            </g>
        </g>
    </g>
</svg>