<svg width="80" height="80" viewBox="0 0 80 80" fill="none" xmlns="http://www.w3.org/2000/svg">
<g id="Transaction Submitted">
<path id="Shape" fill-rule="evenodd" clip-rule="evenodd" d="M40 0.000154083C50.6146 -0.0287858 60.7998 4.18886 68.2866 11.7134C83.8798 27.3134 83.8798 52.69 68.2866 68.2832C60.7266 75.8332 50.68 79.9999 39.99 79.9999C29.3782 80.0279 19.1958 75.8116 11.7101 68.2899C4.1568 60.7333 0.000150292 50.6866 0.000150292 40C-0.0290231 29.3847 4.19003 19.199 11.7168 11.7134C19.2018 4.18843 29.3863 -0.0293818 40 0.000154083ZM40.0954 76.6503C49.8527 76.6766 59.2152 72.7999 66.0964 65.884C80.4228 51.5581 80.4228 28.2509 66.0964 13.9216C59.2175 7.00954 49.8589 3.13534 40.1059 3.16224C30.3527 3.13455 20.9938 7.00887 14.1155 13.9216C7.1741 20.8609 3.35301 30.0852 3.35301 39.908C3.32438 49.6579 7.19852 59.014 14.1119 65.891C20.9893 72.801 30.3448 76.675 40.0954 76.6503Z" fill="#16C378"/>
<path id="&#232;&#183;&#175;&#229;&#190;&#132;" d="M36.0362 53.0233C35.4478 53.0233 35.0555 52.8227 34.6633 52.4214L22.9139 40.4014C22.1294 39.5988 22.1294 38.3996 22.9139 37.597C23.6984 36.7944 24.8706 36.7944 25.6552 37.597L36.0362 48.2125L56.2053 27.5787C56.9898 26.7762 58.162 26.7762 58.9465 27.5787C59.731 28.3813 59.731 29.5805 58.9465 30.3831L37.4045 52.4214C37.0122 52.8227 36.62 53.0233 36.0362 53.0233Z" fill="#16C378"/>
</g>
</svg>
