<svg width="24" height="24" viewBox="0 0 24 24" fill="none" xmlns="http://www.w3.org/2000/svg">
<g id="WTRX">
<rect id="Rectangle Copy 3" width="24" height="24" rx="5" fill="#5816E0"/>
<path id="Vector" d="M18.7148 6.47028H15.0314V5.70863C15.0307 5.52081 14.9557 5.34089 14.8228 5.20813C14.69 5.07537 14.51 5.00055 14.3221 5H9.69077C9.50278 5.00051 9.32264 5.07542 9.18971 5.20835C9.05678 5.34128 8.98188 5.52143 8.98137 5.70942V6.47029H5.29812C5.21913 6.47055 5.14346 6.50204 5.0876 6.55789C5.03175 6.61374 5.00026 6.68941 5 6.7684L5.37261 9.62557C5.37286 9.70455 5.40435 9.78023 5.4602 9.83608C5.51606 9.89194 5.59173 9.92343 5.67072 9.92368H6.39193L6.83844 18.0354C6.839 18.1953 6.90283 18.3486 7.01599 18.4616C7.12915 18.5747 7.28245 18.6384 7.44241 18.6388H16.5705C16.7305 18.6383 16.8838 18.5746 16.997 18.4614C17.1101 18.3483 17.1739 18.195 17.1743 18.035L17.6208 9.9233H18.342C18.4201 9.92306 18.495 9.89229 18.5507 9.83756C18.6064 9.78283 18.6385 9.70848 18.6401 9.6304C18.6399 9.62692 18.6399 9.62344 18.6401 9.61996L19.0122 6.76801C19.0118 6.68922 18.9804 6.61375 18.9247 6.558C18.869 6.50225 18.7936 6.47072 18.7148 6.47027V6.47028ZM14.7017 16.4392C14.3469 16.6404 13.872 16.5578 13.6143 16.2651L12.0076 14.4365C12.0074 14.4363 12.0071 14.4361 12.0068 14.4359C12.0065 14.4358 12.0061 14.4357 12.0058 14.4357C12.0054 14.4357 12.0051 14.4358 12.0048 14.4359C12.0045 14.4361 12.0042 14.4363 12.004 14.4365L10.3892 16.2763C10.0831 16.6245 9.54201 16.656 9.18644 16.3454L9.17986 16.3395C8.90728 16.1014 8.87612 15.6878 9.11079 15.4206L10.9895 13.28C10.9896 13.2798 10.9898 13.2796 10.9899 13.2794C10.9899 13.2792 10.99 13.279 10.99 13.2787C10.99 13.2785 10.9899 13.2783 10.9899 13.2781C10.9898 13.2778 10.9896 13.2777 10.9895 13.2775L9.11892 11.1494C8.86143 10.8564 8.89276 10.4337 9.20694 10.1868C9.55846 9.91016 10.103 9.95872 10.3857 10.2805L12.0032 12.1214C12.0034 12.1216 12.0037 12.1218 12.004 12.122C12.0043 12.1221 12.0047 12.1222 12.005 12.1222C12.0054 12.1222 12.0057 12.1221 12.006 12.122C12.0063 12.1218 12.0066 12.1216 12.0069 12.1214L13.6822 10.2127C13.955 9.90202 14.4367 9.87436 14.7543 10.1512L14.8317 10.2183C15.1043 10.4565 15.1355 10.8701 14.9008 11.1372L13.0215 13.2769C13.0214 13.2771 13.0212 13.2773 13.0212 13.2775C13.0211 13.2777 13.021 13.2779 13.021 13.2782C13.021 13.2784 13.0211 13.2786 13.0212 13.2788C13.0212 13.2791 13.0214 13.2793 13.0215 13.2794L14.9029 15.4204C15.1856 15.742 15.0985 16.2142 14.7017 16.4392Z" fill="white"/>
</g>
</svg>
