<svg width="14" height="14" viewBox="0 0 14 14" fill="none" xmlns="http://www.w3.org/2000/svg">
<path fill-rule="evenodd" clip-rule="evenodd" d="M7 0C3.09966 0 0 3.0996 0 7C0 10.9004 3.10061 14 7 14C10.8994 14 14 10.9004 14 7C14 3.0996 10.8994 0 7 0ZM3.49961 7.99971L10.4996 7.99971C10.8002 7.99971 11.0006 8.20037 11.0006 8.49997C11.0006 8.80051 10.8002 9.00024 10.4996 9.00024H4.70015L5.99995 10.3004C6.09594 10.3921 6.15014 10.5184 6.15014 10.6504C6.15014 10.7823 6.09594 10.9086 5.99995 11.0004C5.90934 11.0959 5.78272 11.1501 5.65018 11.1501C5.51765 11.1501 5.39103 11.0959 5.30042 11.0004L3.09975 8.90037C3.09975 8.90037 3.00049 8.80051 3.00049 8.49997C3.00049 7.9997 3.40035 7.99971 3.49961 7.99971ZM8.34998 2.85011C8.48252 2.85011 8.60913 2.90429 8.69975 2.99979L10.8995 5.09979C10.8995 5.09979 11.0006 5.19966 11.0006 5.50019C11.0006 6.00046 10.5998 6.00046 10.4996 6.00046L3.49961 6.00046C3.19995 6.00046 3.00049 5.79979 3.00049 5.50019C3.00049 5.19966 3.19995 4.99992 3.49961 4.99992H9.30002L8.00022 3.69979C7.90422 3.60801 7.85003 3.48172 7.85003 3.34979C7.85003 3.21786 7.90422 3.09157 8.00022 2.99979C8.09083 2.90429 8.21745 2.85011 8.34998 2.85011ZM1 7.00006C1 10.3003 3.6998 13.0005 6.99986 13.0005C10.2999 13.0005 12.9997 10.3003 12.9997 7.00006C12.9997 3.69979 10.299 0.999658 6.99986 0.999658C3.6998 0.999658 1 3.69979 1 7.00006Z" fill="#5915E1"/>
</svg>
