<svg width="20" height="20" viewBox="0 0 20 20" fill="none" xmlns="http://www.w3.org/2000/svg">
<circle cx="10" cy="10" r="10" fill="#FF8E18"/>
<path d="M10.847 9.91556L13.6406 7.1219C13.8946 6.86794 13.8946 6.44444 13.6406 6.19048C13.3867 5.93651 12.9632 5.93651 12.7092 6.19048L9.91556 8.98413L7.1219 6.19048C6.86794 5.93651 6.44444 5.93651 6.19048 6.19048C5.93651 6.44444 5.93651 6.86794 6.19048 7.1219L8.98413 9.91556L6.19048 12.7092C5.93651 12.9632 5.93651 13.3867 6.19048 13.6406C6.36 13.8102 6.52889 13.8102 6.69841 13.8102C6.86794 13.8102 7.03683 13.7257 7.20635 13.6406L10 10.847L12.7937 13.6406C12.9632 13.8102 13.1321 13.8102 13.3016 13.8102C13.4711 13.8102 13.64 13.7257 13.8095 13.6406C14.0635 13.3867 14.0635 12.9632 13.8095 12.7092L10.8463 9.91556H10.847Z" fill="white"/>
</svg>
