<svg width="27" height="11" viewBox="0 0 27 11" fill="none" xmlns="http://www.w3.org/2000/svg">
<path d="M0 6C0 2.68629 2.68629 0 6 0H21.5C24.5376 0 27 2.46243 27 5.5C27 8.53757 24.5376 11 21.5 11H0V6Z" fill="#FB3C00"/>
<g filter="url(#filter0_d)">
<path d="M10.7383 8H9.56641V5.5625H7.28125V8H6.10938V2.3125H7.28125V4.61719H9.56641V2.3125H10.7383V8ZM16.4375 5.28516C16.4375 5.84505 16.3385 6.33594 16.1406 6.75781C15.9427 7.17969 15.6589 7.50521 15.2891 7.73438C14.9219 7.96354 14.5 8.07812 14.0234 8.07812C13.5521 8.07812 13.1315 7.96484 12.7617 7.73828C12.3919 7.51172 12.1055 7.1888 11.9023 6.76953C11.6992 6.34766 11.5964 5.86328 11.5938 5.31641V5.03516C11.5938 4.47526 11.694 3.98307 11.8945 3.55859C12.0977 3.13151 12.3828 2.80469 12.75 2.57812C13.1198 2.34896 13.5417 2.23438 14.0156 2.23438C14.4896 2.23438 14.9102 2.34896 15.2773 2.57812C15.6471 2.80469 15.9323 3.13151 16.1328 3.55859C16.3359 3.98307 16.4375 4.47396 16.4375 5.03125V5.28516ZM15.25 5.02734C15.25 4.43099 15.1432 3.97786 14.9297 3.66797C14.7161 3.35807 14.4115 3.20312 14.0156 3.20312C13.6224 3.20312 13.319 3.35677 13.1055 3.66406C12.8919 3.96875 12.7839 4.41667 12.7812 5.00781V5.28516C12.7812 5.86589 12.888 6.31641 13.1016 6.63672C13.3151 6.95703 13.6224 7.11719 14.0234 7.11719C14.4167 7.11719 14.7188 6.96354 14.9297 6.65625C15.1406 6.34635 15.2474 5.89583 15.25 5.30469V5.02734ZM21.2344 3.26172H19.4922V8H18.3203V3.26172H16.6016V2.3125H21.2344V3.26172Z" fill="white"/>
</g>
<defs>
<filter id="filter0_d" x="5.10938" y="2.23438" width="17.125" height="7.84375" filterUnits="userSpaceOnUse" color-interpolation-filters="sRGB">
<feFlood flood-opacity="0" result="BackgroundImageFix"/>
<feColorMatrix in="SourceAlpha" type="matrix" values="0 0 0 0 0 0 0 0 0 0 0 0 0 0 0 0 0 0 127 0"/>
<feOffset dy="1"/>
<feGaussianBlur stdDeviation="0.5"/>
<feColorMatrix type="matrix" values="0 0 0 0 0 0 0 0 0 0 0 0 0 0 0 0 0 0 0.1 0"/>
<feBlend mode="normal" in2="BackgroundImageFix" result="effect1_dropShadow"/>
<feBlend mode="normal" in="SourceGraphic" in2="effect1_dropShadow" result="shape"/>
</filter>
</defs>
</svg>
