<svg width="20" height="16" viewBox="0 0 20 16" fill="none" xmlns="http://www.w3.org/2000/svg">
<path d="M16.1529 6.14216H18.9085C19.5208 6.14216 19.827 6.44833 19.827 7.06066C19.827 7.673 19.5208 7.97918 18.9085 7.97918H16.1529C15.5406 7.97918 15.2344 7.673 15.2344 7.06066C15.2344 6.44831 15.5406 6.14214 16.1529 6.14214V6.14216ZM16.6441 9.92362L18.5926 11.8721C19.0256 12.3051 19.0256 12.738 18.5926 13.171C18.1596 13.604 17.7266 13.604 17.2936 13.171L15.3451 11.2226C14.9121 10.7896 14.9121 10.3566 15.3451 9.92359C15.7781 9.4906 16.2111 9.4906 16.6441 9.92359V9.92362ZM15.3464 2.89821L17.2949 0.949744C17.7279 0.516752 18.1609 0.516752 18.5939 0.949744C19.0269 1.38274 19.0269 1.81573 18.5939 2.24872L16.6454 4.19718C16.2124 4.63018 15.7794 4.63018 15.3464 4.19718C14.9134 3.76419 14.9134 3.3312 15.3464 2.89821ZM1.83702 3.39029H5.51107C6.73575 3.39029 7.34808 4.00263 7.34808 5.2273V9.81987C7.34808 11.0446 6.73575 11.6569 5.51107 11.6569H1.83702C0.612339 11.6569 0 11.0446 0 9.81987V5.2273C0 4.00263 0.612339 3.39029 1.83702 3.39029Z" fill="white"/>
<path d="M5.51107 3.39021L12.1941 0.0486738C12.2642 0.0135852 12.342 -0.00301531 12.4202 0.000449814C12.4985 0.00391494 12.5745 0.0273305 12.6412 0.0684714C12.7078 0.109612 12.7628 0.167111 12.801 0.235504C12.8391 0.303897 12.8591 0.380911 12.8592 0.459227V14.5878C12.8592 14.6661 12.8391 14.7431 12.801 14.8115C12.7628 14.8799 12.7078 14.9374 12.6412 14.9785C12.5745 15.0197 12.4985 15.0431 12.4202 15.0465C12.342 15.05 12.2642 15.0334 12.1942 14.9983L5.51105 11.6568L5.51107 3.39021Z" fill="white"/>
</svg>
