<svg width="14" height="11" viewBox="0 0 14 11" fill="none" xmlns="http://www.w3.org/2000/svg">
<path d="M8.9962 5.5827L6.91352 3.50002C6.82702 3.41352 6.7139 3.36694 6.59413 3.36694C6.47436 3.36694 6.35459 3.41352 6.27474 3.50002L4.14548 5.62928C3.96583 5.80893 3.96583 6.09505 4.14548 6.27471C4.23199 6.36121 4.35176 6.40779 4.46487 6.40779C4.58464 6.40779 4.69776 6.36121 4.78426 6.27471L6.10839 4.94392V10.5133C6.10839 10.7661 6.31466 10.9657 6.56086 10.9657C6.80706 10.9657 7.01333 10.7595 7.01333 10.5133V4.88404L8.35077 6.22148C8.53042 6.40113 8.81654 6.40113 8.9962 6.22148C9.17585 6.04182 9.17585 5.7557 8.9962 5.5827Z" fill="#5915E1"/>
<path d="M10.2337 9.28888H8.65676C8.40391 9.28888 8.20429 9.08261 8.20429 8.83642C8.20429 8.59022 8.41056 8.38395 8.65676 8.38395H10.2337C11.3583 8.38395 12.2765 7.46571 12.2765 6.34119C12.2765 5.79557 12.0636 5.28322 11.6843 4.90394C11.2984 4.51802 10.7927 4.30509 10.247 4.29844C10.0075 4.29844 9.81454 4.11213 9.79458 3.87924C9.7347 3.07411 9.37538 2.32887 8.78318 1.7766C8.19098 1.22432 7.41247 0.918242 6.59404 0.918242C5.83549 0.918242 5.10356 1.1844 4.52467 1.67679C3.95243 2.15587 3.5665 2.82792 3.44008 3.55985C3.40016 3.76612 3.22715 3.91916 3.01423 3.93247C1.82983 3.99901 0.904934 4.97714 0.904934 6.16154C0.904934 6.74043 1.12451 7.28605 1.52375 7.70525C1.91633 8.11779 2.44865 8.36399 3.01423 8.39726H4.43151C4.68436 8.39726 4.88398 8.60353 4.88398 8.84972C4.88398 9.09592 4.67771 9.30219 4.43151 9.30219H2.98096C2.17583 9.26227 1.42394 8.91626 0.865011 8.33072C0.306081 7.74517 0 6.97332 0 6.16154C0 4.61117 1.12451 3.307 2.62165 3.06081C2.83457 2.24237 3.30035 1.51044 3.93912 0.971474C4.67771 0.346004 5.62257 0 6.59404 0C7.63871 0 8.6368 0.392582 9.402 1.10455C10.0674 1.72337 10.4999 2.53515 10.6529 3.41347C11.2851 3.49997 11.864 3.79274 12.3231 4.25851C12.8753 4.81744 13.1814 5.55603 13.1814 6.34119C13.1814 7.13301 12.8753 7.8716 12.3164 8.43053C11.7575 8.98946 11.0256 9.28888 10.2337 9.28888Z" fill="#5915E1"/>
</svg>
