<svg width="11" height="13" viewBox="0 0 11 13" fill="none" xmlns="http://www.w3.org/2000/svg">
<path d="M2.74994 5.1893H8.24971C8.35356 5.18621 8.45213 5.14278 8.5245 5.06822C8.59686 4.99366 8.63734 4.89385 8.63734 4.78995C8.63734 4.68605 8.59686 4.58623 8.5245 4.51168C8.45213 4.43712 8.35356 4.39369 8.24971 4.39059H2.74994C2.64608 4.39369 2.54752 4.43712 2.47515 4.51168C2.40278 4.58623 2.36231 4.68605 2.36231 4.78995C2.36231 4.89385 2.40278 4.99366 2.47515 5.06822C2.54752 5.14278 2.64608 5.18621 2.74994 5.1893ZM4.3211 2.39471H6.67819C6.99218 2.3893 7.29148 2.26078 7.51162 2.03682C7.73176 1.81286 7.85511 1.51139 7.85511 1.19735C7.85511 0.883319 7.73176 0.58185 7.51162 0.357891C7.29148 0.133932 6.99218 0.00540541 6.67819 0H4.3211C4.00711 0.00540541 3.70781 0.133932 3.48767 0.357891C3.26753 0.58185 3.14418 0.883319 3.14418 1.19735C3.14418 1.51139 3.26753 1.81286 3.48767 2.03682C3.70781 2.26078 4.00711 2.3893 4.3211 2.39471ZM4.3211 0.798H6.67819C6.78406 0.798 6.88559 0.840056 6.96045 0.914916C7.03532 0.989776 7.07737 1.09131 7.07737 1.19718C7.07737 1.30305 7.03532 1.40458 6.96045 1.47944C6.88559 1.5543 6.78406 1.59635 6.67819 1.59635H4.3211C4.21523 1.59635 4.1137 1.5543 4.03884 1.47944C3.96398 1.40458 3.92192 1.30305 3.92192 1.19718C3.92192 1.09131 3.96398 0.989776 4.03884 0.914916C4.1137 0.840056 4.21523 0.798 4.3211 0.798ZM8.6425 7.18483C8.64316 7.07984 8.60213 6.97887 8.52842 6.9041C8.45472 6.82933 8.35435 6.78686 8.24935 6.78601H2.74958C2.64582 6.78911 2.54734 6.8325 2.47504 6.90699C2.40274 6.98148 2.3623 7.0812 2.3623 7.18501C2.3623 7.28882 2.40274 7.38854 2.47504 7.46303C2.54734 7.53752 2.64582 7.58092 2.74958 7.58401H8.24935C8.35441 7.58317 8.45483 7.54065 8.52855 7.4658C8.60227 7.39095 8.64326 7.28989 8.6425 7.18483ZM9.82087 0.798H8.6425V1.59635H9.82087C9.87289 1.59672 9.92432 1.60735 9.97222 1.62762C10.0201 1.64789 10.0636 1.67741 10.1 1.71449C10.1365 1.75156 10.1653 1.79547 10.1848 1.8437C10.2043 1.89192 10.2141 1.94352 10.2137 1.99553V11.5758C10.2144 11.6279 10.2047 11.6797 10.1854 11.7282C10.166 11.7766 10.1372 11.8207 10.1007 11.858C10.0642 11.8952 10.0207 11.9249 9.97264 11.9453C9.92461 11.9657 9.87304 11.9764 9.82087 11.9767H1.17842C1.12625 11.9764 1.07467 11.9657 1.02665 11.9453C0.978632 11.9249 0.935115 11.8952 0.898609 11.858C0.862102 11.8207 0.833325 11.7766 0.813936 11.7282C0.794546 11.6797 0.784926 11.6279 0.785629 11.5758V1.99553C0.785161 1.94352 0.794955 1.89192 0.81445 1.8437C0.833946 1.79547 0.862759 1.75156 0.899243 1.71449C0.935726 1.67741 0.979163 1.64789 1.02707 1.62762C1.07497 1.60735 1.1264 1.59672 1.17842 1.59635H2.35679V0.798H1.17842C0.863319 0.800624 0.562163 0.928295 0.341184 1.15293C0.120204 1.37757 -0.00250335 1.68079 4.80366e-05 1.99589V11.5761C-0.00135585 11.7323 0.0280249 11.8872 0.0865113 12.032C0.144998 12.1768 0.231443 12.3087 0.340909 12.42C0.450374 12.5314 0.580713 12.6201 0.724477 12.6811C0.868242 12.7421 1.02261 12.7741 1.17877 12.7754H9.82123C9.97738 12.7741 10.1318 12.7421 10.2755 12.6811C10.4193 12.6201 10.5496 12.5314 10.6591 12.42C10.7686 12.3087 10.855 12.1768 10.9135 12.032C10.972 11.8872 11.0014 11.7323 11 11.5761V1.99589C11.0024 1.68079 10.8796 1.37761 10.6586 1.15304C10.4375 0.928466 10.1363 0.800885 9.82123 0.798354L9.82087 0.798ZM2.74994 9.18108C2.64617 9.18417 2.5477 9.22756 2.4754 9.30205C2.4031 9.37654 2.36266 9.47627 2.36266 9.58008C2.36266 9.68388 2.4031 9.78361 2.4754 9.8581C2.5477 9.93259 2.64617 9.97598 2.74994 9.97907H5.89261C5.99637 9.97598 6.09485 9.93259 6.16715 9.8581C6.23945 9.78361 6.27989 9.68388 6.27989 9.58008C6.27989 9.47627 6.23945 9.37654 6.16715 9.30205C6.09485 9.22756 5.99637 9.18417 5.89261 9.18108H2.74994Z" fill="#5915E1"/>
</svg>
