<svg width="12" height="12" viewBox="0 0 12 12" fill="none" xmlns="http://www.w3.org/2000/svg">
<g clip-path="url(#clip0)">
<path d="M11.498 2.26026H8.56398V2.10853C8.53056 0.93599 7.45828 0 6.12715 0C4.80289 0 3.72976 0.93599 3.70318 2.10854V2.26026H0.50436C0.212929 2.26026 0.0012207 2.4514 0.0012207 2.69483C0.0012207 2.93911 0.212929 3.13026 0.50436 3.13026H1.74978V9.89818C1.74978 11.5653 1.99491 11.9999 3.43147 11.9999H8.57084C10.0143 11.9999 10.2525 11.5782 10.2525 9.89818V3.13026H11.498C11.7894 3.13026 12.0011 2.93911 12.0011 2.69483C12.0011 2.45826 11.7697 2.26026 11.498 2.26026ZM6.10059 0.791124C6.902 0.791124 7.57057 1.34397 7.60399 2.06911L7.60999 2.23368H4.58432L4.59717 2.06226C4.66317 1.35083 5.31887 0.791124 6.10059 0.791124ZM3.49146 11.2027C2.77576 11.2027 2.61718 10.8599 2.61718 9.89133V3.13026H9.38511V10.0302C9.38511 10.4973 9.37225 10.6619 9.28569 10.8402C9.15969 11.0904 8.9154 11.2027 8.5177 11.2027H3.49146V11.2027ZM4.81573 4.7708C4.48487 4.7708 4.2466 5.06738 4.2466 5.41023V9.0479C4.2466 9.39677 4.48487 9.68646 4.81573 9.68646C5.1466 9.68646 5.38486 9.39075 5.38486 9.0479V5.41023C5.38486 5.06051 5.11401 4.7708 4.81573 4.7708ZM7.18656 4.7708C6.85571 4.7708 6.61743 5.06738 6.61743 5.41023V9.0479C6.61743 9.39677 6.88828 9.68646 7.18656 9.68646C7.51742 9.68646 7.7557 9.39075 7.7557 9.0479V5.41023C7.76419 5.33009 7.75583 5.24905 7.73118 5.17233C7.70652 5.0956 7.66611 5.02487 7.61252 4.96467C7.55894 4.90447 7.49337 4.85613 7.42002 4.82274C7.34667 4.78936 7.26715 4.77167 7.18656 4.7708Z" fill="#5915E1"/>
</g>
<defs>
<clipPath id="clip0">
<rect width="12" height="12" fill="white"/>
</clipPath>
</defs>
</svg>
