<svg width="52" height="52" viewBox="0 0 52 52" fill="none" xmlns="http://www.w3.org/2000/svg">
<g opacity="0.1">
<path d="M39.0198 11.2939C39.0198 12.0284 39.3115 12.7327 39.8309 13.2521C40.3502 13.7714 41.0546 14.0632 41.789 14.0632C42.5235 14.0632 43.2279 13.7714 43.7472 13.2521C44.2665 12.7327 44.5583 12.0284 44.5583 11.2939C44.5583 10.5595 44.2665 9.85509 43.7472 9.33576C43.2279 8.81642 42.5235 8.52466 41.789 8.52466C41.0546 8.52466 40.3502 8.81642 39.8309 9.33576C39.3115 9.85509 39.0198 10.5595 39.0198 11.2939V11.2939Z" fill="#5816E0"/>
<path d="M44.1636 26.2595C44.1635 26.7084 44.2519 27.153 44.4236 27.5677C44.5954 27.9825 44.8472 28.3594 45.1646 28.6768C45.482 28.9943 45.8588 29.2461 46.2736 29.4179C46.6883 29.5897 47.1328 29.6781 47.5817 29.6781C48.0307 29.6781 48.4752 29.5897 48.8899 29.4179C49.3046 29.2461 49.6815 28.9943 49.9989 28.6768C50.3163 28.3594 50.5681 27.9825 50.7398 27.5677C50.9116 27.153 51 26.7084 50.9999 26.2595C51 25.8106 50.9116 25.3661 50.7398 24.9513C50.5681 24.5366 50.3163 24.1597 49.9989 23.8422C49.6815 23.5248 49.3046 23.273 48.8899 23.1012C48.4752 22.9294 48.0307 22.8409 47.5817 22.8409C47.1328 22.8409 46.6883 22.9294 46.2736 23.1012C45.8588 23.273 45.482 23.5248 45.1646 23.8422C44.8472 24.1597 44.5954 24.5366 44.4236 24.9513C44.2519 25.3661 44.1635 25.8106 44.1636 26.2595Z" fill="#5816E0"/>
<path d="M37.8948 41.3C37.8948 42.3672 38.3187 43.3907 39.0733 44.1453C39.828 44.8999 40.8514 45.3239 41.9186 45.3239C42.9858 45.3239 44.0093 44.8999 44.7639 44.1453C45.5186 43.3907 45.9425 42.3672 45.9425 41.3C45.9425 40.2328 45.5186 39.2093 44.7639 38.4547C44.0093 37.7001 42.9858 37.2761 41.9186 37.2761C40.8514 37.2761 39.828 37.7001 39.0733 38.4547C38.3187 39.2093 37.8948 40.2328 37.8948 41.3V41.3Z" fill="#5816E0"/>
<path d="M22.2305 47.3147C22.2304 47.9269 22.3509 48.5331 22.5852 49.0987C22.8194 49.6642 23.1627 50.1782 23.5956 50.6111C24.0284 51.044 24.5423 51.3874 25.1079 51.6216C25.6735 51.8559 26.2796 51.9765 26.8918 51.9765C27.504 51.9765 28.1102 51.8559 28.6758 51.6216C29.2413 51.3874 29.7552 51.044 30.1881 50.6111C30.6209 50.1782 30.9643 49.6642 31.1985 49.0987C31.4327 48.5331 31.5532 47.9269 31.5532 47.3147C31.5532 46.7025 31.4327 46.0963 31.1985 45.5307C30.9643 44.9651 30.6209 44.4512 30.1881 44.0183C29.7552 43.5854 29.2413 43.242 28.6758 43.0077C28.1102 42.7734 27.504 42.6528 26.8918 42.6528C26.2796 42.6528 25.6735 42.7734 25.1079 43.0077C24.5423 43.242 24.0284 43.5854 23.5956 44.0183C23.1627 44.4512 22.8194 44.9651 22.5852 45.5307C22.3509 46.0963 22.2304 46.7025 22.2305 47.3147V47.3147Z" fill="#5816E0"/>
<path d="M6.87036 41.0636C6.87036 41.7455 7.00466 42.4206 7.26558 43.0506C7.52651 43.6805 7.90895 44.2528 8.39108 44.735C8.87321 45.2171 9.44557 45.5995 10.0755 45.8605C10.7054 46.1214 11.3806 46.2557 12.0624 46.2557C12.7442 46.2557 13.4194 46.1214 14.0493 45.8605C14.6793 45.5995 15.2516 45.2171 15.7338 44.735C16.2159 44.2528 16.5983 43.6805 16.8593 43.0506C17.1202 42.4206 17.2545 41.7455 17.2545 41.0636C17.2545 39.6866 16.7075 38.366 15.7338 37.3923C14.7601 36.4186 13.4394 35.8716 12.0624 35.8716C10.6854 35.8716 9.36478 36.4186 8.39108 37.3923C7.41738 38.366 6.87036 39.6866 6.87036 41.0636V41.0636Z" fill="#5816E0"/>
<path d="M21.4878 5.49531C21.4878 6.95276 22.0668 8.35052 23.0973 9.38109C24.1279 10.4117 25.5257 10.9906 26.9831 10.9906C28.4406 10.9906 29.8383 10.4117 30.8689 9.38109C31.8995 8.35052 32.4784 6.95276 32.4784 5.49531C32.4784 4.77366 32.3363 4.05907 32.0601 3.39235C31.784 2.72563 31.3792 2.11983 30.8689 1.60954C30.3586 1.09925 29.7528 0.694471 29.0861 0.418306C28.4194 0.14214 27.7048 0 26.9831 0C26.2615 0 25.5469 0.14214 24.8801 0.418306C24.2134 0.694471 23.6076 1.09925 23.0973 1.60954C22.587 2.11983 22.1823 2.72563 21.9061 3.39235C21.6299 4.05907 21.4878 4.77366 21.4878 5.49531Z" fill="#5816E0"/>
<path d="M6.56714 11.4235C6.56714 12.1452 6.70928 12.8598 6.98544 13.5265C7.26161 14.1932 7.66639 14.799 8.17668 15.3093C8.68697 15.8196 9.29276 16.2244 9.95949 16.5005C10.6262 16.7767 11.3408 16.9188 12.0625 16.9188C12.7841 16.9188 13.4987 16.7767 14.1654 16.5005C14.8321 16.2244 15.4379 15.8196 15.9482 15.3093C16.4585 14.799 16.8633 14.1932 17.1395 13.5265C17.4156 12.8598 17.5578 12.1452 17.5578 11.4235C17.5578 9.96609 16.9788 8.56833 15.9482 7.53776C14.9177 6.50719 13.5199 5.92822 12.0625 5.92822C10.605 5.92822 9.20725 6.50719 8.17668 7.53776C7.14611 8.56833 6.56714 9.96609 6.56714 11.4235V11.4235Z" fill="#5816E0"/>
<path d="M1 26.0867C1 26.7743 1.13544 27.4552 1.39857 28.0904C1.66171 28.7257 2.0474 29.3029 2.53361 29.7891C3.01983 30.2753 3.59705 30.661 4.23232 30.9242C4.86759 31.1873 5.54847 31.3227 6.23608 31.3227C6.92369 31.3227 7.60457 31.1873 8.23984 30.9242C8.87511 30.661 9.45233 30.2753 9.93854 29.7891C10.4248 29.3029 10.8104 28.7257 11.0736 28.0904C11.3367 27.4552 11.4722 26.7743 11.4722 26.0867C11.4722 24.698 10.9205 23.3662 9.93854 22.3842C8.95659 21.4022 7.62477 20.8506 6.23608 20.8506C4.84738 20.8506 3.51557 21.4022 2.53361 22.3842C1.55166 23.3662 1 24.698 1 26.0867V26.0867Z" fill="#5816E0"/>
</g>
</svg>
