<svg width="97" height="37" viewBox="0 0 97 37" fill="none" xmlns="http://www.w3.org/2000/svg">
<g filter="url(#filter0_d)">
<rect x="6" width="85" height="26" rx="13" fill="url(#paint0_linear)"/>
</g>
<path d="M32.588 11.052V11.88H34.124V18.732H42.992V17.856H35V11.88H37.448V15.66H41.588V11.88H43.4V11.052H41.588V8.232H40.736V11.052H38.3V8.232H37.448V11.052H35V8.34H34.124V11.052H32.588ZM38.3 11.88H40.736V14.82H38.3V11.88ZM49.004 16.812C47.756 17.244 46.304 17.604 44.648 17.868L44.744 18.72C46.34 18.456 47.756 18.12 49.004 17.7V16.812ZM46.652 8.136C46.184 9.552 45.632 10.824 45.008 11.928C44.888 12.096 44.768 12.216 44.624 12.276L44.852 13.104C45.524 12.996 46.196 12.876 46.856 12.744C46.196 13.884 45.632 14.7 45.176 15.18C45.068 15.276 44.936 15.36 44.78 15.432L45.008 16.236C46.232 16.068 47.516 15.768 48.848 15.312V14.544C47.924 14.856 46.988 15.096 46.052 15.288C46.82 14.388 47.78 12.864 48.932 10.728L48.104 10.428C47.828 10.968 47.564 11.472 47.312 11.94C46.76 12.048 46.22 12.132 45.68 12.204C46.292 11.268 46.892 10.032 47.492 8.472L46.652 8.136ZM55.46 15.828L54.596 15.54C54.548 16.524 54.476 17.172 54.356 17.496C54.236 17.832 53.96 18.012 53.54 18.012H51.164C50.732 18 50.516 17.736 50.516 17.232V13.416H54.524V8.628H49.304V9.456H53.672V12.588H49.664V17.556C49.664 18.408 50.048 18.84 50.816 18.84H53.684C54.332 18.84 54.776 18.648 54.992 18.276C55.208 17.904 55.364 17.088 55.46 15.828ZM56.684 10.404V11.232H58.088V13.932C57.584 14.124 57.08 14.28 56.552 14.412L56.756 15.264C57.212 15.12 57.656 14.952 58.088 14.784V17.772C58.088 18.132 57.932 18.312 57.632 18.312C57.356 18.312 57.068 18.288 56.756 18.252L56.936 19.068H57.92C58.592 19.068 58.928 18.708 58.928 17.988V14.424C59.288 14.256 59.66 14.064 60.02 13.872V13.02C59.66 13.212 59.3 13.404 58.928 13.584V11.232H60.056V10.404H58.928V8.208H58.088V10.404H56.684ZM63.968 8.124L63.068 8.268C63.248 8.604 63.416 8.964 63.56 9.36H60.584V11.424H61.4V10.152H66.26V11.424H67.064V9.36H64.4C64.256 8.904 64.112 8.484 63.968 8.124ZM62.744 10.704C62.312 11.568 61.676 12.264 60.824 12.78L61.46 13.332C62.288 12.78 62.96 12 63.476 10.992L62.744 10.704ZM64.784 10.608L64.136 11.016C64.904 11.856 65.516 12.624 65.96 13.32L66.632 12.852C66.2 12.216 65.588 11.472 64.784 10.608ZM60.968 13.824V14.628H64.988C63.284 15.396 62.072 16.116 61.364 16.776C60.956 17.184 60.752 17.58 60.752 17.976C60.764 18.66 61.232 19.008 62.144 19.02H65.588C66.152 19.008 66.572 18.888 66.848 18.648C67.064 18.444 67.256 17.832 67.4 16.824L66.584 16.56C66.488 17.388 66.38 17.88 66.248 18.024C66.128 18.168 65.9 18.24 65.564 18.24H62.18C61.832 18.228 61.664 18.108 61.664 17.892C61.664 17.712 61.772 17.496 62 17.256C62.648 16.584 64.16 15.684 66.524 14.556V13.824H60.968ZM70.16 9.708C69.884 11.484 69.308 13.068 68.42 14.46L68.888 15.216C69.152 14.82 69.404 14.4 69.644 13.968V18.804H70.46V17.928H72.476V12.432H70.316C70.616 11.592 70.844 10.68 71.012 9.708H72.884V8.868H68.888V9.708H70.16ZM70.46 17.124V13.224H71.684V17.124H70.46ZM76.436 8.172L75.56 8.316C75.8 8.784 76.004 9.3 76.196 9.876H73.628V13.32C73.592 15.624 73.136 17.412 72.272 18.708L72.92 19.296C73.916 17.796 74.444 15.804 74.492 13.32V10.716H79.352V9.876H77.036C76.844 9.228 76.652 8.664 76.436 8.172Z" fill="white"/>
<path d="M22.3377 6.02218C22.3027 6.00427 22.2632 5.99696 22.2241 6.00115C22.185 6.00534 22.148 6.02083 22.1176 6.04575C22.0871 6.07066 22.0646 6.10391 22.0528 6.14141C22.041 6.17892 22.0404 6.21906 22.051 6.25692C22.2985 7.14918 22.3717 9.30815 18.9541 12.227C15.8578 14.8708 16.4728 19.6675 20.5738 20.3513C19.6264 18.3343 20.254 16.348 20.254 16.348C20.254 16.348 20.8506 20.9678 24.3151 20.8436C26.2359 20.6669 27.1201 19.6394 27.6715 18.6218C29.4244 15.3839 28.0819 11.5622 26.984 10.2867C26.957 10.2552 26.921 10.2327 26.8808 10.2223C26.8406 10.212 26.7981 10.2143 26.7593 10.2289C26.7204 10.2435 26.6869 10.2697 26.6635 10.3039C26.64 10.3382 26.6277 10.3789 26.6282 10.4204C26.6363 11.0625 26.501 12.1984 25.5604 12.9447C25.264 13.1799 24.8356 12.9138 24.9134 12.5436C25.2492 10.959 25.5064 7.64151 22.3377 6.02218Z" fill="#FF8328"/>
<path d="M22.4076 12.2991C22.375 12.2798 22.3376 12.2701 22.2997 12.2711C22.2618 12.272 22.225 12.2836 22.1933 12.3045C22.1617 12.3254 22.1366 12.3547 22.1209 12.3892C22.1051 12.4237 22.0994 12.4619 22.1043 12.4995C22.1862 13.1004 22.0194 14.2947 20.1215 15.8012C18.2385 17.2958 18.4999 20.1388 20.9053 20.6297C20.3898 19.4192 20.8012 18.2604 20.8012 18.2604C20.8012 18.2604 21.0556 20.9995 23.1025 20.9995C24.2394 20.9358 24.7831 20.3482 25.1299 19.7595C26.3074 17.761 24.9566 13.806 22.4076 12.2991Z" fill="#FFE41F"/>
<defs>
<filter id="filter0_d" x="0.569536" y="0" width="95.8609" height="36.8609" filterUnits="userSpaceOnUse" color-interpolation-filters="sRGB">
<feFlood flood-opacity="0" result="BackgroundImageFix"/>
<feColorMatrix in="SourceAlpha" type="matrix" values="0 0 0 0 0 0 0 0 0 0 0 0 0 0 0 0 0 0 127 0"/>
<feOffset dy="5.43046"/>
<feGaussianBlur stdDeviation="2.71523"/>
<feColorMatrix type="matrix" values="0 0 0 0 0.476428 0 0 0 0 0.223529 0 0 0 0 0.862745 0 0 0 0.2 0"/>
<feBlend mode="normal" in2="BackgroundImageFix" result="effect1_dropShadow"/>
<feBlend mode="normal" in="SourceGraphic" in2="effect1_dropShadow" result="shape"/>
</filter>
<linearGradient id="paint0_linear" x1="6" y1="0.857869" x2="59.7759" y2="53.6318" gradientUnits="userSpaceOnUse">
<stop stop-color="#6E2AF1"/>
<stop offset="0.499434" stop-color="#7B3DD6"/>
<stop offset="1" stop-color="#B130AE"/>
</linearGradient>
</defs>
</svg>
