<svg width="171" height="37" viewBox="0 0 171 37" fill="none" xmlns="http://www.w3.org/2000/svg">
<g filter="url(#filter0_d)">
<rect x="6" width="159" height="26" rx="13" fill="url(#paint0_linear)"/>
</g>
<path d="M35.868 9.584H33.132V8.504H39.756V9.584H37.02V17H35.868V9.584ZM40.9826 8.504H43.9706C44.5146 8.504 44.9626 8.58 45.3146 8.732C45.6666 8.876 45.9426 9.064 46.1426 9.296C46.3506 9.52 46.4946 9.776 46.5746 10.064C46.6546 10.344 46.6946 10.616 46.6946 10.88C46.6946 11.152 46.6466 11.416 46.5506 11.672C46.4546 11.92 46.3146 12.148 46.1306 12.356C45.9546 12.556 45.7346 12.728 45.4706 12.872C45.2146 13.008 44.9266 13.092 44.6066 13.124L47.0186 17H45.5786L43.4186 13.256H42.1346V17H40.9826V8.504ZM42.1346 12.248H43.6466C43.8706 12.248 44.0906 12.232 44.3066 12.2C44.5306 12.16 44.7266 12.092 44.8946 11.996C45.0706 11.9 45.2106 11.764 45.3146 11.588C45.4186 11.404 45.4706 11.168 45.4706 10.88C45.4706 10.592 45.4186 10.36 45.3146 10.184C45.2106 10 45.0706 9.86 44.8946 9.764C44.7266 9.668 44.5306 9.604 44.3066 9.572C44.0906 9.532 43.8706 9.512 43.6466 9.512H42.1346V12.248ZM52.2186 17.216C51.5706 17.216 50.9746 17.104 50.4306 16.88C49.8866 16.648 49.4186 16.332 49.0266 15.932C48.6426 15.532 48.3386 15.06 48.1146 14.516C47.8986 13.972 47.7906 13.384 47.7906 12.752C47.7906 12.12 47.8986 11.532 48.1146 10.988C48.3386 10.444 48.6426 9.972 49.0266 9.572C49.4186 9.172 49.8866 8.86 50.4306 8.636C50.9746 8.404 51.5706 8.288 52.2186 8.288C52.8666 8.288 53.4626 8.404 54.0066 8.636C54.5506 8.86 55.0146 9.172 55.3986 9.572C55.7906 9.972 56.0946 10.444 56.3106 10.988C56.5346 11.532 56.6466 12.12 56.6466 12.752C56.6466 13.384 56.5346 13.972 56.3106 14.516C56.0946 15.06 55.7906 15.532 55.3986 15.932C55.0146 16.332 54.5506 16.648 54.0066 16.88C53.4626 17.104 52.8666 17.216 52.2186 17.216ZM52.2186 16.136C52.7066 16.136 53.1466 16.048 53.5386 15.872C53.9306 15.688 54.2666 15.444 54.5466 15.14C54.8266 14.836 55.0426 14.48 55.1946 14.072C55.3466 13.656 55.4226 13.216 55.4226 12.752C55.4226 12.288 55.3466 11.852 55.1946 11.444C55.0426 11.028 54.8266 10.668 54.5466 10.364C54.2666 10.06 53.9306 9.82 53.5386 9.644C53.1466 9.46 52.7066 9.368 52.2186 9.368C51.7306 9.368 51.2906 9.46 50.8986 9.644C50.5066 9.82 50.1706 10.06 49.8906 10.364C49.6106 10.668 49.3946 11.028 49.2426 11.444C49.0906 11.852 49.0146 12.288 49.0146 12.752C49.0146 13.216 49.0906 13.656 49.2426 14.072C49.3946 14.48 49.6106 14.836 49.8906 15.14C50.1706 15.444 50.5066 15.688 50.8986 15.872C51.2906 16.048 51.7306 16.136 52.2186 16.136ZM58.3029 8.504H59.8149L64.4949 15.488H64.5189V8.504H65.6709V17H64.2069L59.4789 10.016H59.4549V17H58.3029V8.504ZM77.1096 10.34C76.8696 10.028 76.5656 9.788 76.1976 9.62C75.8296 9.452 75.4496 9.368 75.0576 9.368C74.5776 9.368 74.1416 9.46 73.7496 9.644C73.3656 9.82 73.0336 10.064 72.7536 10.376C72.4816 10.688 72.2696 11.056 72.1176 11.48C71.9656 11.896 71.8896 12.344 71.8896 12.824C71.8896 13.272 71.9616 13.696 72.1056 14.096C72.2496 14.496 72.4576 14.848 72.7296 15.152C73.0016 15.456 73.3336 15.696 73.7256 15.872C74.1176 16.048 74.5616 16.136 75.0576 16.136C75.5456 16.136 75.9736 16.036 76.3416 15.836C76.7096 15.636 77.0216 15.356 77.2776 14.996L78.2496 15.728C78.1856 15.816 78.0736 15.944 77.9136 16.112C77.7536 16.272 77.5416 16.436 77.2776 16.604C77.0136 16.764 76.6936 16.904 76.3176 17.024C75.9496 17.152 75.5216 17.216 75.0336 17.216C74.3616 17.216 73.7536 17.088 73.2096 16.832C72.6736 16.576 72.2136 16.24 71.8296 15.824C71.4536 15.408 71.1656 14.94 70.9656 14.42C70.7656 13.892 70.6656 13.36 70.6656 12.824C70.6656 12.168 70.7736 11.564 70.9896 11.012C71.2056 10.452 71.5056 9.972 71.8896 9.572C72.2816 9.164 72.7496 8.848 73.2936 8.624C73.8376 8.4 74.4376 8.288 75.0936 8.288C75.6536 8.288 76.2016 8.396 76.7376 8.612C77.2816 8.828 77.7256 9.16 78.0696 9.608L77.1096 10.34ZM80.1828 14.552C80.1828 14.8 80.2348 15.028 80.3388 15.236C80.4508 15.436 80.5948 15.608 80.7708 15.752C80.9468 15.896 81.1508 16.008 81.3828 16.088C81.6148 16.168 81.8548 16.208 82.1028 16.208C82.4388 16.208 82.7308 16.132 82.9788 15.98C83.2268 15.82 83.4548 15.612 83.6628 15.356L84.4788 15.98C83.8788 16.756 83.0388 17.144 81.9588 17.144C81.5108 17.144 81.1028 17.068 80.7348 16.916C80.3748 16.764 80.0668 16.556 79.8108 16.292C79.5628 16.02 79.3708 15.704 79.2348 15.344C79.0988 14.976 79.0308 14.58 79.0308 14.156C79.0308 13.732 79.1028 13.34 79.2468 12.98C79.3988 12.612 79.6028 12.296 79.8588 12.032C80.1228 11.76 80.4348 11.548 80.7948 11.396C81.1548 11.244 81.5468 11.168 81.9708 11.168C82.4748 11.168 82.8988 11.256 83.2428 11.432C83.5948 11.608 83.8828 11.84 84.1068 12.128C84.3308 12.408 84.4908 12.728 84.5868 13.088C84.6908 13.44 84.7428 13.8 84.7428 14.168V14.552H80.1828ZM83.5908 13.688C83.5828 13.448 83.5428 13.228 83.4708 13.028C83.4068 12.828 83.3068 12.656 83.1708 12.512C83.0348 12.36 82.8628 12.244 82.6548 12.164C82.4548 12.076 82.2188 12.032 81.9468 12.032C81.6828 12.032 81.4388 12.084 81.2148 12.188C80.9988 12.284 80.8148 12.412 80.6628 12.572C80.5108 12.732 80.3908 12.912 80.3028 13.112C80.2228 13.304 80.1828 13.496 80.1828 13.688H83.5908ZM86.0348 11.312H87.1148V12.188H87.1388C87.2748 11.884 87.5108 11.64 87.8468 11.456C88.1828 11.264 88.5708 11.168 89.0108 11.168C89.2828 11.168 89.5428 11.212 89.7908 11.3C90.0468 11.38 90.2668 11.508 90.4508 11.684C90.6428 11.86 90.7948 12.088 90.9068 12.368C91.0188 12.64 91.0748 12.964 91.0748 13.34V17H89.9948V13.64C89.9948 13.376 89.9588 13.152 89.8868 12.968C89.8148 12.776 89.7188 12.624 89.5988 12.512C89.4788 12.392 89.3388 12.308 89.1788 12.26C89.0268 12.204 88.8668 12.176 88.6988 12.176C88.4748 12.176 88.2668 12.212 88.0748 12.284C87.8828 12.356 87.7148 12.472 87.5708 12.632C87.4268 12.784 87.3148 12.98 87.2348 13.22C87.1548 13.46 87.1148 13.744 87.1148 14.072V17H86.0348V11.312ZM95.7507 12.248H94.2027V14.828C94.2027 14.988 94.2067 15.148 94.2147 15.308C94.2227 15.46 94.2507 15.6 94.2987 15.728C94.3547 15.848 94.4347 15.948 94.5387 16.028C94.6507 16.1 94.8107 16.136 95.0187 16.136C95.1467 16.136 95.2787 16.124 95.4147 16.1C95.5507 16.076 95.6747 16.032 95.7867 15.968V16.952C95.6587 17.024 95.4907 17.072 95.2827 17.096C95.0827 17.128 94.9267 17.144 94.8147 17.144C94.3987 17.144 94.0747 17.088 93.8427 16.976C93.6187 16.856 93.4507 16.704 93.3387 16.52C93.2347 16.336 93.1707 16.132 93.1467 15.908C93.1307 15.676 93.1227 15.444 93.1227 15.212V12.248H91.8747V11.312H93.1227V9.716H94.2027V11.312H95.7507V12.248ZM102.184 17H101.104V16.124H101.08C100.944 16.428 100.708 16.676 100.372 16.868C100.036 17.052 99.6481 17.144 99.2081 17.144C98.9281 17.144 98.6641 17.1 98.4161 17.012C98.1681 16.932 97.9481 16.804 97.7561 16.628C97.5721 16.452 97.4241 16.228 97.3121 15.956C97.2001 15.676 97.1441 15.348 97.1441 14.972V11.312H98.2241V14.672C98.2241 14.936 98.2601 15.164 98.3321 15.356C98.4041 15.54 98.5001 15.692 98.6201 15.812C98.7401 15.924 98.8761 16.008 99.0281 16.064C99.1881 16.112 99.3521 16.136 99.5201 16.136C99.7441 16.136 99.9521 16.1 100.144 16.028C100.336 15.956 100.504 15.844 100.648 15.692C100.792 15.532 100.904 15.332 100.984 15.092C101.064 14.852 101.104 14.568 101.104 14.24V11.312H102.184V17ZM103.812 11.312H104.892V12.188H104.916C104.988 12.036 105.084 11.9 105.204 11.78C105.324 11.652 105.456 11.544 105.6 11.456C105.752 11.368 105.916 11.3 106.092 11.252C106.268 11.196 106.444 11.168 106.62 11.168C106.796 11.168 106.956 11.192 107.1 11.24L107.052 12.404C106.964 12.38 106.876 12.36 106.788 12.344C106.7 12.328 106.612 12.32 106.524 12.32C105.996 12.32 105.592 12.468 105.312 12.764C105.032 13.06 104.892 13.52 104.892 14.144V17H103.812V11.312ZM107.57 11.312H108.818L110.51 15.752H110.534L112.142 11.312H113.306L110.605 18.224C110.51 18.472 110.41 18.696 110.306 18.896C110.202 19.104 110.078 19.28 109.934 19.424C109.79 19.568 109.614 19.68 109.406 19.76C109.206 19.84 108.958 19.88 108.662 19.88C108.502 19.88 108.338 19.868 108.17 19.844C108.01 19.828 107.854 19.788 107.702 19.724L107.833 18.74C108.05 18.828 108.266 18.872 108.482 18.872C108.65 18.872 108.79 18.848 108.902 18.8C109.022 18.76 109.122 18.696 109.201 18.608C109.29 18.528 109.362 18.432 109.418 18.32C109.474 18.208 109.53 18.08 109.586 17.936L109.934 17.036L107.57 11.312ZM117.785 8.504H119.501L122.201 14.936H122.249L124.925 8.504H126.641V17H125.489V10.016H125.465L122.597 17H121.829L118.961 10.016H118.937V17H117.785V8.504ZM128.552 11.312H129.632V17H128.552V11.312ZM128.3 9.272C128.3 9.056 128.376 8.872 128.528 8.72C128.688 8.56 128.876 8.48 129.092 8.48C129.308 8.48 129.492 8.56 129.644 8.72C129.804 8.872 129.884 9.056 129.884 9.272C129.884 9.488 129.804 9.676 129.644 9.836C129.492 9.988 129.308 10.064 129.092 10.064C128.876 10.064 128.688 9.988 128.528 9.836C128.376 9.676 128.3 9.488 128.3 9.272ZM131.351 11.312H132.431V12.188H132.455C132.591 11.884 132.827 11.64 133.163 11.456C133.499 11.264 133.887 11.168 134.327 11.168C134.599 11.168 134.859 11.212 135.107 11.3C135.363 11.38 135.583 11.508 135.767 11.684C135.959 11.86 136.111 12.088 136.223 12.368C136.335 12.64 136.391 12.964 136.391 13.34V17H135.311V13.64C135.311 13.376 135.275 13.152 135.203 12.968C135.131 12.776 135.035 12.624 134.915 12.512C134.795 12.392 134.655 12.308 134.495 12.26C134.343 12.204 134.183 12.176 134.015 12.176C133.791 12.176 133.583 12.212 133.391 12.284C133.199 12.356 133.031 12.472 132.887 12.632C132.743 12.784 132.631 12.98 132.551 13.22C132.471 13.46 132.431 13.744 132.431 14.072V17H131.351V11.312ZM138.103 11.312H139.183V17H138.103V11.312ZM137.851 9.272C137.851 9.056 137.927 8.872 138.079 8.72C138.239 8.56 138.427 8.48 138.643 8.48C138.859 8.48 139.043 8.56 139.195 8.72C139.355 8.872 139.435 9.056 139.435 9.272C139.435 9.488 139.355 9.676 139.195 9.836C139.043 9.988 138.859 10.064 138.643 10.064C138.427 10.064 138.239 9.988 138.079 9.836C137.927 9.676 137.851 9.488 137.851 9.272ZM140.902 11.312H141.982V12.188H142.006C142.142 11.884 142.378 11.64 142.714 11.456C143.05 11.264 143.438 11.168 143.878 11.168C144.15 11.168 144.41 11.212 144.658 11.3C144.914 11.38 145.134 11.508 145.318 11.684C145.51 11.86 145.662 12.088 145.774 12.368C145.886 12.64 145.942 12.964 145.942 13.34V17H144.862V13.64C144.862 13.376 144.826 13.152 144.754 12.968C144.682 12.776 144.586 12.624 144.466 12.512C144.346 12.392 144.206 12.308 144.046 12.26C143.894 12.204 143.734 12.176 143.566 12.176C143.342 12.176 143.134 12.212 142.942 12.284C142.75 12.356 142.582 12.472 142.438 12.632C142.294 12.784 142.182 12.98 142.102 13.22C142.022 13.46 141.982 13.744 141.982 14.072V17H140.902V11.312ZM153.27 16.952C153.27 17.384 153.194 17.776 153.042 18.128C152.898 18.488 152.69 18.796 152.418 19.052C152.146 19.316 151.818 19.52 151.434 19.664C151.05 19.808 150.626 19.88 150.162 19.88C149.618 19.88 149.118 19.804 148.662 19.652C148.214 19.5 147.786 19.236 147.378 18.86L148.11 17.948C148.39 18.252 148.694 18.48 149.022 18.632C149.35 18.792 149.722 18.872 150.138 18.872C150.538 18.872 150.87 18.812 151.134 18.692C151.398 18.58 151.606 18.432 151.758 18.248C151.918 18.064 152.03 17.852 152.094 17.612C152.158 17.38 152.19 17.144 152.19 16.904V16.064H152.154C151.946 16.408 151.662 16.664 151.302 16.832C150.95 16.992 150.578 17.072 150.186 17.072C149.77 17.072 149.382 17 149.022 16.856C148.67 16.704 148.366 16.5 148.11 16.244C147.854 15.98 147.654 15.672 147.51 15.32C147.366 14.96 147.294 14.572 147.294 14.156C147.294 13.74 147.362 13.352 147.498 12.992C147.634 12.624 147.826 12.304 148.074 12.032C148.33 11.76 148.634 11.548 148.986 11.396C149.346 11.244 149.746 11.168 150.186 11.168C150.57 11.168 150.942 11.252 151.302 11.42C151.67 11.588 151.958 11.824 152.166 12.128H152.19V11.312H153.27V16.952ZM150.318 12.176C150.03 12.176 149.77 12.228 149.538 12.332C149.306 12.428 149.11 12.564 148.95 12.74C148.79 12.908 148.666 13.116 148.578 13.364C148.49 13.604 148.446 13.868 148.446 14.156C148.446 14.732 148.614 15.196 148.95 15.548C149.286 15.892 149.742 16.064 150.318 16.064C150.894 16.064 151.35 15.892 151.686 15.548C152.022 15.196 152.19 14.732 152.19 14.156C152.19 13.868 152.146 13.604 152.058 13.364C151.97 13.116 151.846 12.908 151.686 12.74C151.526 12.564 151.33 12.428 151.098 12.332C150.866 12.228 150.606 12.176 150.318 12.176Z" fill="white"/>
<path d="M23.3377 6.02218C23.3027 6.00427 23.2632 5.99696 23.2241 6.00115C23.185 6.00534 23.148 6.02083 23.1176 6.04575C23.0871 6.07066 23.0646 6.10391 23.0528 6.14141C23.041 6.17892 23.0404 6.21906 23.051 6.25692C23.2985 7.14918 23.3717 9.30815 19.9541 12.227C16.8578 14.8708 17.4728 19.6675 21.5738 20.3513C20.6264 18.3343 21.254 16.348 21.254 16.348C21.254 16.348 21.8506 20.9678 25.3151 20.8436C27.2359 20.6669 28.1201 19.6394 28.6715 18.6218C30.4244 15.3839 29.0819 11.5622 27.984 10.2867C27.957 10.2552 27.921 10.2327 27.8808 10.2223C27.8406 10.212 27.7981 10.2143 27.7593 10.2289C27.7204 10.2435 27.6869 10.2697 27.6635 10.3039C27.64 10.3382 27.6277 10.3789 27.6282 10.4204C27.6363 11.0625 27.501 12.1984 26.5604 12.9447C26.264 13.1799 25.8356 12.9138 25.9134 12.5436C26.2492 10.959 26.5064 7.64151 23.3377 6.02218Z" fill="#FF8328"/>
<path d="M23.4076 12.2991C23.375 12.2798 23.3376 12.2701 23.2997 12.2711C23.2618 12.272 23.225 12.2836 23.1933 12.3045C23.1617 12.3254 23.1366 12.3547 23.1209 12.3892C23.1051 12.4237 23.0994 12.4619 23.1043 12.4995C23.1862 13.1004 23.0194 14.2947 21.1215 15.8012C19.2385 17.2958 19.4999 20.1388 21.9053 20.6297C21.3898 19.4192 21.8012 18.2604 21.8012 18.2604C21.8012 18.2604 22.0556 20.9995 24.1025 20.9995C25.2394 20.9358 25.7831 20.3482 26.1299 19.7595C27.3074 17.761 25.9566 13.806 23.4076 12.2991Z" fill="#FFE41F"/>
<defs>
<filter id="filter0_d" x="0.569536" y="0" width="169.861" height="36.8609" filterUnits="userSpaceOnUse" color-interpolation-filters="sRGB">
<feFlood flood-opacity="0" result="BackgroundImageFix"/>
<feColorMatrix in="SourceAlpha" type="matrix" values="0 0 0 0 0 0 0 0 0 0 0 0 0 0 0 0 0 0 127 0"/>
<feOffset dy="5.43046"/>
<feGaussianBlur stdDeviation="2.71523"/>
<feColorMatrix type="matrix" values="0 0 0 0 0.476428 0 0 0 0 0.223529 0 0 0 0 0.862745 0 0 0 0.2 0"/>
<feBlend mode="normal" in2="BackgroundImageFix" result="effect1_dropShadow"/>
<feBlend mode="normal" in="SourceGraphic" in2="effect1_dropShadow" result="shape"/>
</filter>
<linearGradient id="paint0_linear" x1="6" y1="0.857869" x2="51.1888" y2="83.8125" gradientUnits="userSpaceOnUse">
<stop stop-color="#6E2AF1"/>
<stop offset="0.499434" stop-color="#7B3DD6"/>
<stop offset="1" stop-color="#B130AE"/>
</linearGradient>
</defs>
</svg>
