<svg width="35" height="27" viewBox="0 0 35 27" fill="none" xmlns="http://www.w3.org/2000/svg">
<path d="M30.1092 17.5182C28.5547 23.0818 23.5638 26.9273 17.8365 26.9273C13.2547 26.9273 9.24558 24.4727 7.03649 20.7909C5.64558 21.2 4.4183 21.3636 3.43648 21.3636C2.20921 21.3636 1.39103 21.0364 0.981939 20.3818C0.409212 19.4 0.900121 18.0091 2.37285 16.2091C2.6183 15.9636 3.02739 15.8818 3.27285 16.1273C3.5183 16.3727 3.60012 16.7818 3.35467 17.0273C2.12739 18.5 1.88194 19.3182 2.04558 19.6455C2.29103 20.1364 3.76376 20.2182 6.30012 19.5636C5.48194 17.8455 4.99103 15.9636 4.99103 13.9182C4.99103 6.8 10.7183 0.990909 17.7547 0.990909C21.191 0.990909 24.3819 2.3 26.7547 4.75455C27.0001 5 27.0001 5.40909 26.7547 5.65455C26.5092 5.9 26.1001 5.9 25.8547 5.65455C23.7274 3.44545 20.8638 2.3 17.7547 2.3C11.4547 2.3 6.30012 7.53636 6.30012 13.9182C6.30012 15.8 6.79103 17.6 7.52739 19.1545C9.24558 18.5818 11.4547 17.7636 13.991 16.4545C14.3183 16.2909 14.7274 16.4545 14.891 16.7818C15.0547 17.1091 14.891 17.5182 14.5638 17.6818C12.4365 18.7455 10.2274 19.6455 8.18194 20.3C10.2274 23.4091 13.7456 25.5364 17.6728 25.5364C22.7456 25.5364 27.3274 22.0182 28.7183 17.0273C28.8001 16.7 29.2092 16.4545 29.5365 16.5364C29.9456 16.7818 30.191 17.1091 30.1092 17.5182ZM34.7729 9.09091C34.4456 10.8091 29.7001 13.1818 28.8001 13.6727L28.4729 13.8364C25.8547 15.1455 23.0728 16.4545 21.3547 16.6182H20.5365C19.0638 16.6182 17.8365 16.1273 16.5274 14.3273C16.2001 13.9182 15.3819 12.6909 16.0365 11.9545C16.4456 11.4636 17.2638 11.5455 18.0819 12.1182C18.9001 12.6091 21.0274 12.6909 21.7638 12.1182L21.8456 12.0364C21.8456 11.7091 20.8638 10.8909 20.4547 10.4818L20.291 10.3182C19.3092 9.5 18.9001 8.68182 19.1456 8.02727C19.3092 7.7 19.6365 7.20909 20.7001 7.20909C21.6001 7.20909 22.6638 7.7 23.8092 8.19091C24.791 8.6 25.9365 9.17273 26.5092 9.17273C27.2456 9.17273 27.9819 8.68182 28.8819 8.10909C29.5365 7.7 30.191 7.29091 30.9274 6.96364C32.3183 6.39091 33.4638 6.71818 34.1183 7.29091C34.691 7.86364 34.9365 8.43636 34.7729 9.09091ZM33.4638 8.84545C33.5456 8.68182 33.3001 8.51818 33.2183 8.43636C32.891 8.19091 32.2365 8.02727 31.3365 8.35454C30.6819 8.6 30.1092 9.00909 29.5365 9.41818C28.5547 10.0727 27.5729 10.6455 26.5092 10.6455H26.4274C25.5274 10.6455 24.3819 10.1545 23.1547 9.58182C22.2547 9.17273 21.191 8.68182 20.6183 8.68182H20.3729C20.4547 8.84545 20.6183 9.09091 21.0274 9.41818L21.191 9.58182C22.091 10.4 23.0728 11.2182 23.0728 12.2C23.0728 12.5273 22.9092 12.9364 22.4183 13.2636C21.1092 14.1636 18.491 14 17.2638 13.2636C17.2638 13.2636 17.1819 13.2636 17.1819 13.1818C17.2638 13.2636 17.3456 13.4273 17.4274 13.5909C18.5728 15.2273 19.5547 15.3909 21.0274 15.3091C22.5001 15.1455 25.2819 13.8364 27.7365 12.6091L28.1456 12.4455C31.4183 10.8909 33.3819 9.33636 33.4638 8.84545Z" fill="#999999"/>
</svg>
