<svg width="16" height="16" viewBox="0 0 16 16" fill="none" xmlns="http://www.w3.org/2000/svg">
<path fill-rule="evenodd" clip-rule="evenodd" d="M7.99233 0C3.53907 0 0 3.5424 0 8C0 12.4576 3.54015 16 7.99233 16C12.4445 16 15.9847 12.4576 15.9847 8C15.9847 3.5424 12.4445 0 7.99233 0ZM3.99562 9.1424H11.988C12.3312 9.1424 12.56 9.37173 12.56 9.71413C12.56 10.0576 12.3312 10.2859 11.988 10.2859H5.36635L6.85041 11.7717C6.96001 11.8766 7.02189 12.021 7.02189 12.1717C7.02189 12.3225 6.96001 12.4668 6.85041 12.5717C6.74696 12.6809 6.60239 12.7428 6.45107 12.7428C6.29974 12.7428 6.15517 12.6809 6.05172 12.5717L3.53907 10.1717C3.53907 10.1717 3.42575 10.0576 3.42575 9.71413C3.42575 9.1424 3.8823 9.1424 3.99562 9.1424ZM9.53359 3.2572C9.68491 3.2572 9.82948 3.31913 9.93293 3.42827L12.4445 5.82827C12.4445 5.82827 12.56 5.9424 12.56 6.28587C12.56 6.8576 12.1024 6.8576 11.988 6.8576H3.99562C3.65348 6.8576 3.42575 6.62827 3.42575 6.28587C3.42575 5.9424 3.65348 5.71413 3.99562 5.71413H10.6183L9.13424 4.22827C9.02464 4.12338 8.96276 3.97905 8.96276 3.82827C8.96276 3.67749 9.02464 3.53316 9.13424 3.42827C9.2377 3.31913 9.38227 3.2572 9.53359 3.2572ZM1.14192 8C1.14192 11.7717 4.22444 14.8576 7.99233 14.8576C11.7602 14.8576 14.8427 11.7717 14.8427 8C14.8427 4.22827 11.7591 1.1424 7.99233 1.1424C4.22444 1.1424 1.14192 4.22827 1.14192 8Z" fill="#5915E1"/>
</svg>
