<?xml version="1.0" encoding="UTF-8"?>
<svg width="16px" height="16px" viewBox="0 0 16 16" version="1.1" xmlns="http://www.w3.org/2000/svg" xmlns:xlink="http://www.w3.org/1999/xlink">
    <!-- Generator: Sketch 53.1 (72631) - https://sketchapp.com -->
    <title>Q</title>
    <desc>Created with Sketch.</desc>
    <g id="Page-1" stroke="none" stroke-width="1" fill="none" fill-rule="evenodd">
        <g id="Artboard" transform="translate(-341.000000, -1635.000000)" fill="#999999">
            <g id="图标" transform="translate(0.000000, 1464.000000)">
                <g id="Q" transform="translate(349.000000, 179.000000) rotate(-90.000000) translate(-349.000000, -179.000000) translate(341.000000, 171.000000)">
                    <path d="M16,7.99232675 C16,3.53907352 12.4576,0 8,0 C3.5424,0 0,3.54015284 0,7.99232675 C0,12.4445007 3.5424,15.9846535 8,15.9846535 C12.4576,15.9846535 16,12.4445007 16,7.99232675 Z M1.1424,7.99232675 C1.1424,4.22443848 4.22826667,1.14191516 8,1.14191515 C11.7717333,1.14191515 14.8576,4.22443847 14.8576,7.99232675 C14.8576,11.7591357 11.7717333,14.8427383 8,14.8427383 C4.22826667,14.8427383 1.1424,11.760215 1.1424,7.99232675 Z" id="Shape" fill-rule="nonzero"></path>
                    <text id="?" transform="translate(8.000000, 8.000000) rotate(-270.000000) translate(-8.000000, -8.000000) " font-family="AvenirNext-Medium, Avenir Next" font-size="12" font-weight="400">
                        <tspan x="5" y="12">?</tspan>
                    </text>
                </g>
            </g>
        </g>
    </g>
</svg>