<svg width="17" height="15" viewBox="0 0 17 15" fill="none" xmlns="http://www.w3.org/2000/svg">
<path d="M13.7328 0.0112014L13.6224 0.0196023C13.4628 0.0434975 13.3148 0.117321 13.1997 0.230495C13.0845 0.343668 13.0082 0.49038 12.9816 0.649601L12.972 0.774401L12.972 13.468C12.9726 13.5695 12.9934 13.6699 13.033 13.7634C13.0726 13.8569 13.1303 13.9416 13.2028 14.0127C13.2753 14.0837 13.3612 14.1397 13.4554 14.1774C13.5497 14.2151 13.6505 14.2338 13.752 14.2324C13.9171 14.2327 14.078 14.1806 14.2116 14.0836L14.3064 14.0032L16.476 11.842C16.6236 11.6943 16.7069 11.4944 16.7078 11.2856C16.7087 11.0768 16.6271 10.8761 16.4808 10.7272C16.35 10.594 16.1757 10.5121 15.9896 10.4965C15.8035 10.4808 15.618 10.5325 15.4668 10.642L15.3732 10.7224L14.7036 11.3896L14.4996 11.3044L14.4996 0.776802C14.4996 0.416802 14.2488 0.112002 13.9116 0.0328021L13.7964 0.0148025L13.7328 0.012402L13.7328 0.0112014ZM10.6404 12.4828L0.92401 12.4828L0.80161 12.49C0.622047 12.5184 0.458497 12.6099 0.340316 12.7481C0.222134 12.8862 0.157059 13.062 0.15677 13.2438C0.156481 13.4256 0.220997 13.6015 0.338739 13.74C0.45648 13.8786 0.619738 13.9706 0.79921 13.9996L0.91561 14.0092L10.6332 14.0092L10.7556 14.0008C10.9435 13.969 11.1128 13.8682 11.2303 13.718C11.3477 13.5679 11.4048 13.3793 11.3904 13.1893C11.3759 12.9992 11.291 12.8214 11.1523 12.6907C11.0136 12.56 10.831 12.4859 10.6404 12.4828ZM10.6404 6.7276L0.924011 6.7276L0.813611 6.7336C0.632177 6.7589 0.465864 6.84852 0.34495 6.98613C0.224037 7.12375 0.156566 7.30021 0.154821 7.48339C0.153076 7.66657 0.217174 7.84429 0.335445 7.98418C0.453715 8.12408 0.618292 8.21685 0.799211 8.2456L0.91681 8.2552L10.6332 8.2552L10.7436 8.2492C10.925 8.2239 11.0914 8.13428 11.2123 7.99667C11.3332 7.85905 11.4007 7.68259 11.4024 7.49941C11.4041 7.31623 11.34 7.13851 11.2218 6.99862C11.1035 6.85872 10.9389 6.76595 10.758 6.7372L10.6404 6.7276ZM10.6404 0.727601L0.924012 0.727599L0.813612 0.7336C0.632178 0.758901 0.465865 0.848517 0.344951 0.986134C0.224038 1.12375 0.156567 1.30021 0.154822 1.48339C0.153077 1.66657 0.217176 1.84429 0.335446 1.98419C0.453716 2.12408 0.618293 2.21685 0.799212 2.2456L0.916812 2.2552L10.6332 2.2552L10.7436 2.2492C10.925 2.2239 11.0914 2.13428 11.2123 1.99667C11.3332 1.85905 11.4007 1.68259 11.4024 1.49941C11.4041 1.31623 11.3401 1.13851 11.2218 0.998617C11.1035 0.858723 10.9389 0.765953 10.758 0.737201L10.6404 0.727601Z" fill="#5915E1"/>
</svg>
