<svg width="17" height="15" viewBox="0 0 17 15" fill="none" xmlns="http://www.w3.org/2000/svg">
<path d="M13.7327 0.011209L13.6223 0.0196099C13.4626 0.0435051 13.3147 0.117329 13.1995 0.230503C13.0844 0.343676 13.0081 0.490387 12.9815 0.649609L12.9719 0.774409L12.9719 13.468C12.9725 13.5695 12.9932 13.6699 13.0328 13.7634C13.0725 13.8569 13.1302 13.9416 13.2027 14.0127C13.2752 14.0837 13.3611 14.1397 13.4553 14.1774C13.5496 14.2152 13.6504 14.2338 13.7519 14.2324C13.917 14.2327 14.0779 14.1806 14.2115 14.0836L14.3063 14.0032L16.4759 11.842C16.6235 11.6943 16.7067 11.4944 16.7076 11.2856C16.7085 11.0768 16.627 10.8762 16.4807 10.7272C16.3499 10.594 16.1756 10.5121 15.9895 10.4965C15.8034 10.4809 15.6179 10.5325 15.4667 10.642L15.3731 10.7224L14.7035 11.3896L14.4995 11.3044L14.4995 0.776809C14.4995 0.41681 14.2487 0.11201 13.9115 0.0328098L13.7963 0.0148101L13.7327 0.0124097L13.7327 0.011209ZM10.6403 12.4828L0.923888 12.4828L0.801488 12.49C0.621925 12.5184 0.458375 12.6099 0.340194 12.7481C0.222012 12.8862 0.156937 13.062 0.156648 13.2438C0.156359 13.4256 0.220875 13.6015 0.338617 13.7401C0.456358 13.8786 0.619616 13.9706 0.799087 13.9996L0.915488 14.0092L10.6331 14.0092L10.7555 14.0008C10.9434 13.969 11.1127 13.8682 11.2301 13.718C11.3476 13.5679 11.4047 13.3793 11.3902 13.1893C11.3758 12.9992 11.2909 12.8214 11.1522 12.6907C11.0134 12.56 10.8309 12.4859 10.6403 12.4828ZM10.6403 6.72761L0.923889 6.72761L0.813489 6.73361C0.632055 6.75891 0.465741 6.84853 0.344828 6.98614C0.223915 7.12376 0.156444 7.30022 0.154699 7.4834C0.152954 7.66658 0.217052 7.8443 0.335323 7.98419C0.453593 8.12409 0.61817 8.21686 0.799088 8.24561L0.916688 8.25521L10.6331 8.25521L10.7435 8.24921C10.9249 8.22391 11.0912 8.13429 11.2122 7.99667C11.3331 7.85906 11.4005 7.6826 11.4023 7.49941C11.404 7.31623 11.3399 7.13852 11.2217 6.99862C11.1034 6.85873 10.9388 6.76596 10.7579 6.73721L10.6403 6.72761ZM10.6403 0.727609L0.92389 0.727607L0.81349 0.733607C0.632056 0.758908 0.465743 0.848525 0.344829 0.986141C0.223916 1.12376 0.156445 1.30022 0.1547 1.4834C0.152955 1.66658 0.217053 1.8443 0.335324 1.98419C0.453594 2.12409 0.618171 2.21686 0.79909 2.24561L0.916689 2.25521L10.6331 2.25521L10.7435 2.24921C10.9249 2.22391 11.0912 2.13429 11.2122 1.99667C11.3331 1.85906 11.4005 1.6826 11.4023 1.49941C11.404 1.31623 11.3399 1.13852 11.2217 0.998625C11.1034 0.85873 10.9388 0.765961 10.7579 0.737208L10.6403 0.727609Z" fill="#D9D9DA"/>
</svg>
