<svg width="24" height="24" viewBox="0 0 24 24" fill="none" xmlns="http://www.w3.org/2000/svg">
<g id="SUN">
<rect id="Rectangle Copy 3" width="24" height="24" rx="5" fill="#C1C1C1"/>
<g id="SUN-&#233;&#161;&#185;&#231;&#155;&#174;logo">
<g id="Group 15">
<g id="Group 14">
<circle id="Mask" cx="12.03" cy="12.03" r="9.03" fill="white"/>
<mask id="mask0" mask-type="alpha" maskUnits="userSpaceOnUse" x="3" y="3" width="19" height="19">
<circle id="Mask_2" cx="12.03" cy="12.03" r="9.03" fill="white"/>
</mask>
<g mask="url(#mask0)">
<g id="Group 14_2">
<g id="Group 13">
<g id="Group 12">
<path id="Path 9" d="M11.8414 0.844482V7.13635" stroke="#C1C1C1" stroke-width="0.227912"/>
<path id="Path 9 Copy" d="M10.9093 0.844482V7.13635" stroke="#C1C1C1" stroke-width="0.227912"/>
<path id="Path 9 Copy 2" d="M13.0648 0.844482V7.13635" stroke="#C1C1C1" stroke-width="0.227912"/>
<path id="Path 10" d="M7.89355 2.07011L9.93362 5.87523V1.54358" stroke="#C1C1C1" stroke-width="0.227912"/>
<path id="Path 10 Copy" d="M16.0508 1.9536L14.0107 5.75871V1.42706" stroke="#C1C1C1" stroke-width="0.227912"/>
</g>
<g id="Group 12 Copy">
<path id="Path 9_2" d="M12.1601 24.0312V17.7393" stroke="#C1C1C1" stroke-width="0.227912"/>
<path id="Path 9 Copy_2" d="M13.0922 24.0312V17.7393" stroke="#C1C1C1" stroke-width="0.227912"/>
<path id="Path 9 Copy 2_2" d="M10.9367 24.0312V17.7393" stroke="#C1C1C1" stroke-width="0.227912"/>
<path id="Path 10_2" d="M16.1672 22.8844L14.1272 19.0792V23.4109" stroke="#C1C1C1" stroke-width="0.227912"/>
<path id="Path 10 Copy_2" d="M7.89355 22.9426L9.93362 19.1375V23.4692" stroke="#C1C1C1" stroke-width="0.227912"/>
</g>
</g>
<g id="Group 13 Copy">
<g id="Group 12_2">
<path id="Path 9_3" d="M0.407471 12.5972H6.69934" stroke="#C1C1C1" stroke-width="0.227912"/>
<path id="Path 9 Copy_3" d="M0.407471 13.5294H6.69934" stroke="#C1C1C1" stroke-width="0.227912"/>
<path id="Path 9 Copy 2_3" d="M0.407471 11.3739H6.69934" stroke="#C1C1C1" stroke-width="0.227912"/>
<path id="Path 10_3" d="M1.48747 16.5752L5.29258 14.5351H0.960938" stroke="#C1C1C1" stroke-width="0.227912"/>
<path id="Path 10 Copy_3" d="M1.89519 8.53455L5.7003 10.5746H1.36865" stroke="#C1C1C1" stroke-width="0.227912"/>
</g>
<g id="Group 12 Copy_2">
<path id="Path 9_4" d="M23.5942 12.2784H17.3024" stroke="#C1C1C1" stroke-width="0.227912"/>
<path id="Path 9 Copy_4" d="M23.5942 11.3463H17.3024" stroke="#C1C1C1" stroke-width="0.227912"/>
<path id="Path 9 Copy 2_4" d="M23.5942 13.5019H17.3024" stroke="#C1C1C1" stroke-width="0.227912"/>
<path id="Path 10_4" d="M22.3018 8.30151L18.4967 10.3416H22.8284" stroke="#C1C1C1" stroke-width="0.227912"/>
<path id="Path 10 Copy_4" d="M22.5347 16.517L18.7296 14.4769H23.0613" stroke="#C1C1C1" stroke-width="0.227912"/>
</g>
</g>
<g id="Group 13 Copy 2">
<g id="Group 12_3">
<path id="Path 9_5" d="M3.91582 20.7483L8.36484 16.2993" stroke="#C1C1C1" stroke-width="0.227912"/>
<path id="Path 9 Copy_5" d="M4.57475 21.4075L9.02378 16.9584" stroke="#C1C1C1" stroke-width="0.227912"/>
<path id="Path 9 Copy 2_5" d="M3.05058 19.8832L7.49961 15.4342" stroke="#C1C1C1" stroke-width="0.227912"/>
<path id="Path 10_5" d="M7.72754 22.8046L8.97562 18.6715L5.91268 21.7344" stroke="#C1C1C1" stroke-width="0.227912"/>
<path id="Path 10 Copy_5" d="M1.68262 16.818L5.81579 15.5699L2.75285 18.6329" stroke="#C1C1C1" stroke-width="0.227912"/>
</g>
<g id="Group 12 Copy_3">
<path id="Path 9_6" d="M20.0859 4.1274L15.6369 8.57642" stroke="#C1C1C1" stroke-width="0.227912"/>
<path id="Path 9 Copy_6" d="M19.4267 3.46828L14.9777 7.9173" stroke="#C1C1C1" stroke-width="0.227912"/>
<path id="Path 9 Copy 2_6" d="M20.9509 4.99251L16.5019 9.44153" stroke="#C1C1C1" stroke-width="0.227912"/>
<path id="Path 10_6" d="M16.4102 2.20722L15.1621 6.34038L18.225 3.27745" stroke="#C1C1C1" stroke-width="0.227912"/>
<path id="Path 10 Copy_6" d="M22.2803 7.96088L18.1471 9.20895L21.21 6.14602" stroke="#C1C1C1" stroke-width="0.227912"/>
</g>
</g>
<g id="Group 13 Copy 3">
<g id="Group 12_4">
<path id="Path 9_7" d="M20.3113 20.5228L15.8623 16.0738" stroke="#C1C1C1" stroke-width="0.227912"/>
<path id="Path 9 Copy_7" d="M20.9705 19.8637L16.5215 15.4147" stroke="#C1C1C1" stroke-width="0.227912"/>
<path id="Path 9 Copy 2_7" d="M19.4463 21.388L14.9973 16.9389" stroke="#C1C1C1" stroke-width="0.227912"/>
<path id="Path 10_7" d="M22.3967 16.8179L18.2636 15.5699L21.3265 18.6328" stroke="#C1C1C1" stroke-width="0.227912"/>
<path id="Path 10 Copy_7" d="M16.4683 22.7464L15.2202 18.6132L18.2831 21.6762" stroke="#C1C1C1" stroke-width="0.227912"/>
</g>
<g id="Group 12 Copy_4">
<path id="Path 9_8" d="M3.69038 4.35283L8.13941 8.80185" stroke="#C1C1C1" stroke-width="0.227912"/>
<path id="Path 9 Copy_8" d="M3.0312 5.01195L7.48023 9.46097" stroke="#C1C1C1" stroke-width="0.227912"/>
<path id="Path 9 Copy 2_8" d="M4.55537 3.48778L9.0044 7.9368" stroke="#C1C1C1" stroke-width="0.227912"/>
<path id="Path 10_8" d="M1.97412 8.25214L6.10729 9.50021L3.04435 6.43728" stroke="#C1C1C1" stroke-width="0.227912"/>
<path id="Path 10 Copy_8" d="M7.66944 2.38196L8.91751 6.51513L5.85457 3.45219" stroke="#C1C1C1" stroke-width="0.227912"/>
</g>
</g>
</g>
</g>
</g>
<g id="Path 15">
<circle id="Mask_3" cx="12.0009" cy="12.4669" r="6.12739" fill="white" stroke="#C1C1C1" stroke-width="0.195353"/>
<mask id="mask1" mask-type="alpha" maskUnits="userSpaceOnUse" x="5" y="6" width="14" height="13">
<circle id="Mask_4" cx="12.0009" cy="12.4669" r="6.12739" fill="white" stroke="white" stroke-width="0.195353"/>
</mask>
<g mask="url(#mask1)">
<path id="Path 15_2" fill-rule="evenodd" clip-rule="evenodd" d="M13.0628 6.39441L11.8394 13.7777H13.595L12.0301 18.8034L17.9742 17.7392L19.0528 9.43983L16.4331 7.13627L13.0628 6.39441Z" fill="#C1C1C1"/>
</g>
</g>
</g>
<g id="Group 18">
<g id="Combined Shape">
<path fill-rule="evenodd" clip-rule="evenodd" d="M7.69732 10.8704C7.62321 10.6552 7.62321 10.2354 8.07047 10.1743C8.35139 10.136 11.7038 10.265 12.0907 10.2801C12.5003 10.2642 15.8263 10.1363 16.1061 10.1745C16.5533 10.2356 16.5533 10.6554 16.4792 10.8706C16.4466 10.9652 16.4071 11.0363 16.3571 11.1265C16.2931 11.2416 16.212 11.3878 16.1061 11.6532C16.046 11.8037 15.9931 12.015 15.9375 12.2369C15.8184 12.7129 15.687 13.2379 15.4459 13.3179C15.1805 13.4058 14.1096 13.3617 13.4434 13.3342C13.2224 13.3251 13.0459 13.3179 12.9582 13.3179C12.8023 13.3179 12.7154 12.9289 12.6187 12.4956C12.5021 11.9735 12.3711 11.3871 12.0877 11.3386C11.8051 11.3884 11.6743 11.974 11.5579 12.4954C11.4611 12.9287 11.3743 13.3177 11.2184 13.3177C11.1307 13.3177 10.9542 13.3249 10.7331 13.334C10.0669 13.3615 8.99602 13.4056 8.7306 13.3177C8.48951 13.2378 8.35811 12.7127 8.23898 12.2367C8.18343 12.0148 8.13055 11.8035 8.07047 11.653C7.96453 11.3876 7.88339 11.2414 7.81947 11.1263C7.76939 11.0361 7.72989 10.965 7.69732 10.8704Z" fill="#ACACAC"/>
<path d="M8.07047 10.1743L8.05852 10.0868L8.07047 10.1743ZM7.69732 10.8704L7.78083 10.8417H7.78083L7.69732 10.8704ZM12.0907 10.2801L12.0873 10.3686L12.0942 10.3683L12.0907 10.2801ZM16.1061 10.1745L16.0941 10.262V10.262L16.1061 10.1745ZM16.4792 10.8706L16.5627 10.8994L16.5627 10.8994L16.4792 10.8706ZM16.3571 11.1265L16.4343 11.1694V11.1694L16.3571 11.1265ZM16.1061 11.6532L16.024 11.6204V11.6204L16.1061 11.6532ZM15.9375 12.2369L16.0232 12.2584V12.2584L15.9375 12.2369ZM15.4459 13.3179L15.4181 13.234L15.4459 13.3179ZM13.4434 13.3342L13.4398 13.4225L13.4434 13.3342ZM12.6187 12.4956L12.7049 12.4763L12.6187 12.4956ZM12.0877 11.3386L12.1026 11.2516L12.0875 11.249L12.0724 11.2517L12.0877 11.3386ZM11.5579 12.4954L11.6441 12.5146L11.5579 12.4954ZM10.7331 13.334L10.7367 13.4223L10.7331 13.334ZM8.7306 13.3177L8.75838 13.2338H8.75838L8.7306 13.3177ZM8.23898 12.2367L8.32466 12.2153L8.23898 12.2367ZM8.07047 11.653L8.15249 11.6202H8.15249L8.07047 11.653ZM7.81947 11.1263L7.74226 11.1692L7.81947 11.1263ZM8.05852 10.0868C7.93289 10.104 7.8329 10.1472 7.7566 10.2107C7.68038 10.274 7.63233 10.3537 7.60462 10.4366C7.55019 10.5994 7.57233 10.7787 7.61382 10.8992L7.78083 10.8417C7.7482 10.7469 7.73329 10.6088 7.77214 10.4926C7.79107 10.436 7.82226 10.3858 7.86951 10.3465C7.91668 10.3073 7.98441 10.2752 8.08241 10.2618L8.05852 10.0868ZM12.0942 10.1918C11.9007 10.1843 10.9656 10.1483 10.0437 10.1189C9.58276 10.1042 9.12484 10.0912 8.76444 10.0842C8.58429 10.0808 8.4281 10.0788 8.30792 10.0789C8.19065 10.079 8.10083 10.081 8.05852 10.0868L8.08241 10.2618C8.11033 10.258 8.18673 10.2557 8.30808 10.2556C8.42652 10.2555 8.58135 10.2574 8.76104 10.2609C9.12032 10.2678 9.57737 10.2808 10.0381 10.2955C10.9593 10.3248 11.8939 10.3608 12.0873 10.3683L12.0942 10.1918ZM12.0942 10.3683C12.2989 10.3604 13.2326 10.3245 14.1499 10.2953C14.6086 10.2807 15.0629 10.2678 15.4199 10.261C15.5985 10.2575 15.7523 10.2556 15.8699 10.2558C15.9905 10.2559 16.0663 10.2582 16.0941 10.262L16.118 10.087C16.0759 10.0813 15.9866 10.0792 15.8701 10.0791C15.7507 10.079 15.5956 10.0809 15.4165 10.0844C15.0584 10.0912 14.6032 10.1041 14.1443 10.1187C13.2263 10.1479 12.2922 10.1839 12.0873 10.1918L12.0942 10.3683ZM16.0941 10.262C16.1921 10.2754 16.2598 10.3075 16.307 10.3467C16.3543 10.386 16.3855 10.4362 16.4044 10.4928C16.4432 10.609 16.4283 10.7471 16.3957 10.8419L16.5627 10.8994C16.6042 10.7789 16.6263 10.5995 16.5719 10.4368C16.5442 10.3539 16.4961 10.2742 16.4199 10.2108C16.3436 10.1474 16.2436 10.1042 16.118 10.087L16.0941 10.262ZM16.3957 10.8419C16.366 10.9281 16.3302 10.9929 16.2798 11.0836L16.4343 11.1694C16.4841 11.0797 16.5273 11.0022 16.5627 10.8994L16.3957 10.8419ZM16.2798 11.0836C16.2151 11.2003 16.1319 11.3501 16.024 11.6204L16.1881 11.6859C16.2921 11.4255 16.3712 11.283 16.4343 11.1694L16.2798 11.0836ZM16.024 11.6204C15.9612 11.7778 15.9068 11.9958 15.8519 12.2155L16.0232 12.2584C16.0793 12.0342 16.1307 11.8296 16.1881 11.6859L16.024 11.6204ZM15.8519 12.2155C15.7919 12.455 15.7306 12.6994 15.6551 12.894C15.6174 12.9911 15.5778 13.0716 15.5356 13.1311C15.493 13.1913 15.4533 13.2224 15.4181 13.234L15.4737 13.4017C15.5591 13.3734 15.6262 13.3088 15.6798 13.2332C15.7338 13.157 15.7796 13.0615 15.8198 12.9579C15.9001 12.7509 15.964 12.4948 16.0232 12.2584L15.8519 12.2155ZM15.4181 13.234C15.3645 13.2518 15.2589 13.2653 15.1101 13.2732C14.9646 13.2809 14.7871 13.2827 14.5958 13.281C14.2132 13.2776 13.7804 13.2597 13.4471 13.246L13.4398 13.4225C13.7726 13.4362 14.2083 13.4542 14.5942 13.4576C14.787 13.4594 14.9686 13.4575 15.1194 13.4496C15.2668 13.4418 15.3947 13.4279 15.4737 13.4017L15.4181 13.234ZM13.4471 13.246C13.2272 13.2369 13.0482 13.2295 12.9582 13.2295V13.4062C13.0435 13.4062 13.2175 13.4133 13.4398 13.4225L13.4471 13.246ZM12.9582 13.2295C12.9578 13.2295 12.9574 13.2295 12.9567 13.2293C12.9559 13.229 12.9541 13.2283 12.9513 13.2265C12.9453 13.2225 12.936 13.2142 12.9243 13.1982C12.9003 13.1654 12.8752 13.1129 12.8495 13.0399C12.7984 12.8946 12.7537 12.6949 12.7049 12.4763L12.5325 12.5148C12.5804 12.7296 12.6275 12.9411 12.6829 13.0985C12.7105 13.1769 12.7424 13.2487 12.7816 13.3024C12.8203 13.3553 12.878 13.4062 12.9582 13.4062V13.2295ZM12.7049 12.4763C12.647 12.2172 12.5838 11.9332 12.4983 11.7082C12.4556 11.5955 12.4053 11.4923 12.3438 11.4125C12.2822 11.3326 12.2032 11.2688 12.1026 11.2516L12.0728 11.4257C12.1139 11.4327 12.1576 11.4603 12.2039 11.5204C12.2503 11.5805 12.2932 11.6655 12.3332 11.7709C12.4132 11.9816 12.4738 12.252 12.5325 12.5148L12.7049 12.4763ZM11.6441 12.5146C11.7027 12.2521 11.7632 11.9822 11.843 11.7715C11.8829 11.6662 11.9258 11.5811 11.9721 11.5209C12.0183 11.4607 12.062 11.4328 12.103 11.4256L12.0724 11.2517C11.9721 11.2693 11.8934 11.3333 11.832 11.4132C11.7707 11.4931 11.7205 11.5963 11.6779 11.7089C11.5926 11.9338 11.5295 12.2173 11.4717 12.4761L11.6441 12.5146ZM11.2184 13.406C11.2986 13.406 11.3563 13.3551 11.3949 13.3022C11.4341 13.2485 11.466 13.1768 11.4936 13.0983C11.549 12.9409 11.5961 12.7294 11.6441 12.5146L11.4717 12.4761C11.4229 12.6947 11.3781 12.8944 11.327 13.0397C11.3013 13.1127 11.2762 13.1652 11.2522 13.198C11.2405 13.2141 11.2313 13.2223 11.2253 13.2263C11.2224 13.2281 11.2207 13.2288 11.2199 13.2291C11.2191 13.2293 11.2187 13.2293 11.2184 13.2293V13.406ZM10.7367 13.4223C10.959 13.4131 11.133 13.406 11.2184 13.406V13.2293C11.1283 13.2293 10.9493 13.2367 10.7295 13.2458L10.7367 13.4223ZM8.70281 13.4015C8.78185 13.4277 8.90969 13.4416 9.05714 13.4494C9.20788 13.4573 9.3895 13.4592 9.58237 13.4575C9.96822 13.454 10.4039 13.436 10.7367 13.4223L10.7295 13.2458C10.3961 13.2595 9.96328 13.2774 9.58077 13.2808C9.38947 13.2825 9.21195 13.2807 9.06643 13.273C8.91761 13.2652 8.81205 13.2516 8.75838 13.2338L8.70281 13.4015ZM8.1533 12.2582C8.21248 12.4946 8.27643 12.7507 8.35671 12.9577C8.39691 13.0613 8.44274 13.1568 8.49675 13.233C8.55029 13.3086 8.61743 13.3732 8.70281 13.4015L8.75838 13.2338C8.72322 13.2222 8.68353 13.1911 8.6409 13.1309C8.59875 13.0714 8.55908 12.9909 8.5214 12.8938C8.44592 12.6992 8.38461 12.4548 8.32466 12.2153L8.1533 12.2582ZM7.98844 11.6857C8.04581 11.8295 8.09719 12.034 8.1533 12.2582L8.32466 12.2153C8.26968 11.9956 8.2153 11.7776 8.15249 11.6202L7.98844 11.6857ZM7.74226 11.1692C7.80533 11.2828 7.88447 11.4253 7.98844 11.6857L8.15249 11.6202C8.04458 11.3499 7.96144 11.2001 7.89669 11.0835L7.74226 11.1692ZM7.61382 10.8992C7.64924 11.002 7.69247 11.0795 7.74226 11.1692L7.89669 11.0835C7.84631 10.9927 7.81053 10.9279 7.78083 10.8417L7.61382 10.8992Z" fill="white"/>
</g>
<g id="Rectangle">
<path id="Mask_5" fill-rule="evenodd" clip-rule="evenodd" d="M8.26798 10.7763C8.2194 10.6211 8.33981 10.4648 8.5023 10.4721L11.2926 10.5983C11.4383 10.6049 11.5426 10.7415 11.5107 10.8838L11.0818 12.7959C11.0578 12.9029 10.9628 12.979 10.8531 12.979H9.12965C9.02715 12.979 8.93654 12.9124 8.90593 12.8146L8.26798 10.7763Z" fill="#C1C1C1"/>
<mask id="mask2" mask-type="alpha" maskUnits="userSpaceOnUse" x="8" y="10" width="4" height="3">
<path id="Mask_6" fill-rule="evenodd" clip-rule="evenodd" d="M8.26798 10.7763C8.2194 10.6211 8.33981 10.4648 8.5023 10.4721L11.2926 10.5983C11.4383 10.6049 11.5426 10.7415 11.5107 10.8838L11.0818 12.7959C11.0578 12.9029 10.9628 12.979 10.8531 12.979H9.12965C9.02715 12.979 8.93654 12.9124 8.90593 12.8146L8.26798 10.7763Z" fill="white"/>
</mask>
<g mask="url(#mask2)">
<path id="Rectangle_2" opacity="0.314267" fill-rule="evenodd" clip-rule="evenodd" d="M10.55 10.1918L10.671 10.2649L9.03462 13.1071L8.91361 13.034L10.55 10.1918Z" fill="white"/>
<path id="Rectangle Copy 2" opacity="0.314267" fill-rule="evenodd" clip-rule="evenodd" d="M9.30898 10.1671L9.30863 10.1677L8.27169 11.9638L8.27204 11.9632L9.30898 10.1671Z" fill="#C1C1C1"/>
<path id="Rectangle Copy 6" opacity="0.314267" fill-rule="evenodd" clip-rule="evenodd" d="M9.85293 9.99866L9.85234 9.99968L8.38133 12.5475L8.38192 12.5465L9.85293 9.99866Z" fill="white"/>
</g>
</g>
<g id="Rectangle Copy 9 + Rectangle Copy 8 + Rectangle Copy 7 Mask">
<path id="Mask_7" fill-rule="evenodd" clip-rule="evenodd" d="M16.0077 10.8168C16.0565 10.6615 15.9361 10.505 15.7735 10.5123L12.9838 10.638C12.838 10.6446 12.7336 10.7813 12.7657 10.9237L13.1942 12.8264C13.2183 12.9334 13.3133 13.0093 13.4229 13.0093H15.1467C15.2491 13.0093 15.3396 12.9429 15.3703 12.8452L16.0077 10.8168Z" fill="#C1C1C1"/>
<mask id="mask3" mask-type="alpha" maskUnits="userSpaceOnUse" x="12" y="10" width="5" height="4">
<path id="Mask_8" fill-rule="evenodd" clip-rule="evenodd" d="M16.0077 10.8168C16.0565 10.6615 15.9361 10.505 15.7735 10.5123L12.9838 10.638C12.838 10.6446 12.7336 10.7813 12.7657 10.9237L13.1942 12.8264C13.2183 12.9334 13.3133 13.0093 13.4229 13.0093H15.1467C15.2491 13.0093 15.3396 12.9429 15.3703 12.8452L16.0077 10.8168Z" fill="white"/>
</mask>
<g mask="url(#mask3)">
<path id="Rectangle Copy 9" opacity="0.314267" fill-rule="evenodd" clip-rule="evenodd" d="M15.1302 10.2404L15.2244 10.2968L13.5911 13.1297L13.497 13.0732L15.1302 10.2404Z" fill="white"/>
<path id="Rectangle Copy 8" opacity="0.314267" fill-rule="evenodd" clip-rule="evenodd" d="M13.8759 10.2077L13.8757 10.2081L12.8418 11.9988L12.842 11.9984L13.8759 10.2077Z" fill="#C1C1C1"/>
<path id="Rectangle Copy 7" opacity="0.314267" fill-rule="evenodd" clip-rule="evenodd" d="M14.4188 10.0397L14.4185 10.0403L12.9518 12.5807L12.9522 12.58L14.4188 10.0397Z" fill="white"/>
</g>
</g>
</g>
<g id="Group 23">
<path id="Path 5" d="M9.75806 14.9429C9.75806 14.9429 10.4465 15.7003 12.1729 15.7003C13.8992 15.7003 14.3022 14.9429 14.3022 14.9429" stroke="#C1C1C1" stroke-width="0.195353"/>
<path id="Path" d="M12.9119 15.6584C13.3928 15.5978 13.8563 15.3593 14.3023 14.9429" stroke="white" stroke-width="0.195353"/>
</g>
</g>
</g>
</svg>
