<svg width="1543" height="1281" viewBox="0 0 1543 1281" fill="none" xmlns="http://www.w3.org/2000/svg">
<mask id="mask0_67:6146" style="mask-type:alpha" maskUnits="userSpaceOnUse" x="0" y="0" width="1543" height="1281">
<path d="M1543 0L1543 1281L0 1281L0 0L1543 0Z" fill="#120222"/>
</mask>
<g mask="url(#mask0_67:6146)">
<path fill-rule="evenodd" clip-rule="evenodd" d="M-4.00052 -94.5H1915V1391.5H-5L-4.00052 -94.5Z" fill="#140736"/>
<mask id="mask1_67:6146" style="mask-type:alpha" maskUnits="userSpaceOnUse" x="-5" y="-95" width="1920" height="1487">
<path fill-rule="evenodd" clip-rule="evenodd" d="M-4.00052 -94.5H1915V1391.5H-5L-4.00052 -94.5Z" fill="white"/>
</mask>
<g mask="url(#mask1_67:6146)">
<g opacity="0.7">
<ellipse cx="1480.41" cy="891.186" rx="1.66525" ry="2.12398" fill="#F17BDC"/>
<ellipse cx="1051.09" cy="342.496" rx="1.66525" ry="2.12398" fill="#F17BDC"/>
<ellipse cx="1305.25" cy="301.344" rx="2.70603" ry="3.45146" fill="#949EFF"/>
<ellipse cx="654.968" cy="237.624" rx="1.04078" ry="1.32749" fill="#949EFF"/>
<ellipse cx="61.8525" cy="624.618" rx="2.28972" ry="2.92047" fill="#949EFF"/>
<ellipse cx="157.683" cy="477.369" rx="0.832625" ry="1.06199" fill="#F17BDC"/>
<ellipse cx="1270.07" cy="515.601" rx="0.832625" ry="1.06199" fill="#F17BDC"/>
<ellipse cx="544.854" cy="279.839" rx="1.66525" ry="2.12398" fill="#F17BDC"/>
<ellipse cx="1187.22" cy="255.945" rx="1.24894" ry="1.59298" fill="#F17BDC"/>
<ellipse cx="166.009" cy="342.496" rx="1.66525" ry="2.12398" fill="#F17BDC"/>
<ellipse cx="929.527" cy="213.996" rx="1.66525" ry="2.12398" fill="white"/>
<ellipse cx="1260.08" cy="210.81" rx="0.832625" ry="1.06199" fill="#F17BDC"/>
<ellipse cx="260.929" cy="247.979" rx="0.832625" ry="1.06199" fill="#F17BDC"/>
<ellipse cx="728.031" cy="584.63" rx="1.66525" ry="2.12398" fill="#F17BDC"/>
<ellipse cx="362.857" cy="1204.17" rx="1.66525" ry="2.12398" fill="#F17BDC"/>
<ellipse cx="1419.8" cy="879.782" rx="1.66525" ry="2.12398" fill="#F17BDC"/>
<ellipse cx="452.432" cy="401.968" rx="1.66525" ry="2.12398" fill="white"/>
<ellipse cx="872.908" cy="666.403" rx="0.832625" ry="1.06199" fill="#F17BDC"/>
<ellipse cx="408.303" cy="242.669" rx="0.832625" ry="1.06199" fill="#F17BDC"/>
<ellipse cx="207.919" cy="607.88" rx="2.08156" ry="2.65497" fill="white"/>
<ellipse cx="54.5823" cy="1053.91" rx="2.08156" ry="2.65497" fill="white"/>
<ellipse cx="255.332" cy="827.093" rx="2.08156" ry="2.65497" fill="white"/>
<ellipse cx="644.352" cy="224.084" rx="1.24894" ry="1.59298" fill="#F17BDC"/>
<ellipse cx="1456.99" cy="243.2" rx="2.08156" ry="2.65497" fill="white"/>
<ellipse rx="2.19799" ry="2.55639" transform="matrix(0.84756 0.5307 -0.368875 0.929479 446.222 497.108)" fill="white"/>
<ellipse rx="1.31879" ry="1.53383" transform="matrix(0.84756 0.5307 -0.368875 0.929479 874.722 754.494)" fill="#F17BDC"/>
<ellipse rx="2.19799" ry="2.55639" transform="matrix(0.84756 0.5307 -0.368875 0.929479 1201.72 1280.82)" fill="#F17BDC"/>
<ellipse cx="347.521" cy="404.091" rx="0.832625" ry="1.06199" fill="#F17BDC"/>
<ellipse cx="1255.92" cy="778.358" rx="0.832625" ry="1.06199" fill="#F17BDC"/>
<ellipse cx="144.362" cy="322.319" rx="0.832625" ry="1.06199" fill="white"/>
<ellipse cx="1062.75" cy="611.179" rx="0.832625" ry="1.06199" fill="#F17BDC"/>
<ellipse cx="1502.37" cy="448.695" rx="0.832625" ry="1.06199" fill="#F17BDC"/>
<ellipse cx="1401.62" cy="692.337" rx="1.66525" ry="2.12398" fill="#F17BDC"/>
<ellipse cx="1352.25" cy="1077.46" rx="1.66525" ry="2.12398" fill="#F17BDC"/>
<ellipse cx="1398.25" cy="240.13" rx="1.66525" ry="2.12398" fill="#F17BDC"/>
<ellipse cx="16.841" cy="541.458" rx="1.66525" ry="2.12398" fill="white"/>
<ellipse cx="866.247" cy="361.612" rx="0.832625" ry="1.06199" fill="#F17BDC"/>
<ellipse cx="1539.01" cy="312.761" rx="1.66525" ry="2.12398" fill="#F17BDC"/>
</g>
<g filter="url(#filter0_f_67:6146)">
<circle cx="-36.5" cy="1006" r="670.5" fill="#3D1C7F" fill-opacity="0.5"/>
</g>
<g filter="url(#filter1_f_67:6146)">
<circle cx="1668.5" cy="225" r="670.5" fill="#6606C2" fill-opacity="0.2"/>
</g>
</g>
<g opacity="0.5">
<ellipse rx="53.5324" ry="2.87689" transform="matrix(0.72612 -0.687568 -0.676395 -0.736539 195.99 1101.85)" fill="url(#paint0_linear_67:6146)"/>
<ellipse rx="53.5324" ry="2.87689" transform="matrix(0.72612 -0.687568 -0.676395 -0.736539 1354.63 1216.84)" fill="url(#paint1_linear_67:6146)"/>
<ellipse rx="53.5324" ry="2.87689" transform="matrix(0.72612 -0.687568 -0.676395 -0.736539 389.253 987.354)" fill="url(#paint2_linear_67:6146)"/>
<ellipse rx="45.4141" ry="2.87689" transform="matrix(0.72612 -0.687568 -0.676395 -0.736539 182.922 765.844)" fill="url(#paint3_linear_67:6146)"/>
<ellipse rx="176.892" ry="4.51106" transform="matrix(0.72612 -0.687568 -0.676395 -0.736539 1660.49 30.447)" fill="url(#paint4_linear_67:6146)"/>
</g>
</g>
<defs>
<filter id="filter0_f_67:6146" x="-1229" y="-186.5" width="2385" height="2385" filterUnits="userSpaceOnUse" color-interpolation-filters="sRGB">
<feFlood flood-opacity="0" result="BackgroundImageFix"/>
<feBlend mode="normal" in="SourceGraphic" in2="BackgroundImageFix" result="shape"/>
<feGaussianBlur stdDeviation="261" result="effect1_foregroundBlur_67:6146"/>
</filter>
<filter id="filter1_f_67:6146" x="498" y="-945.5" width="2341" height="2341" filterUnits="userSpaceOnUse" color-interpolation-filters="sRGB">
<feFlood flood-opacity="0" result="BackgroundImageFix"/>
<feBlend mode="normal" in="SourceGraphic" in2="BackgroundImageFix" result="shape"/>
<feGaussianBlur stdDeviation="250" result="effect1_foregroundBlur_67:6146"/>
</filter>
<linearGradient id="paint0_linear_67:6146" x1="-26.7662" y1="5.75378" x2="-25.2378" y2="19.9739" gradientUnits="userSpaceOnUse">
<stop stop-color="#64D8F8"/>
<stop offset="1" stop-color="#4807FF" stop-opacity="0.01"/>
</linearGradient>
<linearGradient id="paint1_linear_67:6146" x1="-26.7662" y1="5.75378" x2="-25.2378" y2="19.9739" gradientUnits="userSpaceOnUse">
<stop stop-color="#64D8F8"/>
<stop offset="1" stop-color="#4807FF" stop-opacity="0.01"/>
</linearGradient>
<linearGradient id="paint2_linear_67:6146" x1="0" y1="5.20239" x2="86.5449" y2="5.20239" gradientUnits="userSpaceOnUse">
<stop stop-color="#FF9900"/>
<stop offset="0.404836" stop-color="#BA0096"/>
<stop offset="1" stop-color="#B10095" stop-opacity="0.01"/>
</linearGradient>
<linearGradient id="paint3_linear_67:6146" x1="0" y1="5.20239" x2="73.4202" y2="5.20239" gradientUnits="userSpaceOnUse">
<stop stop-color="#FF00A5"/>
<stop offset="0.404836" stop-color="#0E47E4"/>
<stop offset="1" stop-color="#0E47E4" stop-opacity="0.01"/>
</linearGradient>
<linearGradient id="paint4_linear_67:6146" x1="0" y1="8.15753" x2="285.977" y2="8.15753" gradientUnits="userSpaceOnUse">
<stop stop-color="#FF9900"/>
<stop offset="0.404836" stop-color="#BA0096"/>
<stop offset="1" stop-color="#B10095" stop-opacity="0.01"/>
</linearGradient>
</defs>
</svg>
