<svg width="24" height="24" viewBox="0 0 24 24" fill="none" xmlns="http://www.w3.org/2000/svg">
<rect width="24" height="24" rx="5" fill="#5915E1"/>
<mask id="path-2-inside-1" fill="white">
<path d="M19.5361 12.6812H18.6018V12.6553L17.5874 6.64725C17.5607 6.41418 17.4006 6.2588 17.187 6.207L13.1828 5.01575C12.9693 4.96396 12.729 5.04165 12.5956 5.22293L10.9672 7.42415L10.4333 6.93211C10.3266 6.85442 10.1931 6.80263 10.0596 6.80263H8.08423C7.84398 6.80263 7.65712 6.93211 7.55035 7.16518L5.52158 12.5258C5.49488 12.5776 5.49488 12.6035 5.49488 12.6553H4.56058C4.26694 12.6812 4 12.9402 4 13.2768C4 13.5876 4.24025 13.8465 4.56058 13.8724H5.30802L6.48257 16.5657C6.48257 16.7988 6.72282 16.9542 7.04315 16.9542C6.98976 17.0836 6.96307 17.2649 6.96307 17.3944C6.96307 18.3008 7.65712 19 8.51134 19C9.36556 19 10.0596 18.2749 10.0596 17.3944C10.0596 17.2649 10.0329 17.0836 9.97953 16.9542H13.9837C13.9303 17.0836 13.9303 17.2649 13.9036 17.3944C13.9036 18.3008 14.5976 19 15.4519 19C16.3061 19 17.0001 18.2749 17.0001 17.3944C17.0001 17.2649 16.9734 17.0836 16.9201 16.9542C17.2137 16.9542 17.4806 16.7988 17.4806 16.5657L18.6819 13.8465H19.4293C19.5895 13.8465 19.723 13.7948 19.8297 13.6912C19.9899 13.5358 20.0433 13.2768 19.9632 13.0696C19.9632 12.8107 19.7763 12.6812 19.5361 12.6812V12.6812ZM15.9858 17.3685C15.9858 17.6275 15.7989 17.8087 15.5586 17.8087C15.3184 17.8087 15.1315 17.6016 15.1315 17.3685C15.1315 17.1095 15.3184 16.9283 15.5586 16.9283C15.7722 16.9283 15.9591 17.1354 15.9858 17.3685ZM8.99184 17.3685C8.99184 17.6275 8.80498 17.8087 8.56473 17.8087C8.32448 17.8087 8.13762 17.6016 8.13762 17.3685C8.13762 17.1095 8.32448 16.9283 8.56473 16.9283C8.80498 16.9283 8.99184 17.1354 8.99184 17.3685ZM6.66943 12.6812L8.43126 7.91619H9.81936L10.6469 8.66719C10.7537 8.77078 10.9138 8.82257 11.074 8.79668C11.2342 8.77078 11.3676 8.71899 11.4744 8.56361L13.2362 6.18111L16.4929 7.19108L17.4006 12.6812H6.66943V12.6812ZM17.534 13.8206L16.7065 15.7629H7.36349L6.53596 13.8206H17.534Z"/>
</mask>
<path d="M19.5361 12.6812H18.6018V12.6553L17.5874 6.64725C17.5607 6.41418 17.4006 6.2588 17.187 6.207L13.1828 5.01575C12.9693 4.96396 12.729 5.04165 12.5956 5.22293L10.9672 7.42415L10.4333 6.93211C10.3266 6.85442 10.1931 6.80263 10.0596 6.80263H8.08423C7.84398 6.80263 7.65712 6.93211 7.55035 7.16518L5.52158 12.5258C5.49488 12.5776 5.49488 12.6035 5.49488 12.6553H4.56058C4.26694 12.6812 4 12.9402 4 13.2768C4 13.5876 4.24025 13.8465 4.56058 13.8724H5.30802L6.48257 16.5657C6.48257 16.7988 6.72282 16.9542 7.04315 16.9542C6.98976 17.0836 6.96307 17.2649 6.96307 17.3944C6.96307 18.3008 7.65712 19 8.51134 19C9.36556 19 10.0596 18.2749 10.0596 17.3944C10.0596 17.2649 10.0329 17.0836 9.97953 16.9542H13.9837C13.9303 17.0836 13.9303 17.2649 13.9036 17.3944C13.9036 18.3008 14.5976 19 15.4519 19C16.3061 19 17.0001 18.2749 17.0001 17.3944C17.0001 17.2649 16.9734 17.0836 16.9201 16.9542C17.2137 16.9542 17.4806 16.7988 17.4806 16.5657L18.6819 13.8465H19.4293C19.5895 13.8465 19.723 13.7948 19.8297 13.6912C19.9899 13.5358 20.0433 13.2768 19.9632 13.0696C19.9632 12.8107 19.7763 12.6812 19.5361 12.6812V12.6812ZM15.9858 17.3685C15.9858 17.6275 15.7989 17.8087 15.5586 17.8087C15.3184 17.8087 15.1315 17.6016 15.1315 17.3685C15.1315 17.1095 15.3184 16.9283 15.5586 16.9283C15.7722 16.9283 15.9591 17.1354 15.9858 17.3685ZM8.99184 17.3685C8.99184 17.6275 8.80498 17.8087 8.56473 17.8087C8.32448 17.8087 8.13762 17.6016 8.13762 17.3685C8.13762 17.1095 8.32448 16.9283 8.56473 16.9283C8.80498 16.9283 8.99184 17.1354 8.99184 17.3685ZM6.66943 12.6812L8.43126 7.91619H9.81936L10.6469 8.66719C10.7537 8.77078 10.9138 8.82257 11.074 8.79668C11.2342 8.77078 11.3676 8.71899 11.4744 8.56361L13.2362 6.18111L16.4929 7.19108L17.4006 12.6812H6.66943V12.6812ZM17.534 13.8206L16.7065 15.7629H7.36349L6.53596 13.8206H17.534Z" fill="white"/>
<path d="M18.6018 12.6812H18.5518V12.7312H18.6018V12.6812ZM18.6018 12.6553H18.6525L18.6511 12.647L18.6018 12.6553ZM17.5874 6.64725L17.5377 6.65294L17.5381 6.65557L17.5874 6.64725ZM17.187 6.207L17.1727 6.25499L17.1752 6.25559L17.187 6.207ZM13.1828 5.01575L13.1971 4.96776L13.1946 4.96716L13.1828 5.01575ZM12.5956 5.22293L12.6358 5.25266L12.6358 5.25257L12.5956 5.22293ZM10.9672 7.42415L10.9333 7.46092L10.9743 7.49866L11.0074 7.45389L10.9672 7.42415ZM10.4333 6.93211L10.4674 6.8951L10.4627 6.89168L10.4333 6.93211ZM7.55035 7.16518L7.50478 7.14431L7.50358 7.14748L7.55035 7.16518ZM5.52158 12.5258L5.56631 12.5489L5.56834 12.5435L5.52158 12.5258ZM5.49488 12.6553V12.7053H5.54488V12.6553H5.49488ZM4.56058 12.6553V12.6051L4.55619 12.6055L4.56058 12.6553ZM4.56058 13.8724L4.55654 13.9224H4.56058V13.8724ZM5.30802 13.8724L5.35385 13.8525L5.34076 13.8224H5.30802V13.8724ZM6.48257 16.5657H6.53257V16.5553L6.5284 16.5457L6.48257 16.5657ZM7.04315 16.9542L7.08938 16.9732L7.11785 16.9042H7.04315V16.9542ZM8.51134 19L8.51134 19.05H8.51134V19ZM10.0596 17.3944L10.0096 17.3944V17.3944L10.0596 17.3944ZM9.97953 16.9542V16.9042H9.90483L9.9333 16.9732L9.97953 16.9542ZM13.9837 16.9542L14.0299 16.9732L14.0584 16.9042H13.9837V16.9542ZM13.9036 17.3944L13.8536 17.3841V17.3944H13.9036ZM15.4519 19L15.4519 19.05H15.4519V19ZM16.9201 16.9542V16.9042H16.8454L16.8738 16.9732L16.9201 16.9542ZM17.4806 16.5657L17.4349 16.5455L17.4306 16.5552V16.5657H17.4806ZM18.6819 13.8465V13.7965H18.6493L18.6361 13.8263L18.6819 13.8465ZM19.8297 13.6912L19.8646 13.7271L19.8297 13.6912ZM19.9632 13.0696H19.9132V13.079L19.9166 13.0877L19.9632 13.0696ZM15.9858 17.3685H16.0361L16.0354 17.3628L15.9858 17.3685ZM15.5586 16.9283L15.5586 16.8783H15.5586L15.5586 16.9283ZM8.56473 16.9283L8.56473 16.8783H8.56473L8.56473 16.9283ZM8.43126 7.91619V7.86619H8.39644L8.38436 7.89885L8.43126 7.91619ZM9.81936 7.91619L9.85297 7.87916L9.83867 7.86619H9.81936V7.91619ZM10.6469 8.66719L10.6817 8.63129L10.6805 8.63017L10.6469 8.66719ZM11.4744 8.56361L11.4342 8.53386L11.4332 8.53529L11.4744 8.56361ZM13.2362 6.18111L13.251 6.13335L13.2171 6.12283L13.196 6.15138L13.2362 6.18111ZM16.4929 7.19108L16.5423 7.18292L16.5372 7.15247L16.5078 7.14332L16.4929 7.19108ZM17.4006 12.6812V12.7312H17.4595L17.4499 12.673L17.4006 12.6812ZM17.534 13.8206L17.58 13.8402L17.6097 13.7706H17.534V13.8206ZM16.7065 15.7629V15.8129H16.7395L16.7525 15.7825L16.7065 15.7629ZM7.36349 15.7629L7.31749 15.7825L7.33044 15.8129H7.36349V15.7629ZM6.53596 13.8206V13.7706H6.46031L6.48996 13.8402L6.53596 13.8206ZM19.5361 12.6312H18.6018V12.7312H19.5361V12.6312ZM18.6518 12.6812V12.6553H18.5518V12.6812H18.6518ZM18.6511 12.647L17.6367 6.63892L17.5381 6.65557L18.5525 12.6636L18.6511 12.647ZM17.6371 6.64156C17.6077 6.38516 17.4302 6.21453 17.1988 6.15841L17.1752 6.25559C17.3709 6.30307 17.5137 6.44319 17.5377 6.65294L17.6371 6.64156ZM17.2013 6.15908L13.1971 4.96783L13.1686 5.06368L17.1727 6.25493L17.2013 6.15908ZM13.1946 4.96716C12.9629 4.91095 12.7016 4.99466 12.5553 5.19328L12.6358 5.25257C12.7565 5.08864 12.9757 5.01696 13.1711 5.06434L13.1946 4.96716ZM12.5554 5.19319L10.927 7.39441L11.0074 7.45389L12.6358 5.25266L12.5554 5.19319ZM11.0011 7.38738L10.4672 6.89534L10.3994 6.96888L10.9333 7.46092L11.0011 7.38738ZM10.4627 6.89168C10.3491 6.80901 10.2056 6.75263 10.0596 6.75263V6.85263C10.1806 6.85263 10.304 6.89983 10.4039 6.97254L10.4627 6.89168ZM10.0596 6.75263H8.08423V6.85263H10.0596V6.75263ZM8.08423 6.75263C7.82223 6.75263 7.61885 6.8956 7.50489 7.14436L7.5958 7.18601C7.69539 6.96862 7.86574 6.85263 8.08423 6.85263V6.75263ZM7.50358 7.14748L5.47481 12.5081L5.56834 12.5435L7.59711 7.18288L7.50358 7.14748ZM5.47713 12.5029C5.46209 12.5321 5.45335 12.5564 5.44894 12.5821C5.44475 12.6065 5.44488 12.6304 5.44488 12.6553H5.54488C5.54488 12.6284 5.54502 12.6134 5.5475 12.599C5.54976 12.5859 5.55436 12.5713 5.56602 12.5487L5.47713 12.5029ZM5.49488 12.6053H4.56058V12.7053H5.49488V12.6053ZM4.55619 12.6055C4.23792 12.6336 3.95 12.9131 3.95 13.2768H4.05C4.05 12.9672 4.29597 12.7288 4.56497 12.7051L4.55619 12.6055ZM3.95 13.2768C3.95 13.6143 4.21097 13.8943 4.55655 13.9223L4.56461 13.8226C4.26953 13.7987 4.05 13.5608 4.05 13.2768H3.95ZM4.56058 13.9224H5.30802V13.8224H4.56058V13.9224ZM5.26219 13.8924L6.43674 16.5857L6.5284 16.5457L5.35385 13.8525L5.26219 13.8924ZM6.43257 16.5657C6.43257 16.7017 6.5034 16.8131 6.61465 16.8887C6.72495 16.9636 6.87555 17.0042 7.04315 17.0042V16.9042C6.89042 16.9042 6.76074 16.867 6.67083 16.806C6.58187 16.7456 6.53257 16.6628 6.53257 16.5657H6.43257ZM6.99693 16.9351C6.94043 17.0721 6.91307 17.2602 6.91307 17.3944H7.01307C7.01307 17.2696 7.0391 17.0952 7.08938 16.9732L6.99693 16.9351ZM6.91307 17.3944C6.91307 18.3271 7.62822 19.05 8.51134 19.05L8.51134 18.95C7.68602 18.95 7.01307 18.2745 7.01307 17.3944H6.91307ZM8.51134 19.05C9.39498 19.05 10.1096 18.3007 10.1096 17.3944L10.0096 17.3944C10.0096 18.2491 9.33614 18.95 8.51134 18.95V19.05ZM10.1096 17.3944C10.1096 17.2602 10.0823 17.0721 10.0258 16.9351L9.9333 16.9732C9.98358 17.0952 10.0096 17.2696 10.0096 17.3944H10.1096ZM9.97953 17.0042H13.9837V16.9042H9.97953V17.0042ZM13.9375 16.9351C13.908 17.0064 13.8941 17.0898 13.884 17.1679C13.8736 17.2488 13.8675 17.322 13.8546 17.3843L13.9526 17.4045C13.9664 17.3373 13.9736 17.2551 13.9832 17.1807C13.9932 17.1034 14.0059 17.0314 14.0299 16.9732L13.9375 16.9351ZM13.8536 17.3944C13.8536 18.3271 14.5687 19.05 15.4519 19.05L15.4519 18.95C14.6265 18.95 13.9536 18.2745 13.9536 17.3944H13.8536ZM15.4519 19.05C16.3355 19.05 17.0501 18.3007 17.0501 17.3944H16.9501C16.9501 18.2491 16.2767 18.95 15.4519 18.95V19.05ZM17.0501 17.3944C17.0501 17.2602 17.0228 17.0721 16.9663 16.9351L16.8738 16.9732C16.9241 17.0952 16.9501 17.2696 16.9501 17.3944H17.0501ZM16.9201 17.0042C17.075 17.0042 17.2251 16.9633 17.3379 16.8891C17.4511 16.8147 17.5306 16.7037 17.5306 16.5657H17.4306C17.4306 16.6608 17.3767 16.744 17.283 16.8055C17.189 16.8673 17.0588 16.9042 16.9201 16.9042V17.0042ZM17.5264 16.5859L18.7276 13.8668L18.6361 13.8263L17.4349 16.5455L17.5264 16.5859ZM18.6819 13.8965H19.4293V13.7965H18.6819V13.8965ZM19.4293 13.8965C19.6014 13.8965 19.7477 13.8404 19.8646 13.7271L19.7949 13.6553C19.6982 13.7491 19.5776 13.7965 19.4293 13.7965V13.8965ZM19.8646 13.7271C20.0395 13.5573 20.097 13.277 20.0098 13.0516L19.9166 13.0877C19.9896 13.2766 19.9403 13.5142 19.7949 13.6553L19.8646 13.7271ZM20.0132 13.0696C20.0132 12.9271 19.9612 12.8154 19.872 12.7401C19.7839 12.6658 19.6647 12.6312 19.5361 12.6312V12.7312C19.6478 12.7312 19.7421 12.7613 19.8075 12.8165C19.8718 12.8707 19.9132 12.9532 19.9132 13.0696H20.0132ZM15.9358 17.3685C15.9358 17.6004 15.7707 17.7587 15.5586 17.7587V17.8587C15.8271 17.8587 16.0358 17.6545 16.0358 17.3685H15.9358ZM15.5586 17.7587C15.3485 17.7587 15.1815 17.5765 15.1815 17.3685H15.0815C15.0815 17.6267 15.2883 17.8587 15.5586 17.8587V17.7587ZM15.1815 17.3685C15.1815 17.1366 15.3466 16.9783 15.5586 16.9783L15.5586 16.8783C15.2902 16.8783 15.0815 17.0825 15.0815 17.3685H15.1815ZM15.5586 16.9783C15.7397 16.9783 15.9114 17.1586 15.9361 17.3742L16.0354 17.3628C16.0067 17.1122 15.8047 16.8783 15.5586 16.8783V16.9783ZM8.94184 17.3685C8.94184 17.6004 8.77679 17.7587 8.56473 17.7587V17.8587C8.83317 17.8587 9.04184 17.6545 9.04184 17.3685H8.94184ZM8.56473 17.7587C8.35456 17.7587 8.18762 17.5765 8.18762 17.3685H8.08762C8.08762 17.6267 8.2944 17.8587 8.56473 17.8587V17.7587ZM8.18762 17.3685C8.18762 17.1366 8.35267 16.9783 8.56473 16.9783L8.56473 16.8783C8.29629 16.8783 8.08762 17.0825 8.08762 17.3685H8.18762ZM8.56473 16.9783C8.7749 16.9783 8.94184 17.1605 8.94184 17.3685H9.04184C9.04184 17.1104 8.83506 16.8783 8.56473 16.8783V16.9783ZM6.71633 12.6985L8.47816 7.93353L8.38436 7.89885L6.62254 12.6639L6.71633 12.6985ZM8.43126 7.96619H9.81936V7.86619H8.43126V7.96619ZM9.78576 7.95321L10.6133 8.70422L10.6805 8.63017L9.85297 7.87916L9.78576 7.95321ZM10.6121 8.70308C10.7305 8.81795 10.9066 8.87439 11.082 8.84604L11.066 8.74732C10.921 8.77076 10.7768 8.72361 10.6817 8.63131L10.6121 8.70308ZM11.082 8.84604C11.2498 8.81889 11.3983 8.76262 11.5156 8.59193L11.4332 8.53529C11.3369 8.67536 11.2185 8.72267 11.066 8.74732L11.082 8.84604ZM11.5146 8.59334L13.2764 6.21083L13.196 6.15138L11.4342 8.53388L11.5146 8.59334ZM13.2214 6.22886L16.4781 7.23884L16.5078 7.14332L13.251 6.13335L13.2214 6.22886ZM16.4436 7.19923L17.3512 12.6893L17.4499 12.673L16.5423 7.18292L16.4436 7.19923ZM17.4006 12.6312H6.66943V12.7312H17.4006V12.6312ZM17.488 13.8011L16.6605 15.7433L16.7525 15.7825L17.58 13.8402L17.488 13.8011ZM16.7065 15.7129H7.36349V15.8129H16.7065V15.7129ZM7.40948 15.7433L6.58196 13.8011L6.48996 13.8402L7.31749 15.7825L7.40948 15.7433ZM6.53596 13.8706H17.534V13.7706H6.53596V13.8706Z" fill="#C1C1C1" mask="url(#path-2-inside-1)"/>
</svg>
