<?xml version="1.0" encoding="UTF-8"?>
<svg width="24px" height="24px" viewBox="0 0 24 24" version="1.1" xmlns="http://www.w3.org/2000/svg" xmlns:xlink="http://www.w3.org/1999/xlink">
    <!-- Generator: Sketch 53.1 (72631) - https://sketchapp.com -->
    <title>Swaps_n</title>
    <desc>Created with Sketch.</desc>
    <g id="Page-1" stroke="none" stroke-width="1" fill="none" fill-rule="evenodd">
        <g id="Artboard" transform="translate(-101.000000, -1962.000000)">
            <g id="图标" transform="translate(0.000000, 1464.000000)">
                <g id="编组-17" transform="translate(81.000000, 381.000000)">
                    <g id="Swaps_n" transform="translate(20.000000, 117.000000)">
                        <rect id="Rectangle" fill="#5915E1" x="0" y="0" width="24" height="24" rx="5"></rect>
                        <g id="切换" transform="translate(12.000000, 12.000000) rotate(-90.000000) translate(-12.000000, -12.000000) translate(6.000000, 6.000000)" fill="#FFFFFF" fill-rule="nonzero">
                            <path d="M11.48608,8.31952189 C11.6170465,8.19537441 11.6913598,8.02189351 11.6913598,7.84030608 C11.6913598,7.65871865 11.6170465,7.48523776 11.48608,7.36109028 C11.3602144,7.22956697 11.187015,7.15531753 11.00608,7.15531753 C10.825145,7.15531753 10.6519456,7.22956697 10.52608,7.36109028 L8.74304001,9.14195985 L8.74304001,1.19474846 C8.74304001,0.784177081 8.46912,0.510894545 8.05695999,0.510894545 C7.64607999,0.510894545 7.37088,0.784177081 7.37088,1.19474846 L7.37088,10.7855406 C7.37088,10.9228294 7.37088,11.4719848 8.05695999,11.4719848 C8.46912,11.4719848 8.60607999,11.3334008 8.60607999,11.3334008 L11.48608,8.31952189 L11.48608,8.31952189 Z M4.62912,10.7855406 L4.62912,1.19474846 C4.62912,1.05875478 4.62912,0.510894545 3.94304001,0.510894545 C3.53088,0.510894545 3.39392001,0.646888221 3.39392001,0.646888221 L0.513920006,3.66206229 C0.382953542,3.78620977 0.308640212,3.95969067 0.308640212,4.1412781 C0.308640212,4.32286553 0.382953542,4.49634643 0.513920006,4.62049391 C0.639785563,4.75201721 0.812985036,4.82626666 0.993920006,4.82626666 C1.17485498,4.82626666 1.34805445,4.75201721 1.47392001,4.62049391 L3.25695999,2.83962435 L3.25695999,10.7855406 C3.25695999,11.1974071 3.53088,11.4719848 3.94304001,11.4719848 C4.35392001,11.4719848 4.62912,11.1974071 4.62912,10.7855406 L4.62912,10.7855406 Z" id="Shape"></path>
                        </g>
                    </g>
                </g>
            </g>
        </g>
    </g>
</svg>