<?xml version="1.0" encoding="UTF-8"?>
<svg width="24px" height="24px" viewBox="0 0 24 24" version="1.1" xmlns="http://www.w3.org/2000/svg" xmlns:xlink="http://www.w3.org/1999/xlink">
    <!-- Generator: Sketch 53.1 (72631) - https://sketchapp.com -->
    <title>Telegram</title>
    <desc>Created with Sketch.</desc>
    <g id="Page-1" stroke="none" stroke-width="1" fill="none" fill-rule="evenodd">
        <g id="Artboard" transform="translate(-292.000000, -1920.000000)">
            <g id="图标" transform="translate(0.000000, 1464.000000)">
                <g id="编组-17" transform="translate(81.000000, 381.000000)">
                    <g id="Telegram" transform="translate(211.000000, 75.000000)">
                        <rect id="Rectangle" fill="#C1C1C1" x="0" y="0" width="24" height="24" rx="5"></rect>
                        <path d="M9.51012312,16.376601 L9.69644508,13.5850513 L14.80445,9.01896943 C15.0307231,8.81436417 14.7580012,8.71506592 14.4587914,8.89322382 L8.15293776,12.8460016 L5.42561581,11.9881653 C4.84068898,11.823487 4.83419142,11.4207677 5.55897678,11.1298466 L16.1816109,7.06528522 C16.667128,6.84771212 17.1326841,7.18405715 16.9463621,7.92361856 L15.137128,16.3765864 C15.0107475,16.976908 14.6451134,17.1221273 14.1396061,16.8451683 L11.3857817,14.8256361 L10.0620646,16.0996419 C9.90921093,16.2513525 9.78234751,16.376601 9.51010849,16.376601 L9.51012312,16.376601 Z" id="Path" fill="#FFFFFF" fill-rule="nonzero"></path>
                    </g>
                </g>
            </g>
        </g>
    </g>
</svg>