<?xml version="1.0" encoding="UTF-8"?>
<svg width="80px" height="80px" viewBox="0 0 80 80" version="1.1" xmlns="http://www.w3.org/2000/svg" xmlns:xlink="http://www.w3.org/1999/xlink">
    <!-- Generator: Sketch 63 (92445) - https://sketch.com -->
    <title>Transaction Submitted</title>
    <desc>Created with Sketch.</desc>
    <g id="Swap-1012增加流动性" stroke="none" stroke-width="1" fill="none" fill-rule="evenodd">
        <g id="SunSwap_pop汇总" transform="translate(-2123.000000, -1555.000000)" fill="#16C378" fill-rule="nonzero">
            <g id="Group-23备份-3" transform="translate(1950.000000, 1495.000000)">
                <g id="Transaction-Submitted" transform="translate(173.000000, 60.000000)">
                    <path d="M68.2865608,11.7134435 C60.7998389,4.18886336 50.6145882,-0.0287858433 40,0 C29.3862734,-0.029381829 19.2018378,4.18842686 11.716773,11.7134435 C4.19002555,19.1989828 -0.0290230736,29.3847144 0,40 C0,50.6866306 4.15680139,60.7332596 11.7101064,68.289898 C19.1957507,75.8116103 29.378203,80.0278945 39.9900003,80 C50.6799602,80 60.7265892,75.8332031 68.2865608,68.2832313 C83.8798357,52.6899565 83.8798357,27.313385 68.2865608,11.7134435 Z M66.0963835,65.8839548 C59.215239,72.7998516 49.8527487,76.676625 40.0953537,76.6504645 C30.3448429,76.6749611 20.9892726,72.8009632 14.1119327,65.8909962 C7.19852373,59.0140134 3.32437868,49.6579007 3.35284981,39.9080461 C3.35284981,30.0852235 7.17409871,20.8609242 14.1154544,13.9215753 C20.9938452,7.00887345 30.3527358,3.13455087 40.105919,3.16209244 C49.8589471,3.13533627 59.2175471,7.00953854 66.0963835,13.9215753 C80.4228347,28.2509258 80.4228347,51.5581249 66.0963835,65.8839548 Z" id="Shape"></path>
                    <path d="M36.0361922,53.0232558 C35.4478127,53.0232558 35.0555597,52.8226109 34.6633067,52.421321 L22.9139609,40.4012898 C22.1294549,39.5987101 22.1294549,38.3995067 22.9139609,37.596927 C23.6984669,36.7943473 24.8706648,36.7943473 25.6551708,37.596927 L36.0361922,48.2124436 L56.2052943,27.578679 C56.9898003,26.7760993 58.1619982,26.7760993 58.9465042,27.578679 C59.7310102,28.3812587 59.7310102,29.5804621 58.9465042,30.3830418 L37.4045166,52.421321 C37.0122636,52.8226108 36.6200106,53.0232558 36.0361922,53.0232558 Z" id="路径"></path>
                </g>
            </g>
        </g>
    </g>
</svg>