<svg width="16" height="16" viewBox="0 0 16 16" fill="none" xmlns="http://www.w3.org/2000/svg">
<path fill-rule="evenodd" clip-rule="evenodd" d="M0 8C0 3.5424 3.54247 0 8 0C12.4564 0 16 3.5424 16 8C16 12.4576 12.4564 16 8 16C3.54355 16 0 12.4576 0 8ZM1.14294 7.99994C1.14294 11.7717 4.22842 14.8575 7.99993 14.8575C11.7714 14.8575 14.8569 11.7717 14.8569 7.99994C14.8569 4.22821 11.7704 1.14234 7.99993 1.14234C4.22842 1.14234 1.14294 4.22821 1.14294 7.99994Z" fill="white"/>
<path d="M6.50624 5H10.4115C11.2952 5 12.0115 5.71634 12.0115 6.6V6.6C12.0115 7.48366 11.2952 8.2 10.4115 8.2H6.4048C5.6316 8.2 5.0048 8.8268 5.0048 9.6V9.6C5.0048 10.3732 5.6316 11 6.4048 11H9.50912" stroke="white"/>
<ellipse cx="6.00576" cy="5" rx="1.00096" ry="1" stroke="white"/>
<ellipse cx="11.0106" cy="11" rx="1.00096" ry="1" stroke="white"/>
</svg>
