<?xml version="1.0" encoding="UTF-8"?>
<svg width="86px" height="86px" viewBox="0 0 86 86" version="1.1" xmlns="http://www.w3.org/2000/svg" xmlns:xlink="http://www.w3.org/1999/xlink">
    <!-- Generator: Sketch 53.2 (72643) - https://sketchapp.com -->
    <title>Transaction Submitted</title>
    <desc>Created with Sketch.</desc>
    <g id="Page-1" stroke="none" stroke-width="1" fill="none" fill-rule="evenodd">
        <g id="SunSwap_pop" transform="translate(-2042.000000, -418.000000)" fill="#16C378" fill-rule="nonzero">
            <g id="Group-23-Copy-2" transform="translate(1770.000000, 204.000000)">
                <g id="Transaction-Submitted" transform="translate(272.000000, 214.000000)">
                    <path d="M73.4081422,12.5919653 C65.3599161,4.50304161 54.4107716,-0.0309312825 43.0000896,0.000179138672 C31.5903332,-0.0315719672 20.642065,4.50257238 12.5956203,12.5919653 C4.50436676,20.63892 -0.0311105072,31.5885815 0.000250861328,43.0000179 C0.000250861328,54.4881414 4.46865079,65.2882676 12.5884537,73.4116538 C20.6355213,81.4974946 31.5816575,86.0300001 42.9893396,85.9998566 C54.4810465,85.9998566 65.2811727,81.5207068 73.4081422,73.4044872 C90.1709127,56.6417167 90.1709127,29.3619024 73.4081422,12.5919653 Z M71.0537016,70.8252649 C63.6564712,78.259854 53.5917941,82.4273853 43.1025946,82.39912 C32.6207954,82.4255967 22.5635573,78.2610489 15.170417,70.8328345 C7.73850231,63.4400779 3.57379638,53.3822568 3.6045722,42.9011631 C3.6045722,32.3416288 7.71224541,22.425507 15.1742028,14.9657069 C22.5684729,7.53455246 32.6292803,3.36965568 43.1139522,3.39942133 C53.5984574,3.37049999 63.6589524,7.53526743 71.0537016,14.9657069 C86.4546366,30.3697587 86.4546366,55.4249978 71.0537016,70.8252649 Z" id="Shape"></path>
                    <path d="M41.4289867,32.8237929 L32.5383708,41.3919483 C31.713622,42.1698286 30.4293855,42.1698286 29.6046367,41.3919483 C29.2186251,41.0241469 29,40.5130688 29,39.9784941 C29,39.4439194 29.2186251,38.9328413 29.6046367,38.5650399 L41.9606354,26.6526811 L41.963052,26.6599669 C42.207127,26.400105 42.5212831,26.2009585 42.8741045,26.0940995 L42.8716879,26.0940995 C43.0063176,26.0521811 43.1447329,26.0237094 43.284924,26.009098 L43.3042567,26.009098 C43.9137695,25.952585 44.5181646,26.161242 44.9644505,26.5822512 L45.0562807,26.6696814 L45.0490309,26.6696814 C45.0514475,26.6696769 45.0538641,26.6696769 45.0562807,26.6696814 L57.3953633,38.5650399 C57.7813749,38.9328413 58,39.4439194 58,39.9784941 C58,40.5130688 57.7813749,41.0241469 57.3953633,41.3919483 C56.5706145,42.1698286 55.286378,42.1698286 54.4616292,41.3919483 L45.578263,32.8310788 L45.578263,57.9988209 C45.578263,59.0989837 44.6430447,60 43.5024166,60 C42.3617885,60 41.4289867,59.1014123 41.4289867,57.9988209 L41.4289867,32.8237929 Z" id="Path"></path>
                </g>
            </g>
        </g>
    </g>
</svg>