<?xml version="1.0" encoding="UTF-8"?>
<svg width="86px" height="86px" viewBox="0 0 86 86" version="1.1" xmlns="http://www.w3.org/2000/svg" xmlns:xlink="http://www.w3.org/1999/xlink">
    <!-- Generator: Sketch 53.2 (72643) - https://sketchapp.com -->
    <title>Transaction Canceled</title>
    <desc>Created with Sketch.</desc>
    <g id="Page-1" stroke="none" stroke-width="1" fill="none" fill-rule="evenodd">
        <g id="SunSwap_pop" transform="translate(-2782.000000, -418.000000)" fill="#FF8E18" fill-rule="nonzero">
            <g id="Group-23-Copy-3" transform="translate(2510.000000, 204.000000)">
                <g id="Transaction-Canceled" transform="translate(272.000000, 214.000000)">
                    <path d="M43,0 C19.35,0 0,19.35 0,43 C0,66.65 19.35,86 43,86 C66.65,86 86,66.65 86,43 C86,19.35 66.65,0 43,0 Z M42.95,82.55 C21.2627574,82.55 3.45,64.7372426 3.45,43.05 C3.45,21.3627574 21.2627574,3.55 42.95,3.55 C64.6372426,3.55 82.45,21.3627574 82.45,43.05 C82.45,64.7372426 64.6372426,82.55 42.95,82.55 Z" id="Shape"></path>
                    <path d="M46.9425625,43 L58.7675625,31.175 C59.8425625,30.1 59.8425625,28.3074375 58.7675625,27.2324375 C57.6925625,26.1574375 55.9,26.1574375 54.825,27.2324375 L43,39.0574375 L31.175,27.2324375 C30.1,26.1574375 28.3074375,26.1574375 27.2324375,27.2324375 C26.1574375,28.3074375 26.1574375,30.1 27.2324375,31.175 L39.0574375,43 L27.2324375,54.825 C26.1574375,55.9 26.1574375,57.6925625 27.2324375,58.7675625 C27.95,59.485125 28.664875,59.485125 29.3824375,59.485125 C30.1,59.485125 30.814875,59.1276875 31.5324375,58.7675625 L43.3574375,46.9425625 L55.1824375,58.7675625 C55.9,59.485125 56.614875,59.485125 57.3324375,59.485125 C58.05,59.485125 58.764875,59.1276875 59.4824375,58.7675625 C60.5574375,57.6925625 60.5574375,55.9 59.4824375,54.825 L46.939875,43 L46.9425625,43 Z" id="Path"></path>
                </g>
            </g>
        </g>
    </g>
</svg>