<?xml version="1.0" encoding="UTF-8"?>
<svg width="24px" height="24px" viewBox="0 0 24 24" version="1.1" xmlns="http://www.w3.org/2000/svg" xmlns:xlink="http://www.w3.org/1999/xlink">
    <!-- Generator: Sketch 53.1 (72631) - https://sketchapp.com -->
    <title>Twitter</title>
    <desc>Created with Sketch.</desc>
    <g id="Page-1" stroke="none" stroke-width="1" fill="none" fill-rule="evenodd">
        <g id="Artboard" transform="translate(-336.000000, -1920.000000)">
            <g id="图标" transform="translate(0.000000, 1464.000000)">
                <g id="编组-17" transform="translate(81.000000, 381.000000)">
                    <g id="Twitter" transform="translate(255.000000, 75.000000)">
                        <rect id="Rectangle-Copy-3" fill="#C1C1C1" x="0" y="0" width="24" height="24" rx="5"></rect>
                        <g id="twitter-(1)" transform="translate(6.000000, 7.000000)" fill="#FFFFFF" fill-rule="nonzero">
                            <path d="M11.8540161,2.64750305 C11.8540161,7.39585871 8.81546185,10.8151035 4.34638554,10.9651644 C2.4564257,11.1152253 1.16164659,10.5257004 0.00261044177,9.63605359 C1.29738956,9.78611449 3.04116466,9.34665043 3.89738956,8.44628502 C2.60261044,8.44628502 1.87168675,7.69598051 1.4435743,6.67771011 L2.60261044,6.67771011 C1.4435743,6.22752741 0.566465863,5.33788063 0.566465863,3.85870889 C0.848393574,4.00876979 1.14076305,4.14811206 1.72550201,4.14811206 C0.712650602,3.55858709 0.138353414,1.62923264 0.858835341,0.439464068 C2.15361446,1.91863581 3.74076305,3.25846529 6.36164659,3.39780755 C5.63072289,0.439464068 9.4002008,-1.06114495 10.9873494,0.878928136 C11.7182731,0.728867235 12.1463855,0.439464068 12.710241,0.12862363 C12.5640562,0.878928136 12.1359438,1.3183922 11.5512048,1.60779537 C12.125502,1.60779537 12.5640562,1.45773447 12.9921687,1.1683313 C12.8564257,1.75785627 12.2821285,2.35809988 11.8540161,2.64750305 Z" id="Path"></path>
                        </g>
                    </g>
                </g>
            </g>
        </g>
    </g>
</svg>