<svg width="241" height="140" viewBox="0 0 241 140" fill="none" xmlns="http://www.w3.org/2000/svg">
<g opacity="0.2">
<path d="M63.8895 102.464L91.2169 1.99052H128.156L81.9821 140H45.7969L0 1.99052H36.6564L63.8895 102.464Z" fill="url(#paint0_linear_758_2495)"/>
<path d="M255.5 140H136.26V119.147L180.361 72.5118C191.229 60.0632 196.663 50.1738 196.663 42.8436C196.663 36.9036 195.375 32.3855 192.799 29.2891C190.224 26.1927 186.486 24.6446 181.586 24.6446C176.748 24.6446 172.822 26.7299 169.807 30.9005C166.791 35.0079 165.284 40.158 165.284 46.3507H133.433C133.433 37.8831 135.538 30.079 139.747 22.9384C143.956 15.7346 149.798 10.1106 157.274 6.06635C164.75 2.02212 173.105 0 182.34 0C197.165 0 208.568 3.44392 216.546 10.3318C224.587 17.2196 228.608 27.109 228.608 40C228.608 45.4344 227.602 50.7425 225.592 55.9242C223.582 61.0427 220.441 66.4455 216.169 72.1327C211.96 77.7567 205.144 85.3081 195.721 94.7867L178.005 115.355H255.5V140Z" fill="url(#paint1_linear_758_2495)"/>
</g>
<defs>
<linearGradient id="paint0_linear_758_2495" x1="118.387" y1="44.217" x2="118.387" y2="326.235" gradientUnits="userSpaceOnUse">
<stop stop-color="#E44646"/>
<stop offset="1" stop-color="#E58787" stop-opacity="0"/>
</linearGradient>
<linearGradient id="paint1_linear_758_2495" x1="118.387" y1="44.217" x2="118.387" y2="326.235" gradientUnits="userSpaceOnUse">
<stop stop-color="#E44646"/>
<stop offset="1" stop-color="#E58787" stop-opacity="0"/>
</linearGradient>
</defs>
</svg>
