<svg width="16" height="17" viewBox="0 0 16 17" fill="none" xmlns="http://www.w3.org/2000/svg">
<path d="M15.8571 15C15.8571 15.2381 15.8095 15.4762 15.7143 15.6667C15.619 15.8571 15.5238 16.0476 15.381 16.2381C15.2381 16.381 15.0476 16.5238 14.8571 16.619C14.6667 16.7143 14.4286 16.7619 14.1905 16.7619H1.7619C1.52381 16.7619 1.28571 16.7143 1.09524 16.619C0.857143 16.5238 0.666667 16.4286 0.52381 16.2381C0.380952 16.0952 0.238095 15.9048 0.142857 15.6667C0.047619 15.4762 -2.09263e-08 15.2381 0 15V5.52381C0 5.04762 0.190476 4.61905 0.52381 4.28572C0.857143 3.95238 1.28571 3.76191 1.7619 3.76191H14.2381C14.7143 3.76191 15.1429 3.95238 15.4762 4.28572C15.8095 4.61905 16 5.04762 16 5.52381V8.09524H11.5714C11.0952 8.09524 10.6667 8.2381 10.3333 8.57143C10 8.90476 9.80952 9.28572 9.80952 9.80952C9.80952 10.1429 9.90476 10.4286 10 10.6667C10.0952 10.9048 10.2857 11.0952 10.5238 11.2381C10.7619 11.4286 11.0952 11.5238 11.5238 11.5238H15.8571V15ZM13.2857 2.90476H4.66667C5.33333 2.57143 6 2.19048 6.61905 1.85714L8.19048 1C8.71429 0.714286 9.09524 0.52381 9.42857 0.333333C9.85714 0.0952381 10.2857 0 10.619 0C10.9524 0 11.2857 0.0952381 11.5238 0.190476C11.8095 0.333333 12.0476 0.52381 12.2381 0.761905L13.2857 2.90476ZM10.7143 9.80952C10.7143 9.57143 10.8095 9.38095 10.9524 9.19048C11.0952 9.04762 11.3333 8.95238 11.5714 8.95238C11.8095 8.95238 12 9.04762 12.1905 9.19048C12.3333 9.33333 12.4286 9.57143 12.4286 9.80952C12.4286 10.0476 12.3333 10.2381 12.1905 10.4286C12.0476 10.619 11.8095 10.6667 11.5714 10.6667C11.3333 10.6667 11.1429 10.5714 10.9524 10.4286C10.8095 10.2857 10.7143 10.0952 10.7143 9.80952Z" fill="#5816E0"/>
</svg>
