<?xml version="1.0" encoding="UTF-8"?>
<svg width="24px" height="24px" viewBox="0 0 24 24" version="1.1" xmlns="http://www.w3.org/2000/svg" xmlns:xlink="http://www.w3.org/1999/xlink">
    <!-- Generator: Sketch 53.2 (72643) - https://sketchapp.com -->
    <title>Swap-BTT-B</title>
    <desc>Created with Sketch.</desc>
    <g id="Swap浏览器页面" stroke="none" stroke-width="1" fill="none" fill-rule="evenodd">
        <g id="SunSwap_explorer_" transform="translate(-84.000000, -911.000000)">
            <g id="Group-2" transform="translate(40.000000, 100.000000)">
                <g id="Group-26-Copy" transform="translate(0.000000, 488.000000)">
                    <g id="Group-31-Copy" transform="translate(0.000000, 108.000000)">
                        <g id="Swap-BTT-B" transform="translate(44.000000, 215.000000)">
                            <g id="WTRX-n-Copy" fill="#5915E1">
                                <rect id="Rectangle-Copy-3" x="0" y="0" width="24" height="24" rx="5"></rect>
                            </g>
                            <g id="btt" transform="translate(5.000000, 5.000000)" fill="#FFFFFF" fill-rule="nonzero">
                                <path d="M13.847792,5.587232 C13.754608,5.135648 13.618416,4.6984 13.439216,4.275488 C13.267184,3.859744 13.044976,3.465504 12.794096,3.0856 C12.543216,2.712864 12.256496,2.3688 11.941104,2.053408 C11.625712,1.738016 11.281648,1.451296 10.908912,1.200416 C10.536176,0.949536 10.134768,0.734496 9.719024,0.555296 C9.296112,0.376096 8.858864,0.239904 8.40728,0.14672 C7.948528,0.053536 7.47544,0.00336 7.002352,0.00336 C6.529264,0.00336 6.056176,0.053536 5.597424,0.14672 C5.14584,0.239904 4.708592,0.376096 4.28568,0.555296 C3.869936,0.727328 3.475696,0.949536 3.095792,1.200416 C2.723056,1.451296 2.378992,1.738016 2.0636,2.053408 C1.748208,2.3688 1.461488,2.712864 1.210608,3.0856 C0.959728,3.458336 0.744688,3.859744 0.565488,4.275488 C0.386288,4.6984 0.250096,5.135648 0.156912,5.587232 C0.063728,6.045984 0.013552,6.519072 0.013552,6.99216 C0.013552,7.465248 0.063728,7.938336 0.156912,8.397088 C0.250096,8.848672 0.386288,9.28592 0.565488,9.708832 C0.73752,10.124576 0.959728,10.518816 1.210608,10.89872 C1.461488,11.271456 1.748208,11.61552 2.0636,11.930912 C2.378992,12.246304 2.723056,12.533024 3.095792,12.783904 C3.468528,13.034784 3.869936,13.249824 4.28568,13.429024 C4.708592,13.608224 5.14584,13.744416 5.597424,13.8376 C6.056176,13.930784 6.529264,13.98096 7.002352,13.98096 C7.47544,13.98096 7.948528,13.930784 8.40728,13.8376 C8.858864,13.744416 9.296112,13.608224 9.719024,13.429024 C10.134768,13.256992 10.529008,13.034784 10.908912,12.783904 C11.281648,12.533024 11.625712,12.246304 11.941104,11.930912 C12.256496,11.61552 12.543216,11.271456 12.794096,10.89872 C13.044976,10.525984 13.260016,10.124576 13.439216,9.708832 C13.618416,9.28592 13.754608,8.848672 13.847792,8.397088 C13.940976,7.938336 13.991152,7.465248 13.991152,6.99216 C13.991152,6.519072 13.940976,6.045984 13.847792,5.587232 Z M7.00952,13.106464 C3.633392,13.106464 0.902384,10.368288 0.902384,6.999328 C0.902384,3.630368 3.64056,0.892192 7.00952,0.892192 C10.37848,0.892192 13.116656,3.630368 13.116656,6.999328 C13.116656,10.368288 10.37848,13.106464 7.00952,13.106464 Z" id="Shape"></path>
                                <path d="M7.11704,12.576032 L7.281904,12.576032 C7.310576,12.576032 7.339248,12.576032 7.36792,12.568864 L7.375088,12.568864 C7.40376,12.568864 7.425264,12.568864 7.453936,12.561696 L7.47544,12.561696 C7.496944,12.561696 7.518448,12.561696 7.539952,12.554528 L7.561456,12.554528 C7.58296,12.554528 7.604464,12.54736 7.633136,12.54736 L7.647472,12.54736 C7.676144,12.54736 7.704816,12.540192 7.733488,12.540192 C7.76216,12.540192 7.783664,12.533024 7.812336,12.525856 L7.826672,12.525856 C7.848176,12.525856 7.86968,12.518688 7.891184,12.518688 L7.90552,12.518688 C7.934192,12.51152 7.955696,12.51152 7.984368,12.504352 C8.041712,12.497184 8.099056,12.482848 8.149232,12.468512 L8.163568,12.468512 C8.185072,12.461344 8.213744,12.461344 8.235248,12.454176 L8.242416,12.454176 C8.29976,12.43984 8.349936,12.425504 8.40728,12.411168 C7.719152,12.432672 7.160048,12.339488 6.808816,12.26064 C6.020336,12.088608 5.267696,11.780384 4.629744,11.249952 C3.56888,10.36112 3.024112,9.085216 3.038448,7.81648 C3.045616,6.870304 3.368176,5.924128 4.020464,5.149984 C4.837616,4.182304 5.998832,3.673376 7.18872,3.644704 L7.353584,3.644704 L7.353584,2.69136 L7.167216,2.69136 C6.801648,2.698528 6.443248,2.741536 6.092016,2.820384 C5.733616,2.899232 5.389552,3.021088 5.059824,3.171616 C4.722928,3.329312 4.407536,3.522848 4.113648,3.745056 C3.812592,3.974432 3.53304,4.239648 3.289328,4.533536 C3.059952,4.80592 2.859248,5.099808 2.694384,5.4152 C2.52952,5.716256 2.400496,6.038816 2.300144,6.368544 C2.20696,6.691104 2.13528,7.028 2.106608,7.364896 C2.09944,7.472416 2.092272,7.572768 2.085104,7.680288 L2.085104,7.866656 C2.092272,8.232224 2.13528,8.590624 2.214128,8.941856 C2.292976,9.300256 2.414832,9.64432 2.56536,9.974048 C2.74456,10.368288 3.06712,10.948896 3.547376,11.386144 C4.493552,12.131616 5.690608,12.576032 6.988016,12.576032 L7.11704,12.576032 Z" id="Path"></path>
                                <path d="M8.679664,11.658528 C8.349936,11.65136 7.94136,11.601184 7.625968,11.54384 C6.14936,11.278624 4.880624,10.375456 4.414704,9.013536 C3.848432,7.357728 4.71576,5.565728 6.3644,5.02096 C6.68696,4.91344 7.00952,4.863264 7.339248,4.863264 C7.76216,4.863264 8.185072,4.94928 8.572144,5.106976 L8.973552,4.253984 C8.851696,4.203808 8.72984,4.1608 8.607984,4.117792 C8.199408,3.988768 7.769328,3.924256 7.339248,3.924256 C6.909168,3.924256 6.479088,3.995936 6.070512,4.132128 C5.547248,4.30416 5.066992,4.583712 4.658416,4.94928 C4.46488,5.121312 4.278512,5.322016 4.120816,5.529888 C3.96312,5.73776 3.826928,5.959968 3.71224,6.196512 C3.597552,6.433056 3.504368,6.676768 3.439856,6.927648 C3.375344,7.178528 3.325168,7.443744 3.310832,7.70896 C3.274992,8.253728 3.346672,8.798496 3.525872,9.314592 C3.705072,9.837856 3.991792,10.318112 4.386032,10.741024 C4.737264,11.120928 5.14584,11.407648 5.640432,11.672864 C6.156528,11.945248 6.79448,12.088608 7.461104,12.181792 C7.891184,12.239136 8.464624,12.253472 8.80152,12.253472 C9.095408,12.145952 9.217264,12.095776 9.37496,12.031264 C9.511152,11.966752 9.647344,11.90224 9.783536,11.823392 C9.919728,11.744544 9.941232,11.730208 10.170608,11.57968 C10.192112,11.565344 10.213616,11.551008 10.227952,11.536672 C9.439472,11.672864 9.238768,11.665696 8.679664,11.658528 L8.679664,11.658528 Z" id="Path"></path>
                                <path d="M10.442992,10.590496 C10.220784,10.604832 9.905392,10.626336 9.546992,10.626336 C8.90904,10.626336 8.127728,10.568992 7.461104,10.346784 C6.428912,10.00272 5.454064,9.121056 5.454064,8.03152 C5.454064,6.941984 6.335728,6.067488 7.418096,6.067488 C8.1564,6.067488 8.794352,6.476064 9.131248,7.071008 L9.98424,6.648096 C9.848048,6.397216 9.683184,6.16784 9.475312,5.967136 C9.210096,5.70192 8.894704,5.48688 8.55064,5.34352 C8.19224,5.192992 7.812336,5.114144 7.418096,5.114144 C7.023856,5.114144 6.643952,5.192992 6.285552,5.34352 C5.941488,5.48688 5.626096,5.70192 5.36088,5.967136 C5.095664,6.232352 4.880624,6.547744 4.737264,6.891808 C4.586736,7.250208 4.507888,7.630112 4.507888,8.024352 C4.507888,8.418592 4.593904,8.812832 4.758768,9.185568 C4.909296,9.515296 5.117168,9.82352 5.382384,10.11024 C5.848304,10.612 6.486256,11.013408 7.167216,11.242784 C7.819504,11.457824 8.780016,11.536672 9.711856,11.47216 C9.969904,11.450656 10.16344,11.429152 10.493168,11.357472 C10.80856,11.106592 11.102448,10.819872 11.353328,10.50448 C11.13112,10.525984 10.722544,10.568992 10.442992,10.590496 Z" id="Path"></path>
                            </g>
                        </g>
                    </g>
                </g>
            </g>
        </g>
    </g>
</svg>