<svg width="417" height="48" viewBox="0 0 417 48" fill="none" xmlns="http://www.w3.org/2000/svg">
<path d="M218.247 12.2567V15.4452H222.692V18.3759H225.816V15.4452H230.936V18.5048H234.221V15.4452H239.439V18.3759H242.595V15.4452H247.168V12.2567H242.595V9.32593H239.439V12.2567H234.221V9.1971H230.936V12.2567H225.816V9.32593H222.692V12.2567H218.247ZM246.46 19.9541H218.923V26.6208H222.208V23.1103H230.969V25.6546H222.885V36.7658H226.17V28.7786H230.969V38.827H234.318V28.7786H239.246V32.579C239.246 33.2875 238.988 33.674 238.505 33.674L235.832 33.513L236.701 36.7336H239.568C241.532 36.7336 242.531 35.5742 242.531 33.2875V25.6546H234.318V23.1103H243.175V26.4598H246.46V19.9541ZM254.445 22.3051V38.9237H257.794V17.5386C259.147 15.2841 260.242 12.9008 261.079 10.3887L257.955 8.90724C256.345 13.8348 253.897 18.1183 250.58 21.7576L251.707 25.3647C252.673 24.3663 253.575 23.3357 254.445 22.3051ZM276.506 21.9509L273.543 22.9493C274.992 26.5242 276.313 30.6466 277.472 35.2843L280.435 33.9639C279.34 29.7126 278.02 25.6868 276.506 21.9509ZM265.008 15.9283H276.152C275.701 17.3453 275.186 18.6014 274.542 19.6964L277.762 20.6304C278.503 18.7302 279.115 16.83 279.598 14.8976V12.7076H266.168C266.458 11.7736 266.748 10.8074 267.005 9.84123L263.849 9.1649C262.883 13.1907 261.208 16.9911 258.825 20.566L261.723 22.3695C262.947 20.4372 264.042 18.2793 265.008 15.9283ZM268.583 38.6982C270.773 38.6982 271.868 37.571 271.868 35.3487V18.1505H268.616V34.5436C268.616 35.3487 268.229 35.7674 267.456 35.7674C266.297 35.7674 265.041 35.6708 263.752 35.542L264.493 38.6982H268.583ZM263.334 22.3051C262.045 26.8784 260.564 30.6466 258.889 33.6096L262.045 34.7368C263.785 31.4196 265.234 27.5548 266.361 23.1425L263.334 22.3051ZM285.135 14.5112C286.294 14.3823 287.39 14.2213 288.485 14.0925V17.5708H284.201V20.8236H288.162C287.196 23.9155 285.715 26.653 283.686 29.1007L285.167 32.7722C286.456 30.7432 287.583 28.521 288.485 26.1377V38.7948H291.737V25.3325C292.382 26.3631 293.122 27.6192 293.992 29.1329L295.86 26.2987C294.443 24.7528 293.09 23.3357 291.737 22.0797V20.8236H295.183V17.5708H291.737V13.5128C292.993 13.2229 294.185 12.9008 295.344 12.5788L294.121 9.45475C291.286 10.4209 288.066 11.0329 284.459 11.3227L285.135 14.5112ZM311.577 28.6176V16.9589H307.454C308.227 15.9605 309 14.801 309.773 13.4806V11.0651H302.945C303.203 10.5498 303.428 10.0023 303.622 9.42255L300.304 9.00386C299.274 11.8058 297.309 14.1569 294.411 16.0893L296.343 18.5692C296.472 18.4726 296.633 18.3759 296.794 18.2471V19.8574H308.324V21.4033H296.89V24.1731H308.324V25.7834H296.601V28.6176H311.577ZM301.238 13.9315H306.069C305.296 15.0909 304.556 16.0893 303.847 16.9589H298.436C299.499 16.0249 300.433 15.0265 301.238 13.9315ZM311.126 29.5194L308.291 30.4212C309.387 32.3213 310.385 34.5114 311.287 36.9913L314.024 35.7674C313.187 33.5452 312.221 31.4518 311.126 29.5194ZM295.731 30.0347C295.312 32.0315 294.604 33.8995 293.605 35.6708L296.278 37.3777C297.245 35.4776 298.018 33.2231 298.565 30.6144L295.731 30.0347ZM306.52 38.6338C307.551 38.6338 308.291 38.4406 308.807 38.0541C309.322 37.6354 309.709 36.3471 309.934 34.1571L307.068 33.2231C307.003 34.447 306.874 35.1555 306.713 35.3809C306.52 35.6064 306.295 35.7352 306.005 35.7352H303.299C302.591 35.7352 302.237 35.2521 302.237 34.3503V29.777H299.209V34.9623C299.209 37.41 300.24 38.6338 302.333 38.6338H306.52ZM304.91 29.0041L302.494 30.5178C303.589 31.9027 304.427 33.1587 305.071 34.2537L307.486 32.579C306.907 31.5484 306.037 30.3567 304.91 29.0041ZM345.069 29.2939V24.5274H346.711V21.8864H345.069V17.2487H340.818V15.4774H345.906V12.5466H341.816C342.235 11.5804 342.557 10.5176 342.814 9.42255L339.562 8.97166C339.336 10.1955 339.014 11.3871 338.563 12.5466H336.244C335.922 11.2583 335.568 10.0989 335.181 9.03607L331.864 9.61579C332.315 10.5176 332.766 11.4838 333.152 12.5466H329.61V15.4774H333.442V17.2487H330.479V19.8252H333.442V21.8864H329.513V24.5274H333.442V26.7174H330.254V29.2939H332.702C331.671 31.3229 330.222 33.0621 328.354 34.5436C327.613 33.6418 326.776 32.7078 325.809 31.7738L323.909 33.6418C325.294 35.1233 326.357 36.5404 327.13 37.8608L328.483 36.5404L329.352 37.9575C331.027 36.3793 332.38 34.5114 333.442 32.3857V38.8592H336.277V29.2939H337.919V38.8592H340.818V32.3857C341.784 34.3181 343.104 36.1217 344.747 37.7964L346.937 35.0911C344.393 33.3841 342.525 31.4518 341.333 29.2939H345.069ZM337.919 17.2487H336.277V15.4774H337.919V17.2487ZM336.277 19.8252H337.919V21.8864H336.277V19.8252ZM340.818 19.8252H342.299V21.8864H340.818V19.8252ZM336.277 24.5274H337.919V26.7174H336.277V24.5274ZM340.818 24.5274H342.299V26.7174H340.818V24.5274ZM328.708 10.3887H317.951V31.0009H320.914V13.4806H325.809V30.4534H328.708V10.3887ZM322.073 15.1875V25.6868C321.977 28.4566 321.59 30.6788 320.882 32.418C320.173 33.9961 318.788 35.3165 316.759 36.4116L318.434 39.0525C320.592 37.9575 322.138 36.4116 323.072 34.3825C324.07 32.1925 324.618 29.2939 324.714 25.6868V15.1875H322.073ZM350.96 10.5176V13.8026H364.616C361.782 19.3421 356.886 24.0443 349.93 27.9735L352.152 30.9043C356.532 28.2633 360.204 25.3003 363.134 22.0153V38.9881H366.613V17.2809C367.289 16.1537 367.901 14.9943 368.448 13.8026H378.787V10.5176H350.96ZM370.671 19.3421L368.255 21.661C372.055 24.785 375.018 27.7158 377.08 30.4212L379.721 27.748C377.273 24.9461 374.246 22.1441 370.671 19.3421ZM395.274 10.1955H384.098V31.3873H387.029V13.1907H392.44V30.9365H395.274V10.1955ZM388.478 15.1553V25.6868C388.382 28.4566 387.963 30.711 387.222 32.4502C386.449 34.0605 384.968 35.3809 382.778 36.476L384.485 39.1491C386.707 38.0219 388.317 36.4438 389.316 34.447C390.346 32.2569 390.894 29.3583 390.991 25.6868V15.1553H388.478ZM392.279 31.5806L390.314 33.513C392.086 35.3809 393.438 37.1201 394.404 38.7304L396.659 36.476C395.467 34.8656 394.018 33.2231 392.279 31.5806ZM396.562 11.9669V15.1231H411.86V11.9669H405.87C405.548 10.8718 405.194 9.84123 404.839 8.93945L401.49 9.51917C401.876 10.2599 402.231 11.0651 402.553 11.9669H396.562ZM396.079 20.727V23.9477H412.601V20.727H409.123C409.702 19.5032 410.282 18.1827 410.797 16.7012L407.641 15.574C407.126 17.3775 406.514 19.0845 405.838 20.727H403.1C402.553 18.7624 401.941 17.0555 401.264 15.6384L398.205 16.83C398.817 18.0539 399.364 19.3743 399.815 20.727H396.079ZM410.926 26.1055H397.818V38.7948H400.975V37.2811H407.802V38.7948H410.926V26.1055ZM400.975 34.1249V29.2617H407.802V34.1249H400.975Z" fill="url(#paint0_linear)"/>
<path d="M218.247 12.2567V9.57285H215.563V12.2567H218.247ZM218.247 15.4452H215.563V18.129H218.247V15.4452ZM222.692 15.4452H225.375V12.7613H222.692V15.4452ZM222.692 18.3759H220.008V21.0598H222.692V18.3759ZM225.816 18.3759V21.0598H228.499V18.3759H225.816ZM225.816 15.4452V12.7613H223.132V15.4452H225.816ZM230.936 15.4452H233.62V12.7613H230.936V15.4452ZM230.936 18.5048H228.252V21.1886H230.936V18.5048ZM234.221 18.5048V21.1886H236.905V18.5048H234.221ZM234.221 15.4452V12.7613H231.538V15.4452H234.221ZM239.439 15.4452H242.123V12.7613H239.439V15.4452ZM239.439 18.3759H236.755V21.0598H239.439V18.3759ZM242.595 18.3759V21.0598H245.279V18.3759H242.595ZM242.595 15.4452V12.7613H239.911V15.4452H242.595ZM247.168 15.4452V18.129H249.852V15.4452H247.168ZM247.168 12.2567H249.852V9.57285H247.168V12.2567ZM242.595 12.2567H239.911V14.9406H242.595V12.2567ZM242.595 9.32593H245.279V6.64206H242.595V9.32593ZM239.439 9.32593V6.64206H236.755V9.32593H239.439ZM239.439 12.2567V14.9406H242.123V12.2567H239.439ZM234.221 12.2567H231.538V14.9406H234.221V12.2567ZM234.221 9.1971H236.905V6.51323H234.221V9.1971ZM230.936 9.1971V6.51323H228.252V9.1971H230.936ZM230.936 12.2567V14.9406H233.62V12.2567H230.936ZM225.816 12.2567H223.132V14.9406H225.816V12.2567ZM225.816 9.32593H228.499V6.64206H225.816V9.32593ZM222.692 9.32593V6.64206H220.008V9.32593H222.692ZM222.692 12.2567V14.9406H225.375V12.2567H222.692ZM246.46 19.9541H249.144V17.2702H246.46V19.9541ZM218.923 19.9541V17.2702H216.239V19.9541H218.923ZM218.923 26.6208H216.239V29.3047H218.923V26.6208ZM222.208 26.6208V29.3047H224.892V26.6208H222.208ZM222.208 23.1103V20.4264H219.525V23.1103H222.208ZM230.969 23.1103H233.652V20.4264H230.969V23.1103ZM230.969 25.6546V28.3385H233.652V25.6546H230.969ZM222.885 25.6546V22.9707H220.201V25.6546H222.885ZM222.885 36.7658H220.201V39.4497H222.885V36.7658ZM226.17 36.7658V39.4497H228.854V36.7658H226.17ZM226.17 28.7786V26.0948H223.486V28.7786H226.17ZM230.969 28.7786H233.652V26.0948H230.969V28.7786ZM230.969 38.827H228.285V41.5109H230.969V38.827ZM234.318 38.827V41.5109H237.002V38.827H234.318ZM234.318 28.7786V26.0948H231.634V28.7786H234.318ZM239.246 28.7786H241.929V26.0948H239.246V28.7786ZM238.505 33.674L238.343 36.353L238.424 36.3579H238.505V33.674ZM235.832 33.513L235.993 30.834L232.268 30.6095L233.241 34.2126L235.832 33.513ZM236.701 36.7336L234.11 37.4332L234.646 39.4175H236.701V36.7336ZM242.531 25.6546H245.215V22.9707H242.531V25.6546ZM234.318 25.6546H231.634V28.3385H234.318V25.6546ZM234.318 23.1103V20.4264H231.634V23.1103H234.318ZM243.175 23.1103H245.859V20.4264H243.175V23.1103ZM243.175 26.4598H240.491V29.1436H243.175V26.4598ZM246.46 26.4598V29.1436H249.144V26.4598H246.46ZM215.563 12.2567V15.4452H220.931V12.2567H215.563ZM218.247 18.129H222.692V12.7613H218.247V18.129ZM220.008 15.4452V18.3759H225.375V15.4452H220.008ZM222.692 21.0598H225.816V15.6921H222.692V21.0598ZM228.499 18.3759V15.4452H223.132V18.3759H228.499ZM225.816 18.129H230.936V12.7613H225.816V18.129ZM228.252 15.4452V18.5048H233.62V15.4452H228.252ZM230.936 21.1886H234.221V15.8209H230.936V21.1886ZM236.905 18.5048V15.4452H231.538V18.5048H236.905ZM234.221 18.129H239.439V12.7613H234.221V18.129ZM236.755 15.4452V18.3759H242.123V15.4452H236.755ZM239.439 21.0598H242.595V15.6921H239.439V21.0598ZM245.279 18.3759V15.4452H239.911V18.3759H245.279ZM242.595 18.129H247.168V12.7613H242.595V18.129ZM249.852 15.4452V12.2567H244.485V15.4452H249.852ZM247.168 9.57285H242.595V14.9406H247.168V9.57285ZM245.279 12.2567V9.32593H239.911V12.2567H245.279ZM242.595 6.64206H239.439V12.0098H242.595V6.64206ZM236.755 9.32593V12.2567H242.123V9.32593H236.755ZM239.439 9.57285H234.221V14.9406H239.439V9.57285ZM236.905 12.2567V9.1971H231.538V12.2567H236.905ZM234.221 6.51323H230.936V11.881H234.221V6.51323ZM228.252 9.1971V12.2567H233.62V9.1971H228.252ZM230.936 9.57285H225.816V14.9406H230.936V9.57285ZM228.499 12.2567V9.32593H223.132V12.2567H228.499ZM225.816 6.64206H222.692V12.0098H225.816V6.64206ZM220.008 9.32593V12.2567H225.375V9.32593H220.008ZM222.692 9.57285H218.247V14.9406H222.692V9.57285ZM246.46 17.2702H218.923V22.6379H246.46V17.2702ZM216.239 19.9541V26.6208H221.607V19.9541H216.239ZM218.923 29.3047H222.208V23.9369H218.923V29.3047ZM224.892 26.6208V23.1103H219.525V26.6208H224.892ZM222.208 25.7942H230.969V20.4264H222.208V25.7942ZM228.285 23.1103V25.6546H233.652V23.1103H228.285ZM230.969 22.9707H222.885V28.3385H230.969V22.9707ZM220.201 25.6546V36.7658H225.569V25.6546H220.201ZM222.885 39.4497H226.17V34.082H222.885V39.4497ZM228.854 36.7658V28.7786H223.486V36.7658H228.854ZM226.17 31.4625H230.969V26.0948H226.17V31.4625ZM228.285 28.7786V38.827H233.652V28.7786H228.285ZM230.969 41.5109H234.318V36.1432H230.969V41.5109ZM237.002 38.827V28.7786H231.634V38.827H237.002ZM234.318 31.4625H239.246V26.0948H234.318V31.4625ZM236.562 28.7786V32.579H241.929V28.7786H236.562ZM236.562 32.579C236.562 32.678 236.532 32.3359 236.831 31.8923C236.999 31.643 237.253 31.3924 237.598 31.2152C237.938 31.0407 238.262 30.9901 238.505 30.9901V36.3579C239.58 36.3579 240.626 35.8652 241.282 34.8921C241.831 34.0781 241.929 33.1885 241.929 32.579H236.562ZM238.666 30.995L235.993 30.834L235.67 36.192L238.343 36.353L238.666 30.995ZM233.241 34.2126L234.11 37.4332L239.292 36.034L238.423 32.8134L233.241 34.2126ZM236.701 39.4175H239.568V34.0498H236.701V39.4175ZM239.568 39.4175C241.089 39.4175 242.676 38.9487 243.821 37.6182C244.9 36.3632 245.215 34.763 245.215 33.2875H239.847C239.847 33.6722 239.804 33.913 239.766 34.0458C239.729 34.1711 239.707 34.1697 239.751 34.1179C239.803 34.0578 239.863 34.0245 239.883 34.0167C239.888 34.0149 239.8 34.0498 239.568 34.0498V39.4175ZM245.215 33.2875V25.6546H239.847V33.2875H245.215ZM242.531 22.9707H234.318V28.3385H242.531V22.9707ZM237.002 25.6546V23.1103H231.634V25.6546H237.002ZM234.318 25.7942H243.175V20.4264H234.318V25.7942ZM240.491 23.1103V26.4598H245.859V23.1103H240.491ZM243.175 29.1436H246.46V23.7759H243.175V29.1436ZM249.144 26.4598V19.9541H243.776V26.4598H249.144ZM254.445 22.3051H257.129V14.9624L252.393 20.5744L254.445 22.3051ZM254.445 38.9237H251.761V41.6075H254.445V38.9237ZM257.794 38.9237V41.6075H260.478V38.9237H257.794ZM257.794 17.5386L255.493 16.1577L255.11 16.7952V17.5386H257.794ZM261.079 10.3887L263.625 11.2375L264.377 8.98231L262.229 7.96373L261.079 10.3887ZM257.955 8.90724L259.105 6.48224L256.351 5.17611L255.404 8.07355L257.955 8.90724ZM250.58 21.7576L248.596 19.9496L247.559 21.088L248.018 22.5582L250.58 21.7576ZM251.707 25.3647L249.145 26.1653L250.493 30.4784L253.636 27.2312L251.707 25.3647ZM276.506 21.9509L278.994 20.943L278.044 18.6004L275.649 19.4075L276.506 21.9509ZM273.543 22.9493L272.686 20.4059L269.985 21.3161L271.056 23.9576L273.543 22.9493ZM277.472 35.2843L274.869 35.9353L275.644 39.0374L278.565 37.7358L277.472 35.2843ZM280.435 33.9639L281.528 36.4153L283.6 35.4917L283.034 33.2944L280.435 33.9639ZM265.008 15.9283V13.2444H263.21L262.526 14.9081L265.008 15.9283ZM276.152 15.9283L278.709 16.742L279.822 13.2444H276.152V15.9283ZM274.542 19.6964L272.228 18.3356L270.477 21.3122L273.794 22.2741L274.542 19.6964ZM277.762 20.6304L277.015 23.2081L279.371 23.8915L280.263 21.6052L277.762 20.6304ZM279.598 14.8976L282.202 15.5486L282.282 15.228V14.8976H279.598ZM279.598 12.7076H282.282V10.0237H279.598V12.7076ZM266.168 12.7076L263.605 11.9121L262.525 15.3915H266.168V12.7076ZM267.005 9.84123L269.598 10.5328L270.325 7.80784L267.568 7.21694L267.005 9.84123ZM263.849 9.1649L264.411 6.5406L261.85 5.99184L261.239 8.53855L263.849 9.1649ZM258.825 20.566L256.592 19.0772L255.055 21.3816L257.407 22.8447L258.825 20.566ZM261.723 22.3695L260.305 24.6483L262.566 26.0549L263.991 23.8056L261.723 22.3695ZM271.868 18.1505H274.552V15.4666H271.868V18.1505ZM268.616 18.1505V15.4666H265.932V18.1505H268.616ZM263.752 35.542L264.019 32.8714L260.281 32.4976L261.139 36.1552L263.752 35.542ZM264.493 38.6982L261.88 39.3114L262.366 41.3821H264.493V38.6982ZM263.334 22.3051L264.049 19.7184L261.475 19.0063L260.75 21.5774L263.334 22.3051ZM258.889 33.6096L256.553 32.289L254.984 35.0647L257.986 36.1371L258.889 33.6096ZM262.045 34.7368L261.143 37.2643L263.339 38.0488L264.422 35.983L262.045 34.7368ZM266.361 23.1425L268.961 23.8068L269.613 21.2573L267.077 20.5558L266.361 23.1425ZM251.761 22.3051V38.9237H257.129V22.3051H251.761ZM254.445 41.6075H257.794V36.2398H254.445V41.6075ZM260.478 38.9237V17.5386H255.11V38.9237H260.478ZM260.096 18.9194C261.55 16.4958 262.727 13.934 263.625 11.2375L258.533 9.54003C257.757 11.8677 256.744 14.0724 255.493 16.1577L260.096 18.9194ZM262.229 7.96373L259.105 6.48224L256.805 11.3323L259.929 12.8137L262.229 7.96373ZM255.404 8.07355C253.904 12.6644 251.641 16.6097 248.596 19.9496L252.563 23.5656C256.154 19.6269 258.786 15.0053 260.506 9.74094L255.404 8.07355ZM248.018 22.5582L249.145 26.1653L254.269 24.5642L253.142 20.9571L248.018 22.5582ZM253.636 27.2312C254.662 26.1712 255.607 25.0893 256.496 24.0359L252.393 20.5744C251.543 21.5822 250.685 22.5615 249.779 23.4983L253.636 27.2312ZM275.649 19.4075L272.686 20.4059L274.4 25.4926L277.363 24.4942L275.649 19.4075ZM271.056 23.9576C272.45 27.3963 273.734 31.3964 274.869 35.9353L280.076 34.6334C278.892 29.8968 277.535 25.6521 276.03 21.9409L271.056 23.9576ZM278.565 37.7358L281.528 36.4153L279.343 31.5124L276.38 32.8329L278.565 37.7358ZM283.034 33.2944C281.912 28.9358 280.555 24.7964 278.994 20.943L274.019 22.9587C275.485 26.5772 276.769 30.4894 277.836 34.6333L283.034 33.2944ZM265.008 18.6121H276.152V13.2444H265.008V18.6121ZM273.594 15.1145C273.181 16.414 272.738 17.4689 272.228 18.3356L276.855 21.0572C277.633 19.7339 278.221 18.2767 278.709 16.742L273.594 15.1145ZM273.794 22.2741L277.015 23.2081L278.51 18.0527L275.289 17.1187L273.794 22.2741ZM280.263 21.6052C281.042 19.606 281.689 17.5977 282.202 15.5486L276.994 14.2467C276.54 16.0623 275.964 17.8544 275.262 19.6556L280.263 21.6052ZM282.282 14.8976V12.7076H276.914V14.8976H282.282ZM279.598 10.0237H266.168V15.3915H279.598V10.0237ZM268.731 13.5031C269.025 12.5551 269.327 11.5497 269.598 10.5328L264.412 9.1497C264.168 10.0651 263.89 10.9921 263.605 11.9121L268.731 13.5031ZM267.568 7.21694L264.411 6.5406L263.287 11.7892L266.443 12.4655L267.568 7.21694ZM261.239 8.53855C260.35 12.2454 258.806 15.7553 256.592 19.0772L261.058 22.0547C263.61 18.2268 265.416 14.136 266.459 9.79124L261.239 8.53855ZM257.407 22.8447L260.305 24.6483L263.141 20.0908L260.243 18.2872L257.407 22.8447ZM263.991 23.8056C265.31 21.7231 266.474 19.423 267.491 16.9484L262.526 14.9081C261.611 17.1356 260.585 19.1512 259.456 20.9335L263.991 23.8056ZM268.583 41.3821C270.112 41.3821 271.742 40.9843 272.965 39.7338C274.179 38.4939 274.552 36.8639 274.552 35.3487H269.185C269.185 36.0559 269.011 36.1005 269.129 35.9799C269.257 35.8485 269.245 36.0143 268.583 36.0143V41.3821ZM274.552 35.3487V18.1505H269.185V35.3487H274.552ZM271.868 15.4666H268.616V20.8344H271.868V15.4666ZM265.932 18.1505V34.5436H271.299V18.1505H265.932ZM265.932 34.5436C265.932 34.538 265.931 34.4314 265.985 34.2639C266.041 34.0859 266.156 33.8469 266.371 33.618C266.844 33.1154 267.372 33.0836 267.456 33.0836V38.4513C268.313 38.4513 269.421 38.2101 270.28 37.2969C271.112 36.4133 271.299 35.3335 271.299 34.5436H265.932ZM267.456 33.0836C266.432 33.0836 265.28 32.9975 264.019 32.8714L263.485 38.2125C264.801 38.3441 266.162 38.4513 267.456 38.4513V33.0836ZM261.139 36.1552L261.88 39.3114L267.106 38.085L266.365 34.9288L261.139 36.1552ZM264.493 41.3821H268.583V36.0143H264.493V41.3821ZM260.75 21.5774C259.499 26.0187 258.089 29.5704 256.553 32.289L261.226 34.9302C263.039 31.7228 264.592 27.7382 265.917 23.0328L260.75 21.5774ZM257.986 36.1371L261.143 37.2643L262.948 32.2093L259.792 31.0821L257.986 36.1371ZM264.422 35.983C266.274 32.4519 267.791 28.3864 268.961 23.8068L263.761 22.4782C262.676 26.7232 261.295 30.3872 259.668 33.4906L264.422 35.983ZM267.077 20.5558L264.049 19.7184L262.618 24.8919L265.646 25.7292L267.077 20.5558ZM285.135 14.5112L282.51 15.0681L283.014 17.4472L285.431 17.1786L285.135 14.5112ZM288.485 14.0925H291.168V11.0744L288.171 11.427L288.485 14.0925ZM288.485 17.5708V20.2547H291.168V17.5708H288.485ZM284.201 17.5708V14.8869H281.517V17.5708H284.201ZM284.201 20.8236H281.517V23.5075H284.201V20.8236ZM288.162 20.8236L290.724 21.6242L291.813 18.1398H288.162V20.8236ZM283.686 29.1007L281.62 27.3879L280.598 28.6204L281.197 30.105L283.686 29.1007ZM285.167 32.7722L282.678 33.7765L284.633 38.6207L287.433 34.2108L285.167 32.7722ZM288.485 26.1377H291.168L285.974 25.1879L288.485 26.1377ZM288.485 38.7948H285.801V41.4787H288.485V38.7948ZM291.737 38.7948V41.4787H294.421V38.7948H291.737ZM291.737 25.3325L294.013 23.9101L289.054 15.9744V25.3325H291.737ZM293.992 29.1329L291.665 30.4698L293.835 34.2478L296.233 30.6099L293.992 29.1329ZM295.86 26.2987L298.101 27.7757L299.253 26.0281L297.838 24.4852L295.86 26.2987ZM291.737 22.0797H289.054V23.25L289.911 24.0464L291.737 22.0797ZM291.737 20.8236V18.1398H289.054V20.8236H291.737ZM295.183 20.8236V23.5075H297.867V20.8236H295.183ZM295.183 17.5708H297.867V14.8869H295.183V17.5708ZM291.737 17.5708H289.054V20.2547H291.737V17.5708ZM291.737 13.5128L291.134 10.8976L289.054 11.3777V13.5128H291.737ZM295.344 12.5788L296.063 15.1647L298.928 14.3688L297.843 11.5998L295.344 12.5788ZM294.121 9.45475L296.62 8.47578L295.684 6.0864L293.255 6.91444L294.121 9.45475ZM284.459 11.3227L284.244 8.64748L281.2 8.89211L281.833 11.8796L284.459 11.3227ZM311.577 28.6176V31.3015H314.26V28.6176H311.577ZM311.577 16.9589H314.26V14.275H311.577V16.9589ZM307.454 16.9589L305.332 15.3159L301.982 19.6427H307.454V16.9589ZM309.773 13.4806L312.089 14.8364L312.457 14.2083V13.4806H309.773ZM309.773 11.0651H312.457V8.38121H309.773V11.0651ZM302.945 11.0651L300.545 9.86481L298.603 13.7489H302.945V11.0651ZM303.622 9.42255L306.168 10.2713L307.202 7.16925L303.958 6.7598L303.622 9.42255ZM300.304 9.00386L300.64 6.34112L298.522 6.0738L297.785 8.07738L300.304 9.00386ZM294.411 16.0893L292.922 13.8562L290.517 15.4593L292.293 17.7389L294.411 16.0893ZM296.343 18.5692L294.226 20.2188L295.845 22.2972L297.953 20.7163L296.343 18.5692ZM296.794 18.2471H299.478V12.663L295.117 16.1514L296.794 18.2471ZM296.794 19.8574H294.11V22.5413H296.794V19.8574ZM308.324 19.8574H311.008V17.1736H308.324V19.8574ZM308.324 21.4033V24.0872H311.008V21.4033H308.324ZM296.89 21.4033V18.7195H294.207V21.4033H296.89ZM296.89 24.1731H294.207V26.857H296.89V24.1731ZM308.324 24.1731H311.008V21.4892H308.324V24.1731ZM308.324 25.7834V28.4673H311.008V25.7834H308.324ZM296.601 25.7834V23.0996H293.917V25.7834H296.601ZM296.601 28.6176H293.917V31.3015H296.601V28.6176ZM301.238 13.9315V11.2476H299.88L299.076 12.3416L301.238 13.9315ZM306.069 13.9315L308.302 15.4202L311.084 11.2476H306.069V13.9315ZM303.847 16.9589V19.6427H305.122L305.928 18.6542L303.847 16.9589ZM298.436 16.9589L296.665 14.9428L291.317 19.6427H298.436V16.9589ZM311.126 29.5194L313.461 28.1962L312.387 26.3016L310.312 26.9618L311.126 29.5194ZM308.291 30.4212L307.478 27.8636L304.302 28.874L305.966 31.7612L308.291 30.4212ZM311.287 36.9913L308.764 37.9085L309.75 40.6182L312.382 39.4414L311.287 36.9913ZM314.024 35.7674L315.12 38.2176L317.427 37.1861L316.536 34.8211L314.024 35.7674ZM295.731 30.0347L296.269 27.4053L293.652 26.8701L293.104 29.4839L295.731 30.0347ZM293.605 35.6708L291.267 34.353L290.02 36.5658L292.161 37.9328L293.605 35.6708ZM296.278 37.3778L294.834 39.6398L297.329 41.233L298.671 38.5942L296.278 37.3778ZM298.565 30.6144L301.192 31.1657L301.746 28.5256L299.103 27.985L298.565 30.6144ZM308.807 38.0541L310.417 40.2012L310.459 40.1699L310.499 40.1371L308.807 38.0541ZM309.934 34.1571L312.604 34.4319L312.826 32.2766L310.766 31.6053L309.934 34.1571ZM307.068 33.2231L307.899 30.6713L304.571 29.587L304.387 33.0821L307.068 33.2231ZM306.713 35.381L308.751 37.1276L308.828 37.0375L308.897 36.9409L306.713 35.381ZM302.237 29.777H304.921V27.0932H302.237V29.777ZM299.209 29.777V27.0932H296.525V29.777H299.209ZM304.91 29.0041L306.972 27.2859L305.471 25.4851L303.485 26.7299L304.91 29.0041ZM302.494 30.5178L301.069 28.2436L298.532 29.8336L300.389 32.1824L302.494 30.5178ZM305.071 34.2537L302.758 35.6145L304.224 38.1069L306.6 36.4593L305.071 34.2537ZM307.486 32.579L309.016 34.7846L311.023 33.3925L309.826 31.2632L307.486 32.579ZM285.431 17.1786C286.515 17.0582 287.891 16.8646 288.798 16.758L288.171 11.427C286.888 11.578 286.074 11.7064 284.839 11.8437L285.431 17.1786ZM285.801 14.0925V17.5708H291.168V14.0925H285.801ZM288.485 14.8869H284.201V20.2547H288.485V14.8869ZM281.517 17.5708V20.8236H286.885V17.5708H281.517ZM284.201 23.5075H288.162V18.1398H284.201V23.5075ZM285.601 20.0231C284.737 22.7873 283.422 25.2138 281.62 27.3879L285.752 30.8135C288.008 28.0922 289.656 25.0436 290.724 21.6242L285.601 20.0231ZM281.197 30.105L282.678 33.7765L287.656 31.7679L286.175 28.0964L281.197 30.105ZM287.433 34.2108C288.816 32.0318 290.027 29.6462 290.995 27.0875L285.974 25.1879C285.139 27.3957 284.095 29.4546 282.902 31.3337L287.433 34.2108ZM285.801 26.1377V38.7948H291.168V26.1377H285.801ZM288.485 41.4787H291.737V36.111H288.485V41.4787ZM294.421 38.7948V25.3325H289.054V38.7948H294.421ZM289.461 26.755C290.079 27.7437 290.801 28.9664 291.665 30.4698L296.319 27.796C295.444 26.272 294.684 24.9825 294.013 23.9101L289.461 26.755ZM296.233 30.6099L298.101 27.7757L293.619 24.8218L291.751 27.6559L296.233 30.6099ZM297.838 24.4852C296.404 22.9201 294.994 21.4416 293.564 20.113L289.911 24.0464C291.186 25.2298 292.482 26.5855 293.881 28.1123L297.838 24.4852ZM294.421 22.0797V20.8236H289.054V22.0797H294.421ZM291.737 23.5075H295.183V18.1398H291.737V23.5075ZM297.867 20.8236V17.5708H292.5V20.8236H297.867ZM295.183 14.8869H291.737V20.2547H295.183V14.8869ZM294.421 17.5708V13.5128H289.054V17.5708H294.421ZM292.341 16.1279C293.656 15.8244 294.894 15.4894 296.063 15.1647L294.626 9.99282C293.476 10.3122 292.331 10.6215 291.134 10.8976L292.341 16.1279ZM297.843 11.5998L296.62 8.47578L291.622 10.4337L292.846 13.5578L297.843 11.5998ZM293.255 6.91444C290.677 7.79327 287.683 8.37111 284.244 8.64748L284.674 13.998C288.449 13.6946 291.896 13.0486 294.987 11.9951L293.255 6.91444ZM281.833 11.8796L282.51 15.0681L287.761 13.9543L287.084 10.7658L281.833 11.8796ZM314.26 28.6176V16.9589H308.893V28.6176H314.26ZM311.577 14.275H307.454V19.6427H311.577V14.275ZM309.576 18.6019C310.433 17.4953 311.27 16.2366 312.089 14.8364L307.457 12.1247C306.73 13.3655 306.021 14.4256 305.332 15.3159L309.576 18.6019ZM312.457 13.4806V11.0651H307.089V13.4806H312.457ZM309.773 8.38121H302.945V13.7489H309.773V8.38121ZM305.346 12.2653C305.663 11.6298 305.937 10.9642 306.168 10.2713L301.075 8.57384C300.92 9.04029 300.742 9.46971 300.545 9.86481L305.346 12.2653ZM303.958 6.7598L300.64 6.34112L299.968 11.6666L303.285 12.0853L303.958 6.7598ZM297.785 8.07738C296.984 10.255 295.435 12.181 292.922 13.8562L295.899 18.3224C299.184 16.1328 301.563 13.3567 302.823 9.93035L297.785 8.07738ZM292.293 17.7389L294.226 20.2188L298.46 16.9195L296.528 14.4396L292.293 17.7389ZM297.953 20.7163C297.945 20.7226 297.946 20.721 297.97 20.7051C298.002 20.6826 298.013 20.6752 298.072 20.6352C298.161 20.5743 298.309 20.4721 298.47 20.3429L295.117 16.1514C295.118 16.1509 295.105 16.1615 295.041 16.2052C295.023 16.2175 294.959 16.2605 294.921 16.2873C294.872 16.3207 294.805 16.3675 294.733 16.4221L297.953 20.7163ZM294.11 18.2471V19.8574H299.478V18.2471H294.11ZM296.794 22.5413H308.324V17.1736H296.794V22.5413ZM305.64 19.8574V21.4033H311.008V19.8574H305.64ZM308.324 18.7195H296.89V24.0872H308.324V18.7195ZM294.207 21.4033V24.1731H299.574V21.4033H294.207ZM296.89 26.857H308.324V21.4892H296.89V26.857ZM305.64 24.1731V25.7834H311.008V24.1731H305.64ZM308.324 23.0996H296.601V28.4673H308.324V23.0996ZM293.917 25.7834V28.6176H299.284V25.7834H293.917ZM296.601 31.3015H311.577V25.9337H296.601V31.3015ZM301.238 16.6153H306.069V11.2476H301.238V16.6153ZM303.836 12.4427C303.108 13.535 302.418 14.4641 301.766 15.2635L305.928 18.6542C306.693 17.7145 307.485 16.6467 308.302 15.4202L303.836 12.4427ZM303.847 14.275H298.436V19.6427H303.847V14.275ZM300.208 18.9749C301.399 17.9284 302.468 16.7894 303.401 15.5214L299.076 12.3416C298.398 13.2636 297.599 14.1214 296.665 14.9428L300.208 18.9749ZM310.312 26.9618L307.478 27.8636L309.105 32.9787L311.939 32.0769L310.312 26.9618ZM305.966 31.7612C306.97 33.5025 307.906 35.5466 308.764 37.9085L313.809 36.0741C312.864 33.4762 311.803 31.1401 310.617 29.0811L305.966 31.7612ZM312.382 39.4414L315.12 38.2176L312.929 33.3173L310.191 34.5411L312.382 39.4414ZM316.536 34.8211C315.655 32.4829 314.631 30.2618 313.461 28.1962L308.791 30.8426C309.81 32.6417 310.719 34.6075 311.513 36.7138L316.536 34.8211ZM293.104 29.4839C292.743 31.2077 292.133 32.8174 291.267 34.353L295.943 36.9886C297.075 34.9815 297.882 32.8553 298.358 30.5854L293.104 29.4839ZM292.161 37.9328L294.834 39.6398L297.723 35.1157L295.05 33.4088L292.161 37.9328ZM298.671 38.5942C299.762 36.448 300.605 33.9629 301.192 31.1657L295.938 30.0631C295.431 32.4833 294.727 34.5071 293.886 36.1613L298.671 38.5942ZM299.103 27.985L296.269 27.4053L295.193 32.6641L298.027 33.2438L299.103 27.985ZM306.52 41.3177C307.832 41.3177 309.244 41.0809 310.417 40.2012L307.196 35.907C307.268 35.8532 307.291 35.8634 307.193 35.8884C307.086 35.9156 306.876 35.9499 306.52 35.9499V41.3177ZM310.499 40.1371C311.43 39.3812 311.839 38.2619 312.055 37.5219C312.308 36.6552 312.483 35.6071 312.604 34.4319L307.264 33.8823C307.16 34.8971 307.028 35.5882 306.903 36.0178C306.873 36.1194 306.847 36.1956 306.826 36.25C306.816 36.2768 306.807 36.2966 306.801 36.3103C306.795 36.324 306.792 36.33 306.792 36.3295C306.792 36.3291 306.797 36.3204 306.806 36.3049C306.816 36.2895 306.832 36.2654 306.855 36.2349C306.9 36.1759 306.983 36.0778 307.114 35.9711L310.499 40.1371ZM310.766 31.6053L307.899 30.6713L306.236 35.7749L309.103 36.7089L310.766 31.6053ZM304.387 33.0821C304.358 33.6408 304.317 34.012 304.28 34.2304C304.262 34.3403 304.251 34.3675 304.26 34.3385C304.265 34.322 304.282 34.2694 304.315 34.1933C304.346 34.1227 304.412 33.9848 304.529 33.821L308.897 36.9409C309.186 36.5361 309.327 36.1269 309.395 35.9031C309.475 35.6395 309.531 35.3709 309.573 35.1225C309.657 34.6242 309.713 34.0292 309.748 33.3642L304.387 33.0821ZM304.676 33.6343C304.748 33.5497 304.905 33.392 305.162 33.2588C305.436 33.1173 305.731 33.0513 306.005 33.0513V38.4191C307.251 38.4191 308.173 37.8026 308.751 37.1276L304.676 33.6343ZM306.005 33.0513H303.299V38.4191H306.005V33.0513ZM303.299 33.0513C303.426 33.0513 303.656 33.0732 303.93 33.1954C304.216 33.3235 304.462 33.5231 304.641 33.7589C304.965 34.1868 304.921 34.5191 304.921 34.3503H299.553C299.553 35.0833 299.685 36.1081 300.364 37.003C301.143 38.0293 302.274 38.4191 303.299 38.4191V33.0513ZM304.921 34.3503V29.777H299.553V34.3503H304.921ZM302.237 27.0932H299.209V32.4609H302.237V27.0932ZM296.525 29.777V34.9623H301.893V29.777H296.525ZM296.525 34.9623C296.525 36.4974 296.839 38.1551 297.94 39.4526C299.114 40.8355 300.753 41.3177 302.333 41.3177V35.9499C302.065 35.9499 301.953 35.9101 301.94 35.9049C301.935 35.903 301.949 35.908 301.972 35.9246C301.996 35.9415 302.017 35.9613 302.033 35.9793C302.095 36.0529 301.893 35.8748 301.893 34.9623H296.525ZM302.333 41.3177H306.52V35.9499H302.333V41.3177ZM303.485 26.7299L301.069 28.2436L303.92 32.792L306.335 31.2783L303.485 26.7299ZM300.389 32.1824C301.407 33.4693 302.175 34.6237 302.758 35.6145L307.384 32.8929C306.679 31.6938 305.772 30.336 304.6 28.8531L300.389 32.1824ZM306.6 36.4593L309.016 34.7846L305.957 30.3734L303.542 32.0481L306.6 36.4593ZM309.826 31.2632C309.131 30.0287 308.145 28.6945 306.972 27.2859L302.848 30.7222C303.929 32.019 304.682 33.0681 305.147 33.8948L309.826 31.2632ZM345.069 29.2939V31.9778H347.753V29.2939H345.069ZM345.069 24.5274V21.8435H342.385V24.5274H345.069ZM346.711 24.5274V27.2112H349.395V24.5274H346.711ZM346.711 21.8864H349.395V19.2026H346.711V21.8864ZM345.069 21.8864H342.385V24.5703H345.069V21.8864ZM345.069 17.2487H347.753V14.5648H345.069V17.2487ZM340.818 17.2487H338.134V19.9326H340.818V17.2487ZM340.818 15.4774V12.7935H338.134V15.4774H340.818ZM345.906 15.4774V18.1612H348.59V15.4774H345.906ZM345.906 12.5466H348.59V9.8627H345.906V12.5466ZM341.816 12.5466L339.353 11.4795L337.728 15.2304H341.816V12.5466ZM342.814 9.42255L345.427 10.0373L346.102 7.16871L343.183 6.7641L342.814 9.42255ZM339.562 8.97166L339.93 6.31321L337.387 5.96073L336.922 8.48544L339.562 8.97166ZM338.563 12.5466V15.2304H340.399L341.065 13.5193L338.563 12.5466ZM336.244 12.5466L333.641 13.1975L334.149 15.2304H336.244V12.5466ZM335.181 9.03607L337.704 8.11888L336.935 6.00507L334.719 6.39227L335.181 9.03607ZM331.864 9.61579L331.402 6.97198L327.852 7.59243L329.464 10.8161L331.864 9.61579ZM333.152 12.5466V15.2304H336.984L335.675 11.6294L333.152 12.5466ZM329.61 12.5466V9.8627H326.926V12.5466H329.61ZM329.61 15.4774H326.926V18.1612H329.61V15.4774ZM333.442 15.4774H336.126V12.7935H333.442V15.4774ZM333.442 17.2487V19.9326H336.126V17.2487H333.442ZM330.479 17.2487V14.5648H327.795V17.2487H330.479ZM330.479 19.8252H327.795V22.5091H330.479V19.8252ZM333.442 19.8252H336.126V17.1414H333.442V19.8252ZM333.442 21.8864V24.5703H336.126V21.8864H333.442ZM329.513 21.8864V19.2026H326.829V21.8864H329.513ZM329.513 24.5274H326.829V27.2112H329.513V24.5274ZM333.442 24.5274H336.126V21.8435H333.442V24.5274ZM333.442 26.7174V29.4013H336.126V26.7174H333.442ZM330.254 26.7174V24.0335H327.57V26.7174H330.254ZM330.254 29.2939H327.57V31.9778H330.254V29.2939ZM332.702 29.2939L335.094 30.5094L337.075 26.6101H332.702V29.2939ZM328.354 34.5436L326.28 36.2471L327.954 38.2858L330.021 36.6464L328.354 34.5436ZM325.809 31.7738L327.675 29.8442L325.794 28.0258L323.928 29.8599L325.809 31.7738ZM323.909 33.6418L322.028 31.7279L320.161 33.5626L321.949 35.4746L323.909 33.6418ZM327.13 37.8608L324.814 39.2167L326.548 42.1795L329.005 39.7814L327.13 37.8608ZM328.483 36.5404L330.77 35.1367L329.012 32.2724L326.608 34.6199L328.483 36.5404ZM329.352 37.9575L327.065 39.3612L328.791 42.1742L331.193 39.9108L329.352 37.9575ZM333.442 32.3857H336.126L331.042 31.1855L333.442 32.3857ZM333.442 38.8592H330.758V41.5431H333.442V38.8592ZM336.277 38.8592V41.5431H338.96V38.8592H336.277ZM336.277 29.2939V26.6101H333.593V29.2939H336.277ZM337.919 29.2939H340.603V26.6101H337.919V29.2939ZM337.919 38.8592H335.235V41.5431H337.919V38.8592ZM340.818 38.8592V41.5431H343.501V38.8592H340.818ZM340.818 32.3857L343.218 31.1855L338.134 32.3857H340.818ZM344.747 37.7964L342.831 39.6757L344.939 41.825L346.833 39.4851L344.747 37.7964ZM346.937 35.0911L349.023 36.7798L350.87 34.4979L348.432 32.8623L346.937 35.0911ZM341.333 29.2939V26.6101H336.785L338.983 30.5914L341.333 29.2939ZM337.919 17.2487V19.9326H340.603V17.2487H337.919ZM336.277 17.2487H333.593V19.9326H336.277V17.2487ZM336.277 15.4774V12.7935H333.593V15.4774H336.277ZM337.919 15.4774H340.603V12.7935H337.919V15.4774ZM336.277 19.8252V17.1414H333.593V19.8252H336.277ZM337.919 19.8252H340.603V17.1414H337.919V19.8252ZM337.919 21.8864V24.5703H340.603V21.8864H337.919ZM336.277 21.8864H333.593V24.5703H336.277V21.8864ZM340.818 19.8252V17.1414H338.134V19.8252H340.818ZM342.299 19.8252H344.983V17.1414H342.299V19.8252ZM342.299 21.8864V24.5703H344.983V21.8864H342.299ZM340.818 21.8864H338.134V24.5703H340.818V21.8864ZM336.277 24.5274V21.8435H333.593V24.5274H336.277ZM337.919 24.5274H340.603V21.8435H337.919V24.5274ZM337.919 26.7174V29.4013H340.603V26.7174H337.919ZM336.277 26.7174H333.593V29.4013H336.277V26.7174ZM340.818 24.5274V21.8435H338.134V24.5274H340.818ZM342.299 24.5274H344.983V21.8435H342.299V24.5274ZM342.299 26.7174V29.4013H344.983V26.7174H342.299ZM340.818 26.7174H338.134V29.4013H340.818V26.7174ZM328.708 10.3887H331.392V7.70487H328.708V10.3887ZM317.951 10.3887V7.70487H315.267V10.3887H317.951ZM317.951 31.0009H315.267V33.6847H317.951V31.0009ZM320.914 31.0009V33.6847H323.598V31.0009H320.914ZM320.914 13.4806V10.7967H318.23V13.4806H320.914ZM325.809 13.4806H328.493V10.7967H325.809V13.4806ZM325.809 30.4534H323.126V33.1372H325.809V30.4534ZM328.708 30.4534V33.1372H331.392V30.4534H328.708ZM322.073 15.1875V12.5036H319.39V15.1875H322.073ZM322.073 25.6868L324.756 25.7804L324.757 25.7336V25.6868H322.073ZM320.882 32.418L323.33 33.5172L323.35 33.4742L323.367 33.4306L320.882 32.418ZM316.759 36.4116L315.485 34.0497L312.951 35.4172L314.493 37.8489L316.759 36.4116ZM318.434 39.0525L316.168 40.4898L317.474 42.5495L319.649 41.4458L318.434 39.0525ZM323.072 34.3825L325.51 35.5048L325.514 35.4958L323.072 34.3825ZM324.714 25.6868L327.397 25.7587L327.398 25.7227V25.6868H324.714ZM324.714 15.1875H327.398V12.5036H324.714V15.1875ZM347.753 29.2939V24.5274H342.385V29.2939H347.753ZM345.069 27.2112H346.711V21.8435H345.069V27.2112ZM349.395 24.5274V21.8864H344.028V24.5274H349.395ZM346.711 19.2026H345.069V24.5703H346.711V19.2026ZM347.753 21.8864V17.2487H342.385V21.8864H347.753ZM345.069 14.5648H340.818V19.9326H345.069V14.5648ZM343.501 17.2487V15.4774H338.134V17.2487H343.501ZM340.818 18.1612H345.906V12.7935H340.818V18.1612ZM348.59 15.4774V12.5466H343.222V15.4774H348.59ZM345.906 9.8627H341.816V15.2304H345.906V9.8627ZM344.279 13.6137C344.78 12.4576 345.146 11.2324 345.427 10.0373L340.202 8.80784C339.968 9.80268 339.69 10.7032 339.353 11.4795L344.279 13.6137ZM343.183 6.7641L339.93 6.31321L339.193 11.6301L342.446 12.081L343.183 6.7641ZM336.922 8.48544C336.723 9.56606 336.444 10.5922 336.062 11.5738L341.065 13.5193C341.585 12.1821 341.949 10.8249 342.201 9.45787L336.922 8.48544ZM338.563 9.8627H336.244V15.2304H338.563V9.8627ZM338.848 11.8956C338.505 10.5253 338.125 9.27641 337.704 8.11888L332.659 9.95327C333.011 10.9214 333.339 11.9913 333.641 13.1975L338.848 11.8956ZM334.719 6.39227L331.402 6.97198L332.326 12.2596L335.644 11.6799L334.719 6.39227ZM329.464 10.8161C329.893 11.6744 330.293 12.5378 330.63 13.4638L335.675 11.6294C335.239 10.4297 334.737 9.3607 334.265 8.41552L329.464 10.8161ZM333.152 9.8627H329.61V15.2304H333.152V9.8627ZM326.926 12.5466V15.4774H332.294V12.5466H326.926ZM329.61 18.1612H333.442V12.7935H329.61V18.1612ZM330.758 15.4774V17.2487H336.126V15.4774H330.758ZM333.442 14.5648H330.479V19.9326H333.442V14.5648ZM327.795 17.2487V19.8252H333.163V17.2487H327.795ZM330.479 22.5091H333.442V17.1414H330.479V22.5091ZM330.758 19.8252V21.8864H336.126V19.8252H330.758ZM333.442 19.2026H329.513V24.5703H333.442V19.2026ZM326.829 21.8864V24.5274H332.197V21.8864H326.829ZM329.513 27.2112H333.442V21.8435H329.513V27.2112ZM330.758 24.5274V26.7174H336.126V24.5274H330.758ZM333.442 24.0335H330.254V29.4013H333.442V24.0335ZM327.57 26.7174V29.2939H332.938V26.7174H327.57ZM330.254 31.9778H332.702V26.6101H330.254V31.9778ZM330.309 28.0785C329.465 29.7394 328.273 31.1824 326.686 32.4408L330.021 36.6464C332.171 34.9417 333.877 32.9065 335.094 30.5094L330.309 28.0785ZM330.428 32.84C329.634 31.8735 328.727 30.8615 327.675 29.8442L323.944 33.7035C324.824 34.5542 325.592 35.4101 326.28 36.2471L330.428 32.84ZM323.928 29.8599L322.028 31.7279L325.791 35.5557L327.691 33.6878L323.928 29.8599ZM321.949 35.4746C323.221 36.836 324.157 38.0954 324.814 39.2167L329.446 36.505C328.557 34.9854 327.367 33.4106 325.87 31.809L321.949 35.4746ZM329.005 39.7814L330.357 38.4609L326.608 34.6199L325.255 35.9403L329.005 39.7814ZM326.195 37.9441L327.065 39.3612L331.64 36.5538L330.77 35.1367L326.195 37.9441ZM331.193 39.9108C333.117 38.0976 334.652 35.9678 335.843 33.586L331.042 31.1855C330.107 33.0549 328.937 34.6611 327.512 36.0042L331.193 39.9108ZM330.758 32.3857V38.8592H336.126V32.3857H330.758ZM333.442 41.5431H336.277V36.1754H333.442V41.5431ZM338.96 38.8592V29.2939H333.593V38.8592H338.96ZM336.277 31.9778H337.919V26.6101H336.277V31.9778ZM335.235 29.2939V38.8592H340.603V29.2939H335.235ZM337.919 41.5431H340.818V36.1754H337.919V41.5431ZM343.501 38.8592V32.3857H338.134V38.8592H343.501ZM338.417 33.586C339.523 35.7981 341.017 37.8263 342.831 39.6757L346.663 35.9172C345.192 34.4171 344.044 32.8382 343.218 31.1855L338.417 33.586ZM346.833 39.4851L349.023 36.7798L344.851 33.4024L342.661 36.1077L346.833 39.4851ZM348.432 32.8623C346.158 31.3367 344.623 29.7004 343.682 27.9965L338.983 30.5914C340.426 33.2032 342.627 35.4316 345.442 37.3199L348.432 32.8623ZM341.333 31.9778H345.069V26.6101H341.333V31.9778ZM337.919 14.5648H336.277V19.9326H337.919V14.5648ZM338.96 17.2487V15.4774H333.593V17.2487H338.96ZM336.277 18.1612H337.919V12.7935H336.277V18.1612ZM335.235 15.4774V17.2487H340.603V15.4774H335.235ZM336.277 22.5091H337.919V17.1414H336.277V22.5091ZM335.235 19.8252V21.8864H340.603V19.8252H335.235ZM337.919 19.2026H336.277V24.5703H337.919V19.2026ZM338.96 21.8864V19.8252H333.593V21.8864H338.96ZM340.818 22.5091H342.299V17.1414H340.818V22.5091ZM339.615 19.8252V21.8864H344.983V19.8252H339.615ZM342.299 19.2026H340.818V24.5703H342.299V19.2026ZM343.501 21.8864V19.8252H338.134V21.8864H343.501ZM336.277 27.2112H337.919V21.8435H336.277V27.2112ZM335.235 24.5274V26.7174H340.603V24.5274H335.235ZM337.919 24.0335H336.277V29.4013H337.919V24.0335ZM338.96 26.7174V24.5274H333.593V26.7174H338.96ZM340.818 27.2112H342.299V21.8435H340.818V27.2112ZM339.615 24.5274V26.7174H344.983V24.5274H339.615ZM342.299 24.0335H340.818V29.4013H342.299V24.0335ZM343.501 26.7174V24.5274H338.134V26.7174H343.501ZM328.708 7.70487H317.951V13.0726H328.708V7.70487ZM315.267 10.3887V31.0009H320.635V10.3887H315.267ZM317.951 33.6847H320.914V28.317H317.951V33.6847ZM323.598 31.0009V13.4806H318.23V31.0009H323.598ZM320.914 16.1644H325.809V10.7967H320.914V16.1644ZM323.126 13.4806V30.4534H328.493V13.4806H323.126ZM325.809 33.1372H328.708V27.7695H325.809V33.1372ZM331.392 30.4534V10.3887H326.024V30.4534H331.392ZM319.39 15.1875V25.6868H324.757V15.1875H319.39ZM319.391 25.5932C319.301 28.1932 318.941 30.0686 318.396 31.4053L323.367 33.4306C324.24 31.2891 324.653 28.7199 324.756 25.7804L319.391 25.5932ZM318.433 31.3187C318.044 32.1862 317.189 33.1298 315.485 34.0497L318.034 38.7734C320.388 37.5033 322.303 35.8059 323.33 33.5172L318.433 31.3187ZM314.493 37.8489L316.168 40.4898L320.701 37.6152L319.026 34.9742L314.493 37.8489ZM319.649 41.4458C322.289 40.106 324.297 38.1387 325.51 35.5048L320.634 33.2603C319.978 34.6844 318.895 35.8089 317.22 36.6591L319.649 41.4458ZM325.514 35.4958C326.717 32.857 327.295 29.5628 327.397 25.7587L322.031 25.6149C321.94 29.0251 321.424 31.528 320.63 33.2693L325.514 35.4958ZM327.398 25.6868V15.1875H322.031V25.6868H327.398ZM324.714 12.5036H322.073V17.8714H324.714V12.5036ZM350.96 10.5176V7.8337H348.276V10.5176H350.96ZM350.96 13.8026H348.276V16.4865H350.96V13.8026ZM364.616 13.8026L367.005 15.0251L369.004 11.1188H364.616V13.8026ZM349.93 27.9735L348.61 25.6366L345.935 27.1473L347.791 29.595L349.93 27.9735ZM352.152 30.9043L350.013 32.5258L351.471 34.4486L353.538 33.2027L352.152 30.9043ZM363.134 22.0153H365.818V14.9755L361.132 20.2286L363.134 22.0153ZM363.134 38.9881H360.45V41.6719H363.134V38.9881ZM366.613 38.9881V41.6719H369.296V38.9881H366.613ZM366.613 17.2809L364.311 15.9001L363.929 16.5375V17.2809H366.613ZM368.448 13.8026V11.1188H366.728L366.01 12.6821L368.448 13.8026ZM378.787 13.8026V16.4865H381.471V13.8026H378.787ZM378.787 10.5176H381.471V7.8337H378.787V10.5176ZM370.671 19.3421L372.326 17.2298L370.493 15.7926L368.812 17.406L370.671 19.3421ZM368.255 21.661L366.396 19.7249L364.218 21.8164L366.551 23.7343L368.255 21.661ZM377.08 30.4212L374.945 32.0477L376.817 34.5054L378.989 32.3074L377.08 30.4212ZM379.721 27.748L381.63 29.6343L383.382 27.8603L381.742 25.9823L379.721 27.748ZM348.276 10.5176V13.8026H353.644V10.5176H348.276ZM350.96 16.4865H364.616V11.1188H350.96V16.4865ZM362.227 12.5802C359.694 17.5301 355.244 21.8897 348.61 25.6366L351.25 30.3103C358.529 26.1989 363.869 21.1542 367.005 15.0251L362.227 12.5802ZM347.791 29.595L350.013 32.5258L354.291 29.2827L352.068 26.3519L347.791 29.595ZM353.538 33.2027C358.108 30.4471 361.999 27.3196 365.137 23.802L361.132 20.2286C358.408 23.2811 354.956 26.0796 350.766 28.6058L353.538 33.2027ZM360.45 22.0153V38.9881H365.818V22.0153H360.45ZM363.134 41.6719H366.613V36.3042H363.134V41.6719ZM369.296 38.9881V17.2809H363.929V38.9881H369.296ZM368.914 18.6618C369.641 17.4505 370.299 16.2042 370.887 14.9231L366.01 12.6821C365.503 13.7843 364.937 14.8568 364.311 15.9001L368.914 18.6618ZM368.448 16.4865H378.787V11.1188H368.448V16.4865ZM381.471 13.8026V10.5176H376.103V13.8026H381.471ZM378.787 7.8337H350.96V13.2014H378.787V7.8337ZM368.812 17.406L366.396 19.7249L370.114 23.5971L372.529 21.2782L368.812 17.406ZM366.551 23.7343C370.26 26.7832 373.054 29.5659 374.945 32.0477L379.215 28.7946C376.983 25.8658 373.851 22.7868 369.959 19.5877L366.551 23.7343ZM378.989 32.3074L381.63 29.6343L377.811 25.8618L375.17 28.5349L378.989 32.3074ZM381.742 25.9823C379.16 23.0263 376.002 20.1105 372.326 17.2298L369.015 21.4545C372.489 24.1777 375.386 26.8659 377.699 29.5137L381.742 25.9823ZM395.274 10.1955H397.958V7.51163H395.274V10.1955ZM384.098 10.1955V7.51163H381.414V10.1955H384.098ZM384.098 31.3874H381.414V34.0712H384.098V31.3874ZM387.029 31.3874V34.0712H389.713V31.3874H387.029ZM387.029 13.1907V10.5068H384.345V13.1907H387.029ZM392.44 13.1907H395.124V10.5068H392.44V13.1907ZM392.44 30.9365H389.756V33.6203H392.44V30.9365ZM395.274 30.9365V33.6203H397.958V30.9365H395.274ZM388.478 15.1553V12.4714H385.795V15.1553H388.478ZM388.478 25.6868L391.161 25.7804L391.162 25.7336V25.6868H388.478ZM387.222 32.4502L389.642 33.6116L389.668 33.5573L389.692 33.5019L387.222 32.4502ZM382.778 36.476L381.578 34.0754L378.912 35.4084L380.516 37.9204L382.778 36.476ZM384.485 39.1491L382.223 40.5935L383.531 42.6423L385.699 41.5427L384.485 39.1491ZM389.316 34.447L391.716 35.6472L391.731 35.6187L391.744 35.5897L389.316 34.447ZM390.99 25.6868L393.673 25.7574L393.674 25.7221V25.6868H390.99ZM390.99 15.1553H393.674V12.4714H390.99V15.1553ZM392.279 31.5806L394.122 29.6294L392.241 27.8532L390.397 29.6672L392.279 31.5806ZM390.314 33.513L388.432 31.5996L386.553 33.4475L388.367 35.3597L390.314 33.513ZM394.404 38.7304L392.103 40.1113L393.872 43.0588L396.302 40.6282L394.404 38.7304ZM396.659 36.476L398.557 38.3738L400.192 36.7385L398.816 34.8795L396.659 36.476ZM396.562 11.9669V9.28299H393.878V11.9669H396.562ZM396.562 15.1231H393.878V17.807H396.562V15.1231ZM411.86 15.1231V17.807H414.544V15.1231H411.86ZM411.86 11.9669H414.544V9.28299H411.86V11.9669ZM405.87 11.9669L403.295 12.7242L403.862 14.6507H405.87V11.9669ZM404.839 8.93945L407.337 7.95809L406.537 5.92179L404.382 6.2949L404.839 8.93945ZM401.49 9.51917L401.032 6.87462L397.41 7.50153L399.11 10.7606L401.49 9.51917ZM402.553 11.9669V14.6507H406.361L405.08 11.0642L402.553 11.9669ZM396.079 20.727V18.0431H393.395V20.727H396.079ZM396.079 23.9477H393.395V26.6315H396.079V23.9477ZM412.601 23.9477V26.6315H415.285V23.9477H412.601ZM412.601 20.727H415.285V18.0431H412.601V20.727ZM409.123 20.727L406.697 19.5781L404.882 23.4109H409.123V20.727ZM410.797 16.7012L413.332 17.5829L414.207 15.0689L411.7 14.1737L410.797 16.7012ZM407.641 15.574L408.544 13.0465L405.847 12.0834L405.061 14.8367L407.641 15.574ZM405.838 20.727V23.4109H407.635L408.319 21.7489L405.838 20.727ZM403.1 20.727L400.515 21.4475L401.062 23.4109H403.1V20.727ZM401.264 15.6384L403.687 14.4824L402.613 12.2329L400.29 13.1375L401.264 15.6384ZM398.205 16.83L397.231 14.3291L394.488 15.3974L395.804 18.0303L398.205 16.83ZM399.815 20.727V23.4109H403.539L402.361 19.8783L399.815 20.727ZM410.926 26.1055H413.61V23.4216H410.926V26.1055ZM397.818 26.1055V23.4216H395.134V26.1055H397.818ZM397.818 38.7948H395.134V41.4787H397.818V38.7948ZM400.975 38.7948V41.4787H403.658V38.7948H400.975ZM400.975 37.2811V34.5973H398.291V37.2811H400.975ZM407.802 37.2811H410.486V34.5973H407.802V37.2811ZM407.802 38.7948H405.118V41.4787H407.802V38.7948ZM410.926 38.7948V41.4787H413.61V38.7948H410.926ZM400.975 34.1249H398.291V36.8088H400.975V34.1249ZM400.975 29.2617V26.5779H398.291V29.2617H400.975ZM407.802 29.2617H410.486V26.5779H407.802V29.2617ZM407.802 34.1249V36.8088H410.486V34.1249H407.802ZM395.274 7.51163H384.098V12.8794H395.274V7.51163ZM381.414 10.1955V31.3874H386.782V10.1955H381.414ZM384.098 34.0712H387.029V28.7035H384.098V34.0712ZM389.713 31.3874V13.1907H384.345V31.3874H389.713ZM387.029 15.8746H392.44V10.5068H387.029V15.8746ZM389.756 13.1907V30.9365H395.124V13.1907H389.756ZM392.44 33.6203H395.274V28.2526H392.44V33.6203ZM397.958 30.9365V10.1955H392.59V30.9365H397.958ZM385.795 15.1553V25.6868H391.162V15.1553H385.795ZM385.796 25.5932C385.706 28.1731 385.319 30.0694 384.753 31.3985L389.692 33.5019C390.607 31.3526 391.057 28.74 391.161 25.7804L385.796 25.5932ZM384.803 31.2888C384.376 32.1772 383.453 33.1375 381.578 34.0754L383.978 38.8765C386.482 37.6244 388.522 35.9438 389.642 33.6116L384.803 31.2888ZM380.516 37.9204L382.223 40.5935L386.747 37.7047L385.04 35.0315L380.516 37.9204ZM385.699 41.5427C388.381 40.1823 390.435 38.2099 391.716 35.6472L386.915 33.2467C386.2 34.6777 385.033 35.8615 383.271 36.7556L385.699 41.5427ZM391.744 35.5897C392.995 32.9316 393.572 29.6192 393.673 25.7574L388.308 25.6162C388.216 29.0974 387.698 31.5822 386.887 33.3042L391.744 35.5897ZM393.674 25.6868V15.1553H388.307V25.6868H393.674ZM390.99 12.4714H388.478V17.8392H390.99V12.4714ZM390.397 29.6672L388.432 31.5996L392.196 35.4264L394.161 33.494L390.397 29.6672ZM388.367 35.3597C390.041 37.1255 391.262 38.7099 392.103 40.1113L396.706 37.3496C395.614 35.5303 394.13 33.6364 392.262 31.6662L388.367 35.3597ZM396.302 40.6282L398.557 38.3738L394.761 34.5782L392.507 36.8326L396.302 40.6282ZM398.816 34.8795C397.525 33.1343 395.969 31.374 394.122 29.6294L390.436 33.5318C392.067 35.0722 393.41 36.597 394.501 38.0724L398.816 34.8795ZM393.878 11.9669V15.1231H399.246V11.9669H393.878ZM396.562 17.807H411.86V12.4392H396.562V17.807ZM414.544 15.1231V11.9669H409.176V15.1231H414.544ZM411.86 9.28299H405.87V14.6507H411.86V9.28299ZM408.445 11.2096C408.102 10.0433 407.722 8.93771 407.337 7.95809L402.341 9.92081C402.665 10.7448 402.994 11.7003 403.295 12.7242L408.445 11.2096ZM404.382 6.2949L401.032 6.87462L401.948 12.1637L405.297 11.584L404.382 6.2949ZM399.11 10.7606C399.438 11.3885 399.743 12.0802 400.025 12.8695L405.08 11.0642C404.718 10.05 404.315 9.13132 403.869 8.2777L399.11 10.7606ZM402.553 9.28299H396.562V14.6507H402.553V9.28299ZM393.395 20.727V23.9477H398.763V20.727H393.395ZM396.079 26.6315H412.601V21.2638H396.079V26.6315ZM415.285 23.9477V20.727H409.917V23.9477H415.285ZM412.601 18.0431H409.123V23.4109H412.601V18.0431ZM411.548 21.8759C412.152 20.6024 412.774 19.1875 413.332 17.5829L408.263 15.8195C407.79 17.1779 407.253 18.4039 406.697 19.5781L411.548 21.8759ZM411.7 14.1737L408.544 13.0465L406.739 18.1015L409.895 19.2287L411.7 14.1737ZM405.061 14.8367C404.577 16.53 404 18.1414 403.356 19.7051L408.319 21.7489C409.028 20.0275 409.675 18.2251 410.222 16.3113L405.061 14.8367ZM405.838 18.0431H403.1V23.4109H405.838V18.0431ZM405.685 20.0065C405.11 17.9399 404.448 16.0781 403.687 14.4824L398.842 16.7944C399.433 18.0328 399.996 19.5849 400.515 21.4475L405.685 20.0065ZM400.29 13.1375L397.231 14.3291L399.179 19.3309L402.238 18.1393L400.29 13.1375ZM395.804 18.0303C396.358 19.1388 396.858 20.3417 397.269 21.5757L402.361 19.8783C401.871 18.407 401.275 16.9689 400.605 15.6298L395.804 18.0303ZM399.815 18.0431H396.079V23.4109H399.815V18.0431ZM410.926 23.4216H397.818V28.7894H410.926V23.4216ZM395.134 26.1055V38.7948H400.502V26.1055H395.134ZM397.818 41.4787H400.975V36.111H397.818V41.4787ZM403.658 38.7948V37.2811H398.291V38.7948H403.658ZM400.975 39.965H407.802V34.5973H400.975V39.965ZM405.118 37.2811V38.7948H410.486V37.2811H405.118ZM407.802 41.4787H410.926V36.111H407.802V41.4787ZM413.61 38.7948V26.1055H408.242V38.7948H413.61ZM403.658 34.1249V29.2617H398.291V34.1249H403.658ZM400.975 31.9456H407.802V26.5779H400.975V31.9456ZM405.118 29.2617V34.1249H410.486V29.2617H405.118ZM407.802 31.441H400.975V36.8088H407.802V31.441Z" fill="url(#paint1_linear)"/>
<path d="M220.931 12.2567V15.4452H225.375V18.3759H228.499V15.4452H233.62V18.5048H236.905V15.4452H242.122V18.3759H245.279V15.4452H249.852V12.2567H245.279V9.32593H242.122V12.2567H236.905V9.1971H233.62V12.2567H228.499V9.32593H225.375V12.2567H220.931ZM249.143 19.9541H221.607V26.6208H224.892V23.1103H233.652V25.6546H225.568V36.7658H228.853V28.7786H233.652V38.827H237.002V28.7786H241.929V32.579C241.929 33.2875 241.672 33.674 241.188 33.674L238.515 33.513L239.385 36.7336H242.251C244.216 36.7336 245.214 35.5742 245.214 33.2875V25.6546H237.002V23.1103H245.858V26.4598H249.143V19.9541ZM257.128 22.3051V38.9237H260.478V17.5386C261.83 15.2841 262.925 12.9008 263.763 10.3887L260.639 8.90724C259.028 13.8348 256.581 18.1183 253.264 21.7576L254.391 25.3647C255.357 24.3663 256.259 23.3357 257.128 22.3051ZM279.19 21.9509L276.227 22.9493C277.676 26.5242 278.996 30.6466 280.156 35.2843L283.119 33.9639C282.024 29.7126 280.703 25.6868 279.19 21.9509ZM267.692 15.9283H278.835C278.385 17.3453 277.869 18.6014 277.225 19.6964L280.446 20.6304C281.187 18.7302 281.798 16.83 282.282 14.8976V12.7076H268.851C269.141 11.7736 269.431 10.8074 269.689 9.84123L266.533 9.1649C265.566 13.1907 263.892 16.9911 261.508 20.566L264.407 22.3695C265.631 20.4372 266.726 18.2793 267.692 15.9283ZM271.267 38.6982C273.457 38.6982 274.552 37.571 274.552 35.3487V18.1505H271.299V34.5436C271.299 35.3487 270.913 35.7674 270.14 35.7674C268.98 35.7674 267.724 35.6708 266.436 35.542L267.177 38.6982H271.267ZM266.017 22.3051C264.729 26.8784 263.248 30.6466 261.573 33.6096L264.729 34.7368C266.468 31.4196 267.917 27.5548 269.045 23.1425L266.017 22.3051ZM287.819 14.5112C288.978 14.3823 290.073 14.2213 291.168 14.0925V17.5708H286.885V20.8236H290.846C289.88 23.9155 288.398 26.653 286.369 29.1007L287.851 32.7722C289.139 30.7432 290.266 28.521 291.168 26.1377V38.7948H294.421V25.3325C295.065 26.3631 295.806 27.6192 296.675 29.1329L298.543 26.2987C297.126 24.7528 295.774 23.3357 294.421 22.0797V20.8236H297.867V17.5708H294.421V13.5128C295.677 13.2229 296.869 12.9008 298.028 12.5788L296.804 9.45475C293.97 10.4209 290.749 11.0329 287.142 11.3227L287.819 14.5112ZM314.26 28.6176V16.9589H310.138C310.911 15.9605 311.684 14.801 312.457 13.4806V11.0651H305.629C305.886 10.5498 306.112 10.0023 306.305 9.42255L302.988 9.00386C301.957 11.8058 299.993 14.1569 297.094 16.0893L299.026 18.5692C299.155 18.4726 299.316 18.3759 299.477 18.2471V19.8574H311.007V21.4033H299.574V24.1731H311.007V25.7834H299.284V28.6176H314.26ZM303.922 13.9315H308.753C307.98 15.0909 307.239 16.0893 306.531 16.9589H301.12C302.183 16.0249 303.117 15.0265 303.922 13.9315ZM313.809 29.5194L310.975 30.4212C312.07 32.3213 313.069 34.5114 313.97 36.9913L316.708 35.7674C315.87 33.5452 314.904 31.4518 313.809 29.5194ZM298.415 30.0347C297.996 32.0315 297.287 33.8995 296.289 35.6708L298.962 37.3777C299.928 35.4776 300.701 33.2231 301.249 30.6144L298.415 30.0347ZM309.204 38.6338C310.234 38.6338 310.975 38.4406 311.49 38.0541C312.006 37.6354 312.392 36.3471 312.618 34.1571L309.751 33.2231C309.687 34.447 309.558 35.1555 309.397 35.3809C309.204 35.6064 308.978 35.7352 308.688 35.7352H305.983C305.275 35.7352 304.92 35.2521 304.92 34.3503V29.777H301.893V34.9623C301.893 37.41 302.923 38.6338 305.017 38.6338H309.204ZM307.593 29.0041L305.178 30.5178C306.273 31.9027 307.11 33.1587 307.754 34.2537L310.17 32.579C309.59 31.5484 308.721 30.3567 307.593 29.0041ZM347.752 29.2939V24.5274H349.395V21.8864H347.752V17.2487H343.501V15.4774H348.59V12.5466H344.5C344.918 11.5804 345.24 10.5176 345.498 9.42255L342.245 8.97166C342.02 10.1955 341.698 11.3871 341.247 12.5466H338.928C338.606 11.2583 338.252 10.0989 337.865 9.03607L334.548 9.61579C334.999 10.5176 335.45 11.4838 335.836 12.5466H332.293V15.4774H336.126V17.2487H333.163V19.8252H336.126V21.8864H332.197V24.5274H336.126V26.7174H332.937V29.2939H335.385C334.355 31.3229 332.905 33.0621 331.037 34.5436C330.297 33.6418 329.459 32.7078 328.493 31.7738L326.593 33.6418C327.978 35.1233 329.041 36.5404 329.813 37.8608L331.166 36.5404L332.036 37.9575C333.71 36.3793 335.063 34.5114 336.126 32.3857V38.8592H338.96V29.2939H340.603V38.8592H343.501V32.3857C344.467 34.3181 345.788 36.1217 347.43 37.7964L349.62 35.0911C347.076 33.3841 345.208 31.4518 344.017 29.2939H347.752ZM340.603 17.2487H338.96V15.4774H340.603V17.2487ZM338.96 19.8252H340.603V21.8864H338.96V19.8252ZM343.501 19.8252H344.983V21.8864H343.501V19.8252ZM338.96 24.5274H340.603V26.7174H338.96V24.5274ZM343.501 24.5274H344.983V26.7174H343.501V24.5274ZM331.392 10.3887H320.635V31.0009H323.598V13.4806H328.493V30.4534H331.392V10.3887ZM324.757 15.1875V25.6868C324.66 28.4566 324.274 30.6788 323.565 32.418C322.857 33.9961 321.472 35.3165 319.443 36.4116L321.118 39.0525C323.276 37.9575 324.821 36.4116 325.755 34.3825C326.754 32.1925 327.301 29.2939 327.398 25.6868V15.1875H324.757ZM353.644 10.5176V13.8026H367.299C364.465 19.3421 359.57 24.0443 352.613 27.9735L354.836 30.9043C359.216 28.2633 362.887 25.3003 365.818 22.0153V38.9881H369.296V17.2809C369.973 16.1537 370.584 14.9943 371.132 13.8026H381.47V10.5176H353.644ZM373.354 19.3421L370.939 21.661C374.739 24.785 377.702 27.7158 379.763 30.4212L382.404 27.748C379.957 24.9461 376.929 22.1441 373.354 19.3421ZM397.958 10.1955H386.782V31.3873H389.713V13.1907H395.123V30.9365H397.958V10.1955ZM391.162 15.1553V25.6868C391.065 28.4566 390.647 30.711 389.906 32.4502C389.133 34.0605 387.651 35.3809 385.461 36.476L387.168 39.1491C389.391 38.0219 391.001 36.4438 391.999 34.447C393.03 32.2569 393.577 29.3583 393.674 25.6868V15.1553H391.162ZM394.962 31.5806L392.998 33.513C394.769 35.3809 396.122 37.1201 397.088 38.7304L399.342 36.476C398.151 34.8656 396.701 33.2231 394.962 31.5806ZM399.246 11.9669V15.1231H414.544V11.9669H408.553C408.231 10.8718 407.877 9.84123 407.523 8.93945L404.173 9.51917C404.56 10.2599 404.914 11.0651 405.236 11.9669H399.246ZM398.763 20.727V23.9477H415.285V20.727H411.806C412.386 19.5032 412.966 18.1827 413.481 16.7012L410.325 15.574C409.81 17.3775 409.198 19.0845 408.521 20.727H405.784C405.236 18.7624 404.624 17.0555 403.948 15.6384L400.888 16.83C401.5 18.0539 402.048 19.3743 402.499 20.727H398.763ZM413.61 26.1055H400.502V38.7948H403.658V37.2811H410.486V38.7948H413.61V26.1055ZM403.658 34.1249V29.2617H410.486V34.1249H403.658Z" fill="white"/>
<path d="M22.8469 10.0273V13.6988H14.8275V23.8761C14.6987 29.4156 13.3782 33.9889 10.8017 37.6604L13.4104 39.9149C16.1802 35.8569 17.6617 31.0259 17.9193 25.422H19.0788C19.8195 28.2562 21.2688 30.8327 23.4266 33.216C21.3976 34.9551 18.8533 36.4044 15.7615 37.4994L17.9193 40.1081C21.0112 38.8843 23.6199 37.3062 25.7777 35.406C27.7745 37.0807 30.2544 38.5944 33.2174 39.9471L35.0532 36.9519C32.2834 35.8247 29.9001 34.5364 27.9677 33.1193C29.8035 30.8649 31.0918 28.224 31.8647 25.1643V22.3302H26.1642V16.7907H30.3832C29.9968 18.0145 29.5137 19.1095 28.9661 20.0757L32.1224 20.9453C32.9597 19.0773 33.5717 17.1771 33.9581 15.3092V13.6988H26.1642V10.0273H22.8469ZM22.8469 16.7907V22.3302H17.9515V16.7907H22.8469ZM25.5523 30.9937C23.9419 29.319 22.8147 27.4832 22.1706 25.422H28.4831C27.8389 27.4832 26.8727 29.319 25.5523 30.9937ZM8.12857 10.3494L5.7453 12.636C8.12857 14.2786 9.99655 15.8245 11.2848 17.2738L13.6037 14.9549C12.09 13.409 10.2542 11.8953 8.12857 10.3494ZM7.2912 18.0467L4.94013 20.3334C7.2912 22.0081 9.12697 23.554 10.4152 25.0355L12.7019 22.7489C11.2204 21.1707 9.41683 19.5926 7.2912 18.0467ZM9.89993 26.7425C8.61167 30.6072 7.06576 34.4076 5.2944 38.1113L8.45064 39.4962C10.061 35.8891 11.5103 32.0243 12.7985 27.9019L9.89993 26.7425ZM54.1814 23.9083C53.1508 26.678 51.5083 28.9325 49.2216 30.7039L51.3472 33.3126C54.1814 31.0259 56.1782 27.9019 57.3376 23.9083H59.0446C58.4005 26.9357 57.4021 29.3834 56.0816 31.2514C54.5357 33.2482 52.2812 35.0517 49.3182 36.662L51.4117 39.3352C54.7611 37.4028 57.2732 35.2128 58.948 32.7651C60.3651 30.6072 61.4923 27.6442 62.2652 23.9083H63.6823C63.4891 30.3818 63.1992 34.0211 62.8127 34.7941C62.3941 35.7603 61.6533 36.2756 60.6227 36.3078C59.4633 36.3078 58.2716 36.2434 57.08 36.1145L58.014 39.3352C59.0124 39.3996 60.043 39.464 61.1058 39.464C63.6823 39.3996 65.2604 38.3046 65.8402 36.1145C66.4199 33.9245 66.8386 28.8681 67.064 21.0097H55.5985C58.8836 18.9163 61.8788 16.7263 64.6163 14.4396V11.541H50.3811V14.6006H59.6243C56.6291 16.7907 53.3763 18.8841 49.898 20.8487V23.9083H54.1814ZM38.207 18.562V21.8149H41.7175V32.7651C40.4293 33.0549 39.1732 33.3126 37.8849 33.5058L38.7867 37.0807C42.3294 36.2434 45.6145 35.245 48.7063 34.0855V30.575C47.5147 31.0259 46.323 31.4446 45.1314 31.8311V21.8149H48.8029V18.562H45.1314V10.8003H41.7175V18.562H38.207ZM76.8846 19.7215H84.9362V26.7425H71.5061V30.0597H84.9362V39.6895H88.3179V30.0597H100.556V26.7425H88.3179V19.7215H98.785V16.4364H88.3179V9.93069H84.9362V16.4364H78.3983C78.978 15.0193 79.5577 13.4734 80.1052 11.8309L76.9168 11.0901C75.242 16.0499 73.2775 19.8503 71.0552 22.5234L73.3419 25.2932C74.5979 23.6828 75.7896 21.8471 76.8846 19.7215ZM111.214 16.5008H119.073V20.6554H109.54V29.7699H104.58V33.0549H119.073V39.9149H122.454V33.0549H133.211V29.7699H122.454V23.8117H131.118V20.6554H122.454V16.5008H132.245V13.248H112.825C113.179 12.3462 113.501 11.38 113.791 10.3494L110.312 9.70525C109.217 13.7311 107.06 16.9195 103.871 19.3028L106.126 22.1691C108.155 20.6232 109.862 18.7553 111.214 16.5008ZM112.921 29.7699V23.8117H119.073V29.7699H112.921ZM148.571 11.0257V13.9887H166.349V11.0257H148.571ZM150.246 15.5024V23.1353H164.61V15.5024H150.246ZM161.454 20.4944H153.402V18.1433H161.454V20.4944ZM166.027 24.8423H148.765V39.8505H151.921V38.7233H162.871V39.8505H166.027V24.8423ZM151.921 35.8247V33.0549H155.818V35.8247H151.921ZM158.974 35.8247V33.0549H162.871V35.8247H158.974ZM151.921 30.2852V27.612H155.818V30.2852H151.921ZM158.974 27.612H162.871V30.2852H158.974V27.612ZM141.196 27.7087V39.8183H144.481V27.2256C145.222 27.9019 145.963 28.7071 146.736 29.641L148.571 26.8713C147.348 25.7119 145.995 24.6812 144.513 23.7473C146.124 21.4928 147.283 19.2384 148.056 16.9195V14.0853H144.964C144.642 12.7649 144.159 11.3156 143.579 9.73745L140.423 10.6392C140.938 11.7343 141.389 12.8937 141.808 14.0853H137.75V17.306H144.707C143.322 20.4944 140.777 23.7795 137.041 27.1289L138.104 30.6716C139.199 29.7055 140.23 28.7071 141.196 27.7087ZM170.63 18.3366V21.5894H176.524V21.6538C175.075 24.8745 172.82 27.7731 169.793 30.3496L171.339 34.311C173.4 32.1209 175.107 29.7699 176.524 27.1934V39.8183H179.938V25.9373C181.033 27.1611 182.386 28.7715 183.964 30.8005L185.928 27.7731C183.899 25.7763 181.903 24.0049 179.938 22.3946V21.5894H185.639V18.3366H179.938V14.4396C181.774 13.9887 183.577 13.409 185.317 12.7649L183.674 9.99511C180.486 11.2512 176.202 12.1207 170.824 12.5716L171.854 15.6634C173.4 15.5346 174.978 15.3736 176.524 15.1159V18.3366H170.63ZM187.635 13.0225V32.7007H190.985V13.0225H187.635ZM195.107 39.5284C197.362 39.5284 198.489 38.3368 198.489 35.9857V10.1239H195.075V35.1161C195.075 36.0179 194.689 36.4688 193.948 36.4688C192.563 36.4688 191.114 36.4044 189.6 36.2756L190.309 39.5284H195.107Z" fill="url(#paint2_linear)"/>
<path d="M22.8469 10.0273V7.34344H20.1631V10.0273H22.8469ZM22.8469 13.6988V16.3827H25.5308V13.6988H22.8469ZM14.8275 13.6988V11.015H12.1436V13.6988H14.8275ZM14.8275 23.8761L17.5107 23.9385L17.5114 23.9073V23.8761H14.8275ZM10.8017 37.6604L8.60481 36.1188L7.21116 38.1047L9.04682 39.6911L10.8017 37.6604ZM13.4104 39.9149L11.6555 41.9456L13.9314 43.9124L15.6272 41.4279L13.4104 39.9149ZM17.9193 25.422V22.7381H15.356L15.2383 25.2987L17.9193 25.422ZM19.0788 25.422L21.6754 24.7433L21.1513 22.7381H19.0788V25.422ZM23.4266 33.216L25.1733 35.2537L27.2672 33.459L25.4162 31.4146L23.4266 33.216ZM15.7615 37.4994L14.8655 34.9695L11.2461 36.2514L13.6934 39.21L15.7615 37.4994ZM17.9193 40.1081L15.8513 41.8188L17.0941 43.3213L18.9071 42.6036L17.9193 40.1081ZM25.7777 35.406L27.5024 33.3496L25.7351 31.8674L24.004 33.3918L25.7777 35.406ZM33.2174 39.9471L32.1028 42.3886L34.2641 43.3753L35.5057 41.3496L33.2174 39.9471ZM35.0532 36.9519L37.3414 38.3544L38.994 35.6581L36.0649 34.466L35.0532 36.9519ZM27.9677 33.1193L25.8866 31.4247L24.1038 33.614L26.3806 35.2836L27.9677 33.1193ZM31.8647 25.1643L34.4668 25.8217L34.5486 25.4981V25.1643H31.8647ZM31.8647 22.3302H34.5486V19.6463H31.8647V22.3302ZM26.1642 22.3302H23.4803V25.014H26.1642V22.3302ZM26.1642 16.7907V14.1068H23.4803V16.7907H26.1642ZM30.3832 16.7907L32.9425 17.5989L34.0453 14.1068H30.3832V16.7907ZM28.9661 20.0757L26.6311 18.7525L24.9334 21.7485L28.2533 22.6632L28.9661 20.0757ZM32.1224 20.9453L31.4095 23.5328L33.6295 24.1444L34.5714 22.0432L32.1224 20.9453ZM33.9581 15.3092L36.5864 15.8529L36.642 15.5839V15.3092H33.9581ZM33.9581 13.6988H36.642V11.015H33.9581V13.6988ZM26.1642 13.6988H23.4803V16.3827H26.1642V13.6988ZM26.1642 10.0273H28.8481V7.34344H26.1642V10.0273ZM22.8469 16.7907H25.5308V14.1068H22.8469V16.7907ZM22.8469 22.3302V25.014H25.5308V22.3302H22.8469ZM17.9515 22.3302H15.2677V25.014H17.9515V22.3302ZM17.9515 16.7907V14.1068H15.2677V16.7907H17.9515ZM25.5523 30.9937L23.6176 32.8539L25.7526 35.0743L27.6598 32.6554L25.5523 30.9937ZM22.1706 25.422V22.7381H18.52L19.6089 26.2225L22.1706 25.422ZM28.4831 25.422L31.0448 26.2225L32.1336 22.7381H28.4831V25.422ZM8.12857 10.3494L9.70715 8.17883L7.89094 6.85795L6.27045 8.41274L8.12857 10.3494ZM5.7453 12.636L3.88717 10.6994L1.51216 12.9781L4.22227 14.8459L5.7453 12.636ZM11.2848 17.2738L9.27885 19.0568L11.1699 21.1842L13.1826 19.1715L11.2848 17.2738ZM13.6037 14.9549L15.5015 16.8527L17.3794 14.9748L15.5213 13.0772L13.6037 14.9549ZM7.2912 18.0467L8.86978 15.8762L7.04099 14.5461L5.41996 16.1228L7.2912 18.0467ZM4.94013 20.3334L3.06889 18.4094L0.762455 20.6527L3.383 22.5194L4.94013 20.3334ZM10.4152 25.0355L8.38997 26.7966L10.2782 28.9681L12.313 26.9333L10.4152 25.0355ZM12.7019 22.7489L14.5997 24.6466L16.4385 22.8078L14.6586 20.9119L12.7019 22.7489ZM9.89993 26.7425L10.8967 24.2506L8.25389 23.1934L7.35378 25.8937L9.89993 26.7425ZM5.2944 38.1113L2.87319 36.9534L1.67681 39.4549L4.21603 40.569L5.2944 38.1113ZM8.45064 39.4962L7.37226 41.9539L9.81428 43.0254L10.9014 40.5903L8.45064 39.4962ZM12.7985 27.9019L15.3602 28.7024L16.1009 26.3322L13.7953 25.41L12.7985 27.9019ZM20.1631 10.0273V13.6988H25.5308V10.0273H20.1631ZM22.8469 11.015H14.8275V16.3827H22.8469V11.015ZM12.1436 13.6988V23.8761H17.5114V13.6988H12.1436ZM12.1444 23.8137C12.0247 28.9579 10.8073 32.9802 8.60481 36.1188L12.9986 39.2021C15.9491 34.9977 17.3726 29.8733 17.5107 23.9385L12.1444 23.8137ZM9.04682 39.6911L11.6555 41.9456L15.1653 37.8843L12.5566 35.6298L9.04682 39.6911ZM15.6272 41.4279C18.7216 36.8942 20.3237 31.5623 20.6004 25.5453L15.2383 25.2987C14.9996 30.4895 13.6388 34.8196 11.1937 38.4019L15.6272 41.4279ZM17.9193 28.1059H19.0788V22.7381H17.9193V28.1059ZM16.4821 26.1007C17.3447 29.4009 19.0252 32.3534 21.4371 35.0173L25.4162 31.4146C23.5124 29.3119 22.2943 27.1114 21.6754 24.7433L16.4821 26.1007ZM21.68 31.1782C19.9362 32.6729 17.6916 33.9686 14.8655 34.9695L16.6575 40.0293C20.0151 38.8402 22.8591 37.2373 25.1733 35.2537L21.68 31.1782ZM13.6934 39.21L15.8513 41.8188L19.9874 38.3975L17.8296 35.7888L13.6934 39.21ZM18.9071 42.6036C22.2554 41.2783 25.1373 39.5461 27.5514 37.4202L24.004 33.3918C22.1024 35.0663 19.7669 36.4903 16.9315 37.6127L18.9071 42.6036ZM24.053 37.4624C26.2743 39.3253 28.9723 40.9594 32.1028 42.3886L34.332 37.5056C31.5366 36.2294 29.2747 34.8361 27.5024 33.3496L24.053 37.4624ZM35.5057 41.3496L37.3414 38.3544L32.7649 35.5494L30.9291 38.5446L35.5057 41.3496ZM36.0649 34.466C33.4505 33.402 31.2714 32.2138 29.5549 30.9551L26.3806 35.2836C28.5289 36.8591 31.1163 38.2473 34.0415 39.4378L36.0649 34.466ZM30.0489 34.814C32.1553 32.2273 33.6075 29.2234 34.4668 25.8217L29.2626 24.507C28.5761 27.2245 27.4518 29.5025 25.8866 31.4247L30.0489 34.814ZM34.5486 25.1643V22.3302H29.1809V25.1643H34.5486ZM31.8647 19.6463H26.1642V25.014H31.8647V19.6463ZM28.8481 22.3302V16.7907H23.4803V22.3302H28.8481ZM26.1642 19.4745H30.3832V14.1068H26.1642V19.4745ZM27.8239 15.9825C27.4925 17.0321 27.0836 17.954 26.6311 18.7525L31.3012 21.3989C31.9437 20.265 32.501 18.9969 32.9425 17.5989L27.8239 15.9825ZM28.2533 22.6632L31.4095 23.5328L32.8353 18.3578L29.679 17.4883L28.2533 22.6632ZM34.5714 22.0432C35.4865 20.0019 36.1595 17.9162 36.5864 15.8529L31.3299 14.7654C30.9839 16.4381 30.433 18.1528 29.6733 19.8474L34.5714 22.0432ZM36.642 15.3092V13.6988H31.2743V15.3092H36.642ZM33.9581 11.015H26.1642V16.3827H33.9581V11.015ZM28.8481 13.6988V10.0273H23.4803V13.6988H28.8481ZM26.1642 7.34344H22.8469V12.7112H26.1642V7.34344ZM20.1631 16.7907V22.3302H25.5308V16.7907H20.1631ZM22.8469 19.6463H17.9515V25.014H22.8469V19.6463ZM20.6354 22.3302V16.7907H15.2677V22.3302H20.6354ZM17.9515 19.4745H22.8469V14.1068H17.9515V19.4745ZM27.4869 29.1335C26.1323 27.7248 25.239 26.2431 24.7323 24.6215L19.6089 26.2225C20.3904 28.7233 21.7516 30.9132 23.6176 32.8539L27.4869 29.1335ZM22.1706 28.1059H28.4831V22.7381H22.1706V28.1059ZM25.9214 24.6215C25.3738 26.3737 24.5604 27.917 23.4447 29.332L27.6598 32.6554C29.1851 30.7209 30.3041 28.5927 31.0448 26.2225L25.9214 24.6215ZM6.27045 8.41274L3.88717 10.6994L7.60342 14.5727L9.98669 12.286L6.27045 8.41274ZM4.22227 14.8459C6.52146 16.4305 8.1935 17.8358 9.27885 19.0568L13.2908 15.4907C11.7996 13.8131 9.73569 12.1266 7.26832 10.4262L4.22227 14.8459ZM13.1826 19.1715L15.5015 16.8527L11.7059 13.0571L9.38702 15.376L13.1826 19.1715ZM15.5213 13.0772C13.8677 11.3884 11.9047 9.77707 9.70715 8.17883L6.54999 12.5199C8.60367 14.0135 10.3122 15.4296 11.686 16.8326L15.5213 13.0772ZM5.41996 16.1228L3.06889 18.4094L6.81138 22.2573L9.16245 19.9707L5.41996 16.1228ZM3.383 22.5194C5.66038 24.1416 7.30212 25.5456 8.38997 26.7966L12.4405 23.2744C10.9518 21.5624 8.92203 19.8746 6.49727 18.1474L3.383 22.5194ZM12.313 26.9333L14.5997 24.6466L10.8041 20.8511L8.51745 23.1377L12.313 26.9333ZM14.6586 20.9119C13.0462 19.1943 11.1118 17.5068 8.86978 15.8762L5.71263 20.2173C7.72182 21.6785 9.39459 23.1472 10.7452 24.5858L14.6586 20.9119ZM7.35378 25.8937C6.10221 29.6485 4.59861 33.3457 2.87319 36.9534L7.71562 39.2693C9.53291 35.4695 11.1211 31.566 12.4461 27.5912L7.35378 25.8937ZM4.21603 40.569L7.37226 41.9539L9.52901 37.0385L6.37278 35.6536L4.21603 40.569ZM10.9014 40.5903C12.5581 36.8792 14.0436 32.9156 15.3602 28.7024L10.2368 27.1014C8.97692 31.133 7.5638 34.899 5.99989 38.4021L10.9014 40.5903ZM13.7953 25.41L10.8967 24.2506L8.90316 29.2344L11.8017 30.3938L13.7953 25.41ZM54.1814 23.9083L56.6968 24.8443L58.0437 21.2244H54.1814V23.9083ZM49.2216 30.7039L47.578 28.5821L45.4034 30.2667L47.141 32.3992L49.2216 30.7039ZM51.3472 33.3126L49.2666 35.0079L50.9538 37.0785L53.0325 35.4014L51.3472 33.3126ZM57.3376 23.9083V21.2244H55.3221L54.7602 23.16L57.3376 23.9083ZM59.0446 23.9083L61.6697 24.4668L62.3596 21.2244H59.0446V23.9083ZM56.0816 31.2514L58.2038 32.8944L58.2395 32.8482L58.2732 32.8006L56.0816 31.2514ZM49.3182 36.662L48.0367 34.3039L45.249 35.8189L47.2052 38.3168L49.3182 36.662ZM51.4117 39.3352L49.2986 40.99L50.735 42.8241L52.7528 41.6599L51.4117 39.3352ZM58.948 32.7651L61.163 34.2806L61.1774 34.2596L61.1913 34.2383L58.948 32.7651ZM62.2652 23.9083V21.2244H60.0798L59.637 23.3645L62.2652 23.9083ZM63.6823 23.9083L66.365 23.9884L66.4475 21.2244H63.6823V23.9083ZM62.8127 34.7941L60.4122 33.5938L60.3794 33.6595L60.3501 33.7269L62.8127 34.7941ZM60.6227 36.3078V38.9916H60.6646L60.7065 38.9903L60.6227 36.3078ZM57.08 36.1145L57.3685 33.4462L53.3869 33.0158L54.5023 36.8621L57.08 36.1145ZM58.014 39.3352L55.4363 40.0827L55.9611 41.8922L57.8412 42.0135L58.014 39.3352ZM61.1058 39.464V42.1479H61.1393L61.1729 42.147L61.1058 39.464ZM65.8401 36.1145L63.2456 35.4278L65.8401 36.1145ZM67.064 21.0097L69.7468 21.0867L69.826 18.3258H67.064V21.0097ZM55.5985 21.0097L54.1562 18.7463L46.3928 23.6936H55.5985V21.0097ZM64.6163 14.4396L66.3369 16.4994L67.3002 15.6948V14.4396H64.6163ZM64.6163 11.541H67.3002V8.85715H64.6163V11.541ZM50.3811 11.541V8.85715H47.6972V11.541H50.3811ZM50.3811 14.6006H47.6972V17.2845H50.3811V14.6006ZM59.6243 14.6006L61.2084 16.7671L67.842 11.9168H59.6243V14.6006ZM49.898 20.8487L48.5781 18.5118L47.2141 19.2822V20.8487H49.898ZM49.898 23.9083H47.2141V26.5922H49.898V23.9083ZM38.207 18.562V15.8782H35.5231V18.562H38.207ZM38.207 21.8149H35.5231V24.4987H38.207V21.8149ZM41.7175 21.8149H44.4014V19.131H41.7175V21.8149ZM41.7175 32.7651L42.3067 35.3835L44.4014 34.9122V32.7651H41.7175ZM37.8849 33.5058L37.4868 30.8516L34.5583 31.2909L35.2826 34.1623L37.8849 33.5058ZM38.7867 37.0807L36.1844 37.7372L36.8311 40.3008L39.4041 39.6926L38.7867 37.0807ZM48.7063 34.0855L49.6487 36.5985L51.3902 35.9455V34.0855H48.7063ZM48.7063 30.575H51.3902V26.6899L47.7565 28.0648L48.7063 30.575ZM45.1314 31.8311H42.4475V35.523L45.9594 34.384L45.1314 31.8311ZM45.1314 21.8149V19.131H42.4475V21.8149H45.1314ZM48.8029 21.8149V24.4987H51.4868V21.8149H48.8029ZM48.8029 18.562H51.4868V15.8782H48.8029V18.562ZM45.1314 18.562H42.4475V21.2459H45.1314V18.562ZM45.1314 10.8003H47.8153V8.1164H45.1314V10.8003ZM41.7175 10.8003V8.1164H39.0336V10.8003H41.7175ZM41.7175 18.562V21.2459H44.4014V18.562H41.7175ZM51.666 22.9723C50.805 25.2863 49.4585 27.1254 47.578 28.5821L50.8652 32.8256C53.5581 30.7396 55.4966 28.0698 56.6968 24.8443L51.666 22.9723ZM47.141 32.3992L49.2666 35.0079L53.4279 31.6173L51.3022 29.0085L47.141 32.3992ZM53.0325 35.4014C56.3499 32.7248 58.6237 29.1047 59.9151 24.6566L54.7602 23.16C53.7327 26.6991 52.0129 29.327 49.662 31.2238L53.0325 35.4014ZM57.3376 26.5922H59.0446V21.2244H57.3376V26.5922ZM56.4195 23.3498C55.8284 26.1279 54.9452 28.2094 53.89 29.7021L58.2732 32.8006C59.8589 30.5573 60.9725 27.7435 61.6697 24.4668L56.4195 23.3498ZM53.9594 29.6084C52.7038 31.2302 50.7768 32.8147 48.0367 34.3039L50.5998 39.0202C53.7857 37.2887 56.3676 35.2661 58.2038 32.8944L53.9594 29.6084ZM47.2052 38.3168L49.2986 40.99L53.5247 37.6804L51.4313 35.0073L47.2052 38.3168ZM52.7528 41.6599C56.3489 39.5853 59.2032 37.1449 61.163 34.2806L56.733 31.2495C55.3433 33.2806 53.1734 35.2203 50.0705 37.0105L52.7528 41.6599ZM61.1913 34.2383C62.8542 31.7062 64.0783 28.3919 64.8934 24.4521L59.637 23.3645C58.9063 26.8966 57.8759 29.5083 56.7046 31.2918L61.1913 34.2383ZM62.2652 26.5922H63.6823V21.2244H62.2652V26.5922ZM60.9996 23.8282C60.9035 27.049 60.7843 29.5256 60.6446 31.2753C60.5745 32.1534 60.5022 32.8108 60.4317 33.2704C60.343 33.848 60.2966 33.825 60.4122 33.5938L65.2133 35.9943C65.5221 35.3767 65.6568 34.6089 65.7373 34.0844C65.8359 33.442 65.9205 32.64 65.9954 31.7024C66.1455 29.8209 66.2679 27.2411 66.365 23.9884L60.9996 23.8282ZM60.3501 33.7269C60.3256 33.7837 60.3129 33.7954 60.3247 33.7804C60.338 33.7634 60.369 33.7295 60.4195 33.6945C60.4704 33.6593 60.5187 33.6385 60.5519 33.6282C60.5829 33.6187 60.5828 33.6238 60.5389 33.6252L60.7065 38.9903C61.6616 38.9605 62.6237 38.6971 63.4749 38.1078C64.3218 37.5215 64.9029 36.7208 65.2753 35.8612L60.3501 33.7269ZM60.6227 33.6239C59.5615 33.6239 58.4662 33.5649 57.3685 33.4462L56.7915 38.7829C58.0771 38.9218 59.365 38.9916 60.6227 38.9916V33.6239ZM54.5023 36.8621L55.4363 40.0827L60.5916 38.5877L59.6577 35.367L54.5023 36.8621ZM57.8412 42.0135C58.833 42.0775 59.9449 42.1479 61.1058 42.1479V36.7801C60.1411 36.7801 59.1918 36.7217 58.1868 36.6569L57.8412 42.0135ZM61.1729 42.147C62.8094 42.1061 64.4162 41.7319 65.7669 40.7809C67.156 39.8028 68.0116 38.3997 68.4347 36.8013L63.2456 35.4278C63.089 36.0194 62.8657 36.2588 62.6767 36.3919C62.4493 36.552 61.9787 36.7575 61.0387 36.781L61.1729 42.147ZM68.4347 36.8013C69.1091 34.2535 69.5236 28.8656 69.7468 21.0867L64.3812 20.9327C64.1535 28.8705 63.7307 33.5955 63.2456 35.4278L68.4347 36.8013ZM67.064 18.3258H55.5985V23.6936H67.064V18.3258ZM57.0408 23.2731C60.4181 21.1209 63.5068 18.8634 66.3369 16.4994L62.8958 12.3798C60.2507 14.5892 57.349 16.7117 54.1562 18.7463L57.0408 23.2731ZM67.3002 14.4396V11.541H61.9324V14.4396H67.3002ZM64.6163 8.85715H50.3811V14.2249H64.6163V8.85715ZM47.6972 11.541V14.6006H53.0649V11.541H47.6972ZM50.3811 17.2845H59.6243V11.9168H50.3811V17.2845ZM58.0402 12.4341C55.134 14.5591 51.9699 16.596 48.5781 18.5118L51.2179 23.1856C54.7826 21.1721 58.1242 19.0223 61.2084 16.7671L58.0402 12.4341ZM47.2141 20.8487V23.9083H52.5818V20.8487H47.2141ZM49.898 26.5922H54.1814V21.2244H49.898V26.5922ZM35.5231 18.562V21.8149H40.8909V18.562H35.5231ZM38.207 24.4987H41.7175V19.131H38.207V24.4987ZM39.0336 21.8149V32.7651H44.4014V21.8149H39.0336ZM41.1284 30.1467C39.8696 30.4299 38.6841 30.6721 37.4868 30.8516L38.2831 36.16C39.6624 35.9531 40.989 35.68 42.3067 35.3835L41.1284 30.1467ZM35.2826 34.1623L36.1844 37.7372L41.3891 36.4243L40.4873 32.8494L35.2826 34.1623ZM39.4041 39.6926C43.0509 38.8307 46.445 37.7999 49.6487 36.5985L47.7639 31.5725C44.784 32.69 41.6079 33.6561 38.1694 34.4688L39.4041 39.6926ZM51.3902 34.0855V30.575H46.0224V34.0855H51.3902ZM47.7565 28.0648C46.6045 28.5008 45.4534 28.9051 44.3034 29.2781L45.9594 34.384C47.1927 33.9841 48.4249 33.5511 49.6561 33.0852L47.7565 28.0648ZM47.8153 31.8311V21.8149H42.4475V31.8311H47.8153ZM45.1314 24.4987H48.8029V19.131H45.1314V24.4987ZM51.4868 21.8149V18.562H46.1191V21.8149H51.4868ZM48.8029 15.8782H45.1314V21.2459H48.8029V15.8782ZM47.8153 18.562V10.8003H42.4475V18.562H47.8153ZM45.1314 8.1164H41.7175V13.4841H45.1314V8.1164ZM39.0336 10.8003V18.562H44.4014V10.8003H39.0336ZM41.7175 15.8782H38.207V21.2459H41.7175V15.8782ZM76.8846 19.7215V17.0376H75.2481L74.4987 18.4924L76.8846 19.7215ZM84.9362 19.7215H87.6201V17.0376H84.9362V19.7215ZM84.9362 26.7425V29.4263H87.6201V26.7425H84.9362ZM71.5061 26.7425V24.0586H68.8222V26.7425H71.5061ZM71.5061 30.0597H68.8222V32.7436H71.5061V30.0597ZM84.9362 30.0597H87.6201V27.3759H84.9362V30.0597ZM84.9362 39.6895H82.2523V42.3733H84.9362V39.6895ZM88.3179 39.6895V42.3733H91.0017V39.6895H88.3179ZM88.3179 30.0597V27.3759H85.634V30.0597H88.3179ZM100.556 30.0597V32.7436H103.24V30.0597H100.556ZM100.556 26.7425H103.24V24.0586H100.556V26.7425ZM88.3179 26.7425H85.634V29.4263H88.3179V26.7425ZM88.3179 19.7215V17.0376H85.634V19.7215H88.3179ZM98.785 19.7215V22.4053H101.469V19.7215H98.785ZM98.785 16.4364H101.469V13.7525H98.785V16.4364ZM88.3179 16.4364H85.634V19.1203H88.3179V16.4364ZM88.3179 9.93069H91.0017V7.24682H88.3179V9.93069ZM84.9362 9.93069V7.24682H82.2523V9.93069H84.9362ZM84.9362 16.4364V19.1203H87.6201V16.4364H84.9362ZM78.3983 16.4364L75.9142 15.4202L74.4006 19.1203H78.3983V16.4364ZM80.1052 11.8309L82.6514 12.6796L83.5834 9.88358L80.7126 9.21663L80.1052 11.8309ZM76.9168 11.0901L77.5241 8.47588L75.1528 7.92496L74.374 10.2315L76.9168 11.0901ZM71.0552 22.5234L68.9914 20.8077L67.57 22.5175L68.9855 24.2321L71.0552 22.5234ZM73.3419 25.2932L71.2722 27.0019L73.4013 29.5808L75.4581 26.9438L73.3419 25.2932ZM76.8846 22.4053H84.9362V17.0376H76.8846V22.4053ZM82.2523 19.7215V26.7425H87.6201V19.7215H82.2523ZM84.9362 24.0586H71.5061V29.4263H84.9362V24.0586ZM68.8222 26.7425V30.0597H74.19V26.7425H68.8222ZM71.5061 32.7436H84.9362V27.3759H71.5061V32.7436ZM82.2523 30.0597V39.6895H87.6201V30.0597H82.2523ZM84.9362 42.3733H88.3179V37.0056H84.9362V42.3733ZM91.0017 39.6895V30.0597H85.634V39.6895H91.0017ZM88.3179 32.7436H100.556V27.3759H88.3179V32.7436ZM103.24 30.0597V26.7425H97.8725V30.0597H103.24ZM100.556 24.0586H88.3179V29.4263H100.556V24.0586ZM91.0017 26.7425V19.7215H85.634V26.7425H91.0017ZM88.3179 22.4053H98.785V17.0376H88.3179V22.4053ZM101.469 19.7215V16.4364H96.1011V19.7215H101.469ZM98.785 13.7525H88.3179V19.1203H98.785V13.7525ZM91.0017 16.4364V9.93069H85.634V16.4364H91.0017ZM88.3179 7.24682H84.9362V12.6146H88.3179V7.24682ZM82.2523 9.93069V16.4364H87.6201V9.93069H82.2523ZM84.9362 13.7525H78.3983V19.1203H84.9362V13.7525ZM80.8823 17.4526C81.4834 15.9833 82.0841 14.3815 82.6514 12.6796L77.5591 10.9822C77.0314 12.5653 76.4726 14.0553 75.9142 15.4202L80.8823 17.4526ZM80.7126 9.21663L77.5241 8.47588L76.3094 13.7044L79.4979 14.4451L80.7126 9.21663ZM74.374 10.2315C72.7602 15.0107 70.9288 18.4771 68.9914 20.8077L73.1191 24.2391C75.6261 21.2234 77.7239 17.0892 79.4596 11.9487L74.374 10.2315ZM68.9855 24.2321L71.2722 27.0019L75.4115 23.5845L73.1249 20.8147L68.9855 24.2321ZM75.4581 26.9438C76.8178 25.2007 78.0995 23.2236 79.2705 20.9506L74.4987 18.4924C73.4796 20.4705 72.3781 22.165 71.2256 23.6425L75.4581 26.9438ZM111.214 16.5008V13.8169H109.695L108.913 15.12L111.214 16.5008ZM119.073 16.5008H121.757V13.8169H119.073V16.5008ZM119.073 20.6554V23.3393H121.757V20.6554H119.073ZM109.54 20.6554V17.9716H106.856V20.6554H109.54ZM109.54 29.7699V32.4537H112.223V29.7699H109.54ZM104.58 29.7699V27.086H101.896V29.7699H104.58ZM104.58 33.0549H101.896V35.7388H104.58V33.0549ZM119.073 33.0549H121.757V30.3711H119.073V33.0549ZM119.073 39.9149H116.389V42.5988H119.073V39.9149ZM122.454 39.9149V42.5988H125.138V39.9149H122.454ZM122.454 33.0549V30.3711H119.77V33.0549H122.454ZM133.211 33.0549V35.7388H135.895V33.0549H133.211ZM133.211 29.7699H135.895V27.086H133.211V29.7699ZM122.454 29.7699H119.77V32.4537H122.454V29.7699ZM122.454 23.8117V21.1278H119.77V23.8117H122.454ZM131.118 23.8117V26.4955H133.802V23.8117H131.118ZM131.118 20.6554H133.802V17.9716H131.118V20.6554ZM122.454 20.6554H119.77V23.3393H122.454V20.6554ZM122.454 16.5008V13.8169H119.77V16.5008H122.454ZM132.245 16.5008V19.1847H134.929V16.5008H132.245ZM132.245 13.248H134.929V10.5641H132.245V13.248ZM112.825 13.248L110.327 12.2666L108.887 15.9318H112.825V13.248ZM113.791 10.3494L116.374 11.076L117.17 8.24574L114.279 7.71038L113.791 10.3494ZM110.312 9.70525L110.801 7.06625L108.371 6.61627L107.723 9.00083L110.312 9.70525ZM103.871 19.3028L102.264 17.1531L100.061 18.7999L101.762 20.962L103.871 19.3028ZM106.126 22.1691L104.016 23.8283L105.65 25.9057L107.752 24.304L106.126 22.1691ZM112.921 29.7699H110.237V32.4537H112.921V29.7699ZM112.921 23.8117V21.1278H110.237V23.8117H112.921ZM119.073 23.8117H121.757V21.1278H119.073V23.8117ZM119.073 29.7699V32.4537H121.757V29.7699H119.073ZM111.214 19.1847H119.073V13.8169H111.214V19.1847ZM116.389 16.5008V20.6554H121.757V16.5008H116.389ZM119.073 17.9716H109.54V23.3393H119.073V17.9716ZM106.856 20.6554V29.7699H112.223V20.6554H106.856ZM109.54 27.086H104.58V32.4537H109.54V27.086ZM101.896 29.7699V33.0549H107.264V29.7699H101.896ZM104.58 35.7388H119.073V30.3711H104.58V35.7388ZM116.389 33.0549V39.9149H121.757V33.0549H116.389ZM119.073 42.5988H122.454V37.231H119.073V42.5988ZM125.138 39.9149V33.0549H119.77V39.9149H125.138ZM122.454 35.7388H133.211V30.3711H122.454V35.7388ZM135.895 33.0549V29.7699H130.527V33.0549H135.895ZM133.211 27.086H122.454V32.4537H133.211V27.086ZM125.138 29.7699V23.8117H119.77V29.7699H125.138ZM122.454 26.4955H131.118V21.1278H122.454V26.4955ZM133.802 23.8117V20.6554H128.434V23.8117H133.802ZM131.118 17.9716H122.454V23.3393H131.118V17.9716ZM125.138 20.6554V16.5008H119.77V20.6554H125.138ZM122.454 19.1847H132.245V13.8169H122.454V19.1847ZM134.929 16.5008V13.248H129.561V16.5008H134.929ZM132.245 10.5641H112.825V15.9318H132.245V10.5641ZM115.323 14.2293C115.713 13.236 116.063 12.1841 116.374 11.076L111.207 9.62273C110.939 10.5759 110.645 11.4564 110.327 12.2666L115.323 14.2293ZM114.279 7.71038L110.801 7.06625L109.824 12.3443L113.302 12.9884L114.279 7.71038ZM107.723 9.00083C106.78 12.4678 104.957 15.14 102.264 17.1531L105.478 21.4525C109.162 18.6989 111.655 14.9943 112.902 10.4097L107.723 9.00083ZM101.762 20.962L104.016 23.8283L108.235 20.5099L105.981 17.6436L101.762 20.962ZM107.752 24.304C110.041 22.56 111.981 20.4394 113.516 17.8817L108.913 15.12C107.742 17.0712 106.268 18.6864 104.499 20.0343L107.752 24.304ZM115.605 29.7699V23.8117H110.237V29.7699H115.605ZM112.921 26.4955H119.073V21.1278H112.921V26.4955ZM116.389 23.8117V29.7699H121.757V23.8117H116.389ZM119.073 27.086H112.921V32.4537H119.073V27.086ZM148.571 11.0257V8.34184H145.887V11.0257H148.571ZM148.571 13.9887H145.887V16.6726H148.571V13.9887ZM166.349 13.9887V16.6726H169.033V13.9887H166.349ZM166.349 11.0257H169.033V8.34184H166.349V11.0257ZM150.246 15.5024V12.8185H147.562V15.5024H150.246ZM150.246 23.1353H147.562V25.8192H150.246V23.1353ZM164.61 23.1353V25.8192H167.294V23.1353H164.61ZM164.61 15.5024H167.294V12.8185H164.61V15.5024ZM161.454 20.4944V23.1783H164.138V20.4944H161.454ZM153.402 20.4944H150.718V23.1783H153.402V20.4944ZM153.402 18.1433V15.4595H150.718V18.1433H153.402ZM161.454 18.1433H164.138V15.4595H161.454V18.1433ZM166.027 24.8423H168.711V22.1584H166.027V24.8423ZM148.765 24.8423V22.1584H146.081V24.8423H148.765ZM148.765 39.8505H146.081V42.5344H148.765V39.8505ZM151.921 39.8505V42.5344H154.605V39.8505H151.921ZM151.921 38.7233V36.0394H149.237V38.7233H151.921ZM162.871 38.7233H165.555V36.0394H162.871V38.7233ZM162.871 39.8505H160.187V42.5344H162.871V39.8505ZM166.027 39.8505V42.5344H168.711V39.8505H166.027ZM151.921 35.8247H149.237V38.5086H151.921V35.8247ZM151.921 33.0549V30.3711H149.237V33.0549H151.921ZM155.818 33.0549H158.502V30.3711H155.818V33.0549ZM155.818 35.8247V38.5086H158.502V35.8247H155.818ZM158.974 35.8247H156.29V38.5086H158.974V35.8247ZM158.974 33.0549V30.3711H156.29V33.0549H158.974ZM162.871 33.0549H165.555V30.3711H162.871V33.0549ZM162.871 35.8247V38.5086H165.555V35.8247H162.871ZM151.921 30.2852H149.237V32.969H151.921V30.2852ZM151.921 27.612V24.9282H149.237V27.612H151.921ZM155.818 27.612H158.502V24.9282H155.818V27.612ZM155.818 30.2852V32.969H158.502V30.2852H155.818ZM158.974 27.612V24.9282H156.29V27.612H158.974ZM162.871 27.612H165.555V24.9282H162.871V27.612ZM162.871 30.2852V32.969H165.555V30.2852H162.871ZM158.974 30.2852H156.29V32.969H158.974V30.2852ZM141.196 27.7087H143.88V21.076L139.267 25.8422L141.196 27.7087ZM141.196 39.8183H138.512V42.5022H141.196V39.8183ZM144.481 39.8183V42.5022H147.165V39.8183H144.481ZM144.481 27.2256L146.291 25.2436L141.797 21.1408V27.2256H144.481ZM146.736 29.641L144.668 31.3522L146.974 34.139L148.973 31.1238L146.736 29.641ZM148.571 26.8713L150.808 28.354L152.055 26.4741L150.417 24.9229L148.571 26.8713ZM144.513 23.7473L142.329 22.1873L140.677 24.5012L143.082 26.0176L144.513 23.7473ZM148.056 16.9195L150.602 17.7682L150.74 17.355V16.9195H148.056ZM148.056 14.0853H150.74V11.4015H148.056V14.0853ZM144.964 14.0853L142.357 14.7213L142.856 16.7692H144.964V14.0853ZM143.579 9.73746L146.099 8.81201L145.239 6.472L142.842 7.15685L143.579 9.73746ZM140.423 10.6392L139.686 8.05863L136.651 8.92583L137.995 11.782L140.423 10.6392ZM141.808 14.0853V16.7692H145.596L144.34 13.1957L141.808 14.0853ZM137.75 14.0853V11.4015H135.066V14.0853H137.75ZM137.75 17.306H135.066V19.9898H137.75V17.306ZM144.707 17.306L147.168 18.3752L148.798 14.6221H144.707V17.306ZM137.041 27.1289L135.25 25.1306L133.981 26.2681L134.471 27.9001L137.041 27.1289ZM138.104 30.6716L135.534 31.4429L136.738 35.4567L139.88 32.6841L138.104 30.6716ZM145.887 11.0257V13.9887H151.255V11.0257H145.887ZM148.571 16.6726H166.349V11.3048H148.571V16.6726ZM169.033 13.9887V11.0257H163.665V13.9887H169.033ZM166.349 8.34184H148.571V13.7096H166.349V8.34184ZM147.562 15.5024V23.1353H152.93V15.5024H147.562ZM150.246 25.8192H164.61V20.4515H150.246V25.8192ZM167.294 23.1353V15.5024H161.926V23.1353H167.294ZM164.61 12.8185H150.246V18.1863H164.61V12.8185ZM161.454 17.8105H153.402V23.1783H161.454V17.8105ZM156.086 20.4944V18.1433H150.718V20.4944H156.086ZM153.402 20.8272H161.454V15.4595H153.402V20.8272ZM158.77 18.1433V20.4944H164.138V18.1433H158.77ZM166.027 22.1584H148.765V27.5262H166.027V22.1584ZM146.081 24.8423V39.8505H151.448V24.8423H146.081ZM148.765 42.5344H151.921V37.1666H148.765V42.5344ZM154.605 39.8505V38.7233H149.237V39.8505H154.605ZM151.921 41.4071H162.871V36.0394H151.921V41.4071ZM160.187 38.7233V39.8505H165.555V38.7233H160.187ZM162.871 42.5344H166.027V37.1666H162.871V42.5344ZM168.711 39.8505V24.8423H163.343V39.8505H168.711ZM154.605 35.8247V33.0549H149.237V35.8247H154.605ZM151.921 35.7388H155.818V30.3711H151.921V35.7388ZM153.134 33.0549V35.8247H158.502V33.0549H153.134ZM155.818 33.1408H151.921V38.5086H155.818V33.1408ZM161.658 35.8247V33.0549H156.29V35.8247H161.658ZM158.974 35.7388H162.871V30.3711H158.974V35.7388ZM160.187 33.0549V35.8247H165.555V33.0549H160.187ZM162.871 33.1408H158.974V38.5086H162.871V33.1408ZM154.605 30.2852V27.612H149.237V30.2852H154.605ZM151.921 30.2959H155.818V24.9282H151.921V30.2959ZM153.134 27.612V30.2852H158.502V27.612H153.134ZM155.818 27.6013H151.921V32.969H155.818V27.6013ZM158.974 30.2959H162.871V24.9282H158.974V30.2959ZM160.187 27.612V30.2852H165.555V27.612H160.187ZM162.871 27.6013H158.974V32.969H162.871V27.6013ZM161.658 30.2852V27.612H156.29V30.2852H161.658ZM138.512 27.7087V39.8183H143.88V27.7087H138.512ZM141.196 42.5022H144.481V37.1344H141.196V42.5022ZM147.165 39.8183V27.2256H141.797V39.8183H147.165ZM142.671 29.2076C143.291 29.7733 143.945 30.4786 144.668 31.3522L148.803 27.9299C147.98 26.9355 147.153 26.0305 146.291 25.2436L142.671 29.2076ZM148.973 31.1238L150.808 28.354L146.334 25.3886L144.498 28.1583L148.973 31.1238ZM150.417 24.9229C149.052 23.6294 147.557 22.4934 145.945 21.4769L143.082 26.0176C144.433 26.8691 145.643 27.7943 146.726 28.8197L150.417 24.9229ZM146.697 25.3072C148.449 22.8553 149.737 20.3635 150.602 17.7682L145.51 16.0708C144.829 18.1132 143.799 20.1303 142.329 22.1873L146.697 25.3072ZM150.74 16.9195V14.0853H145.372V16.9195H150.74ZM148.056 11.4015H144.964V16.7692H148.056V11.4015ZM147.572 13.4494C147.214 11.9828 146.69 10.4231 146.099 8.81201L141.06 10.6629C141.628 12.2081 142.07 13.5469 142.357 14.7213L147.572 13.4494ZM142.842 7.15685L139.686 8.05863L141.16 13.2198L144.317 12.3181L142.842 7.15685ZM137.995 11.782C138.458 12.7664 138.875 13.8341 139.276 14.975L144.34 13.1957C143.904 11.9533 143.419 10.7021 142.852 9.49645L137.995 11.782ZM141.808 11.4015H137.75V16.7692H141.808V11.4015ZM135.066 14.0853V17.306H140.434V14.0853H135.066ZM137.75 19.9898H144.707V14.6221H137.75V19.9898ZM142.245 16.2368C141.063 18.9574 138.807 21.9412 135.25 25.1306L138.833 29.1273C142.748 25.6178 145.58 22.0314 147.168 18.3752L142.245 16.2368ZM134.471 27.9001L135.534 31.4429L140.675 29.9004L139.612 26.3577L134.471 27.9001ZM139.88 32.6841C141.036 31.6642 142.118 30.6159 143.125 29.5751L139.267 25.8422C138.342 26.7982 137.363 27.7467 136.329 28.6592L139.88 32.6841ZM170.63 18.3366V15.6527H167.947V18.3366H170.63ZM170.63 21.5894H167.947V24.2733H170.63V21.5894ZM176.524 21.5894H179.208V18.9056H176.524V21.5894ZM176.524 21.6538L178.972 22.7552L179.208 22.2299V21.6538H176.524ZM169.793 30.3496L168.054 28.3057L166.598 29.5446L167.293 31.3253L169.793 30.3496ZM171.339 34.311L168.839 35.2867L170.383 39.243L173.293 36.1504L171.339 34.311ZM176.524 27.1934H179.208L174.173 25.8999L176.524 27.1934ZM176.524 39.8183H173.84V42.5022H176.524V39.8183ZM179.938 39.8183V42.5022H182.622V39.8183H179.938ZM179.938 25.9373L181.938 24.1477L177.254 18.9126V25.9373H179.938ZM183.964 30.8005L181.845 32.4482L184.162 35.4262L186.215 32.2615L183.964 30.8005ZM185.928 27.7731L188.18 29.2341L189.372 27.3966L187.811 25.8602L185.928 27.7731ZM179.938 22.3946H177.254V23.665L178.237 24.4703L179.938 22.3946ZM179.938 21.5894V18.9056H177.254V21.5894H179.938ZM185.639 21.5894V24.2733H188.322V21.5894H185.639ZM185.639 18.3366H188.322V15.6527H185.639V18.3366ZM179.938 18.3366H177.254V21.0204H179.938V18.3366ZM179.938 14.4396L179.298 11.8332L177.254 12.3352V14.4396H179.938ZM185.317 12.7649L186.249 15.2817L189.267 14.1639L187.625 11.3959L185.317 12.7649ZM183.674 9.99511L185.982 8.62613L184.817 6.66033L182.69 7.49801L183.674 9.99511ZM170.824 12.5716L170.599 9.89713L167.198 10.1823L168.277 13.4203L170.824 12.5716ZM171.854 15.6634L169.308 16.5122L169.975 18.5132L172.077 18.338L171.854 15.6634ZM176.524 15.1159H179.208V11.9477L176.083 12.4686L176.524 15.1159ZM176.524 18.3366V21.0204H179.208V18.3366H176.524ZM187.635 13.0225V10.3386H184.952V13.0225H187.635ZM187.635 32.7007H184.952V35.3845H187.635V32.7007ZM190.985 32.7007V35.3845H193.669V32.7007H190.985ZM190.985 13.0225H193.669V10.3386H190.985V13.0225ZM198.489 10.1239H201.173V7.44006H198.489V10.1239ZM195.075 10.1239V7.44006H192.391V10.1239H195.075ZM189.6 36.2756L189.828 33.6014L186.204 33.2929L186.978 36.8468L189.6 36.2756ZM190.309 39.5284L187.686 40.0996L188.146 42.2123H190.309V39.5284ZM167.947 18.3366V21.5894H173.314V18.3366H167.947ZM170.63 24.2733H176.524V18.9056H170.63V24.2733ZM173.84 21.5894V21.6538H179.208V21.5894H173.84ZM174.077 20.5525C172.813 23.3617 170.821 25.9501 168.054 28.3057L171.533 32.3935C174.819 29.5961 177.337 26.3872 178.972 22.7552L174.077 20.5525ZM167.293 31.3253L168.839 35.2867L173.839 33.3353L172.293 29.3739L167.293 31.3253ZM173.293 36.1504C175.509 33.7964 177.349 31.262 178.876 28.4868L174.173 25.8999C172.865 28.2777 171.291 30.4455 169.385 32.4715L173.293 36.1504ZM173.84 27.1934V39.8183H179.208V27.1934H173.84ZM176.524 42.5022H179.938V37.1344H176.524V42.5022ZM182.622 39.8183V25.9373H177.254V39.8183H182.622ZM177.938 27.7269C178.987 28.8991 180.3 30.4614 181.845 32.4482L186.082 29.1527C184.471 27.0815 183.079 25.4232 181.938 24.1477L177.938 27.7269ZM186.215 32.2615L188.18 29.2341L183.677 26.3121L181.713 29.3395L186.215 32.2615ZM187.811 25.8602C185.719 23.8018 183.662 21.9764 181.639 20.3189L178.237 24.4703C180.144 26.0335 182.079 27.7508 184.046 29.686L187.811 25.8602ZM182.622 22.3946V21.5894H177.254V22.3946H182.622ZM179.938 24.2733H185.639V18.9056H179.938V24.2733ZM188.322 21.5894V18.3366H182.955V21.5894H188.322ZM185.639 15.6527H179.938V21.0204H185.639V15.6527ZM182.622 18.3366V14.4396H177.254V18.3366H182.622ZM180.578 17.046C182.534 16.5657 184.437 15.9528 186.249 15.2817L184.384 10.2481C182.718 10.8652 181.014 11.4118 179.298 11.8332L180.578 17.046ZM187.625 11.3959L185.982 8.62613L181.366 11.3641L183.008 14.1338L187.625 11.3959ZM182.69 7.49801C179.838 8.62154 175.841 9.45773 170.599 9.89713L171.048 15.2461C176.563 14.7837 181.133 13.8808 184.658 12.4922L182.69 7.49801ZM168.277 13.4203L169.308 16.5122L174.4 14.8147L173.37 11.7229L168.277 13.4203ZM172.077 18.338C173.651 18.2069 175.313 18.0387 176.965 17.7633L176.083 12.4686C174.644 12.7085 173.15 12.8623 171.631 12.9888L172.077 18.338ZM173.84 15.1159V18.3366H179.208V15.1159H173.84ZM176.524 15.6527H170.63V21.0204H176.524V15.6527ZM184.952 13.0225V32.7007H190.319V13.0225H184.952ZM187.635 35.3845H190.985V30.0168H187.635V35.3845ZM193.669 32.7007V13.0225H188.301V32.7007H193.669ZM190.985 10.3386H187.635V15.7064H190.985V10.3386ZM195.107 42.2123C196.687 42.2123 198.351 41.7877 199.587 40.4897C200.8 39.2158 201.173 37.5476 201.173 35.9857H195.805C195.805 36.7749 195.614 36.878 195.7 36.7878C195.809 36.6733 195.782 36.8446 195.107 36.8446V42.2123ZM201.173 35.9857V10.1239H195.805V35.9857H201.173ZM198.489 7.44006H195.075V12.8078H198.489V7.44006ZM192.391 10.1239V35.1161H197.759V10.1239H192.391ZM192.391 35.1161C192.391 35.2442 192.355 34.856 192.733 34.4053C193.184 33.8679 193.753 33.7849 193.948 33.7849V39.1527C194.884 39.1527 196.016 38.8443 196.845 37.856C197.602 36.9544 197.759 35.8899 197.759 35.1161H192.391ZM193.948 33.7849C192.646 33.7849 191.273 33.7244 189.828 33.6014L189.372 38.9498C190.955 39.0844 192.48 39.1527 193.948 39.1527V33.7849ZM186.978 36.8468L187.686 40.0996L192.931 38.9572L192.222 35.7044L186.978 36.8468ZM190.309 42.2123H195.107V36.8446H190.309V42.2123Z" fill="url(#paint3_linear)"/>
<path d="M20.1628 9.13269V12.8042H12.1434V22.9815C12.0146 28.521 10.6941 33.0943 8.11763 36.7658L10.7263 39.0203C13.4961 34.9623 14.9776 30.1313 15.2353 24.5274H16.3947C17.1354 27.3615 18.5847 29.9381 20.7426 32.3213C18.7135 34.0605 16.1692 35.5098 13.0774 36.6048L15.2353 39.2135C18.3271 37.9897 20.9358 36.4116 23.0936 34.5114C25.0904 36.1861 27.5703 37.6998 30.5333 39.0525L32.3691 36.0573C29.5993 34.9301 27.2161 33.6418 25.2837 32.2247C27.1194 29.9703 28.4077 27.3293 29.1806 24.2697V21.4356H23.4801V15.896H27.6992C27.3127 17.1199 26.8296 18.2149 26.2821 19.1811L29.4383 20.0507C30.2757 18.1827 30.8876 16.2825 31.2741 14.4145V12.8042H23.4801V9.13269H20.1628ZM20.1628 15.896V21.4356H15.2675V15.896H20.1628ZM22.8682 30.0991C21.2579 28.4244 20.1306 26.5886 19.4865 24.5274H25.799C25.1548 26.5886 24.1886 28.4244 22.8682 30.0991ZM5.44449 9.45475L3.06121 11.7414C5.44449 13.3839 7.31246 14.9299 8.60072 16.3791L10.9196 14.0603C9.40588 12.5144 7.57012 11.0007 5.44449 9.45475ZM4.60712 17.1521L2.25605 19.4388C4.60712 21.1135 6.44289 22.6594 7.73115 24.1409L10.0178 21.8542C8.53631 20.2761 6.73275 18.698 4.60712 17.1521ZM7.21585 25.8478C5.92759 29.7126 4.38168 33.513 2.61032 37.2167L5.76655 38.6016C7.37688 34.9945 8.82617 31.1297 10.1144 27.0073L7.21585 25.8478ZM51.4973 23.0137C50.4667 25.7834 48.8242 28.0379 46.5375 29.8092L48.6632 32.418C51.4973 30.1313 53.4941 27.0073 54.6536 23.0137H56.3605C55.7164 26.0411 54.718 28.4888 53.3975 30.3567C51.8516 32.3535 49.5972 34.1571 46.6342 35.7674L48.7276 38.4406C52.077 36.5082 54.5892 34.3181 56.2639 31.8704C57.681 29.7126 58.8082 26.7496 59.5812 23.0137H60.9982C60.805 29.4872 60.5151 33.1265 60.1287 33.8995C59.71 34.8656 58.9692 35.3809 57.9386 35.4132C56.7792 35.4132 55.5876 35.3487 54.3959 35.2199L55.3299 38.4406C56.3283 38.505 57.3589 38.5694 58.4217 38.5694C60.9982 38.505 62.5764 37.41 63.1561 35.2199C63.7358 33.0299 64.1545 27.9735 64.3799 20.1151H52.9144C56.1995 18.0217 59.1947 15.8316 61.9322 13.545V10.6464H47.697V13.706H56.9402C53.945 15.896 50.6922 17.9895 47.2139 19.9541V23.0137H51.4973ZM35.5229 17.6674V20.9203H39.0334V31.8704C37.7452 32.1603 36.4891 32.418 35.2009 32.6112L36.1026 36.1861C39.6454 35.3487 42.9304 34.3503 46.0222 33.1909V29.6804C44.8306 30.1313 43.639 30.55 42.4473 30.9365V20.9203H46.1189V17.6674H42.4473V9.90564H39.0334V17.6674H35.5229ZM74.2005 18.8268H82.2521V25.8478H68.822V29.1651H82.2521V38.7948H85.6338V29.1651H97.8722V25.8478H85.6338V18.8268H96.1009V15.5418H85.6338V9.03607H82.2521V15.5418H75.7142C76.2939 14.1247 76.8736 12.5788 77.4211 10.9363L74.2327 10.1955C72.558 15.1553 70.5934 18.9557 68.3711 21.6288L70.6578 24.3985C71.9138 22.7882 73.1055 20.9525 74.2005 18.8268ZM108.53 15.6062H116.389V19.7608H106.855V28.8752H101.896V32.1603H116.389V39.0203H119.77V32.1603H130.527V28.8752H119.77V22.9171H128.434V19.7608H119.77V15.6062H129.561V12.3533H110.141C110.495 11.4516 110.817 10.4854 111.107 9.45475L107.628 8.81063C106.533 12.8364 104.376 16.0249 101.187 18.4081L103.442 21.2745C105.471 19.7286 107.178 17.8606 108.53 15.6062ZM110.237 28.8752V22.9171H116.389V28.8752H110.237ZM145.887 10.1311V13.0941H163.665V10.1311H145.887ZM147.562 14.6078V22.2407H161.926V14.6078H147.562ZM158.77 19.5998H150.718V17.2487H158.77V19.5998ZM163.343 23.9477H146.081V38.9559H149.237V37.8286H160.187V38.9559H163.343V23.9477ZM149.237 34.9301V32.1603H153.134V34.9301H149.237ZM156.29 34.9301V32.1603H160.187V34.9301H156.29ZM149.237 29.3905V26.7174H153.134V29.3905H149.237ZM156.29 26.7174H160.187V29.3905H156.29V26.7174ZM138.512 26.814V38.9237H141.797V26.3309C142.538 27.0073 143.279 27.8124 144.052 28.7464L145.887 25.9767C144.663 24.8172 143.311 23.7866 141.829 22.8526C143.44 20.5982 144.599 18.3437 145.372 16.0249V13.1907H142.28C141.958 11.8702 141.475 10.4209 140.895 8.84283L137.739 9.74461C138.254 10.8396 138.705 11.9991 139.124 13.1907H135.066V16.4113H142.023C140.638 19.5998 138.093 22.8848 134.357 26.2343L135.42 29.777C136.515 28.8108 137.546 27.8124 138.512 26.814ZM167.946 17.442V20.6948H173.84V20.7592C172.391 23.9799 170.136 26.8784 167.109 29.455L168.655 33.4164C170.716 31.2263 172.423 28.8752 173.84 26.2987V38.9237H177.254V25.0427C178.349 26.2665 179.702 27.8768 181.28 29.9059L183.244 26.8784C181.215 24.8816 179.219 23.1103 177.254 21.5V20.6948H182.955V17.442H177.254V13.545C179.09 13.0941 180.893 12.5144 182.632 11.8702L180.99 9.10048C177.801 10.3565 173.518 11.2261 168.14 11.677L169.17 14.7688C170.716 14.64 172.294 14.479 173.84 14.2213V17.442H167.946ZM184.951 12.1279V31.806H188.301V12.1279H184.951ZM192.423 38.6338C194.678 38.6338 195.805 37.4422 195.805 35.0911V9.22931H192.391V34.2215C192.391 35.1233 192.005 35.5742 191.264 35.5742C189.879 35.5742 188.43 35.5098 186.916 35.3809L187.624 38.6338H192.423Z" fill="white"/>
<defs>
<linearGradient id="paint0_linear" x1="414.316" y1="23.8344" x2="216.585" y2="22.6304" gradientUnits="userSpaceOnUse">
<stop stop-color="#712BA5"/>
<stop offset="1" stop-color="#BF3DC2"/>
</linearGradient>
<linearGradient id="paint1_linear" x1="411.068" y1="23.8345" x2="218.925" y2="23.8345" gradientUnits="userSpaceOnUse">
<stop offset="0.211538" stop-color="#772DA6"/>
<stop offset="1" stop-color="#9239D9"/>
</linearGradient>
<linearGradient id="paint2_linear" x1="201.396" y1="24.7291" x2="3.66418" y2="23.5251" gradientUnits="userSpaceOnUse">
<stop stop-color="#933AD9"/>
<stop offset="1" stop-color="#5A27B4"/>
</linearGradient>
<linearGradient id="paint3_linear" x1="198.147" y1="24.7291" x2="6.00465" y2="24.7291" gradientUnits="userSpaceOnUse">
<stop stop-color="#803AD9"/>
<stop offset="1" stop-color="#5B27B7"/>
</linearGradient>
</defs>
</svg>
