<?xml version="1.0" encoding="UTF-8"?>
<svg width="14px" height="14px" viewBox="0 0 14 14" version="1.1" xmlns="http://www.w3.org/2000/svg" xmlns:xlink="http://www.w3.org/1999/xlink">
    <!-- Generator: Sketch 53.1 (72631) - https://sketchapp.com -->
    <title>worning</title>
    <desc>Created with Sketch.</desc>
    <g id="Page-1" stroke="none" stroke-width="1" fill="none" fill-rule="evenodd">
        <g id="Artboard" transform="translate(-387.000000, -1635.000000)" fill="#FF8E18" fill-rule="nonzero">
            <g id="图标" transform="translate(0.000000, 1464.000000)">
                <g id="worning" transform="translate(387.000000, 171.000000)">
                    <path d="M7,13.9931707 C3.13777845,13.9931707 0.00682926829,10.8622215 0.00682926829,7 C0.00682926829,3.13777845 3.13777845,0.00682926829 7,0.00682926829 C10.8622215,0.00682926829 13.9931707,3.13777845 13.9931707,7 C13.9931707,10.8622215 10.8622215,13.9931707 7,13.9931707 Z M7,2.62926829 C6.51722231,2.62926829 6.12585366,3.02063694 6.12585366,3.50341463 L6.12585366,7 C6.12585366,7.48277769 6.51722231,7.87414634 7,7.87414634 C7.48277769,7.87414634 7.87414634,7.48277769 7.87414634,7 L7.87414634,3.50341463 C7.87414634,3.02063694 7.48277769,2.62926829 7,2.62926829 Z M7,9.62243902 C6.51722231,9.62243902 6.12585366,10.0138077 6.12585366,10.4965854 C6.12585366,10.9793631 6.51722231,11.3707317 7,11.3707317 C7.48277769,11.3707317 7.87414634,10.9793631 7.87414634,10.4965854 C7.87414634,10.0138077 7.48277769,9.62243902 7,9.62243902 Z" id="Shape"></path>
                </g>
            </g>
        </g>
    </g>
</svg>